<svg width="24" height="24" viewBox="0 0 24 24" fill="none" xmlns="http://www.w3.org/2000/svg">
<path d="M12.0014 4.64041C13.7208 4.61396 15.3837 5.25453 16.641 6.42769L20.0274 3.11621C17.8548 1.08034 14.9787 -0.0360245 12.0014 0.000887C9.77693 0.000372988 7.59613 0.618686 5.70293 1.78668C3.80973 2.95467 2.27877 4.6263 1.28125 6.61461L5.16156 9.62724C5.63603 8.18457 6.55138 6.92722 7.77855 6.03252C9.00571 5.13781 10.4828 4.65089 12.0014 4.64041Z" fill="#EA4335"/>
<path d="M23.5198 12.2655C23.5339 11.4406 23.4487 10.617 23.2659 9.8125H12V14.2663H18.6137C18.4883 15.0471 18.2062 15.7945 17.7844 16.4635C17.3627 17.1325 16.81 17.7094 16.1595 18.1593L19.9464 21.0923C21.1266 19.9528 22.0547 18.5786 22.6708 17.0582C23.2869 15.5378 23.5773 13.9051 23.5232 12.2655H23.5198Z" fill="#4285F4"/>
<path d="M5.17414 14.3727C4.91178 13.6088 4.77653 12.807 4.77377 11.9993C4.77855 11.1929 4.90896 10.3922 5.1603 9.62592L1.27999 6.61328C0.43838 8.28418 0 10.129 0 11.9999C0 13.8708 0.43838 15.7156 1.27999 17.3865L5.17414 14.3727Z" fill="#FBBC05"/>
<path d="M11.9993 24.0014C14.9223 24.084 17.7659 23.0439 19.9457 21.0949L16.1588 18.1619C14.931 18.985 13.4769 19.4045 11.9993 19.3618C10.4819 19.3528 9.00595 18.8662 7.78071 17.9711C6.55546 17.076 5.64318 15.8178 5.17328 14.375L1.29297 17.3888C2.28779 19.3762 3.81625 21.0475 5.70717 22.2153C7.59809 23.3832 9.7768 24.0017 11.9993 24.0014Z" fill="#34A853"/>
</svg>
