<svg width="525" height="313" viewBox="0 0 525 313" fill="none" xmlns="http://www.w3.org/2000/svg">
<g clip-path="url(#clip0_2901_693)">
<path d="M401.95 309.458C395.229 303.794 391.146 294.848 392.217 286.138C393.287 277.428 399.919 269.421 408.521 267.571C417.123 265.721 426.929 270.841 429.541 279.221C430.979 263.066 432.636 246.234 441.249 232.476C449.048 220.019 462.556 211.105 477.196 209.511C491.836 207.916 507.249 213.939 516.379 225.461C525.51 236.984 527.745 253.736 521.351 266.964C516.64 276.71 507.961 283.962 498.868 289.863C469.485 308.768 434.244 316.456 399.629 311.512L401.95 309.458Z" fill="#DFDFDF"/>
<path d="M501.905 214.273C489.826 224.085 478.744 235.058 468.821 247.035C453.29 265.714 440.723 286.656 431.556 309.133C430.885 310.773 433.556 311.487 434.219 309.865C449.217 273.336 473.16 241.139 503.858 216.22C505.236 215.101 503.273 213.163 501.905 214.273Z" fill="white"/>
<path d="M169.006 307.918C178.238 300.139 183.845 287.851 182.375 275.887C180.904 263.924 171.796 252.927 159.981 250.386C148.166 247.846 134.698 254.878 131.11 266.387C129.135 244.198 126.859 221.079 115.029 202.183C104.317 185.073 85.7635 172.83 65.6559 170.64C45.5483 168.45 24.3776 176.722 11.8373 192.549C-0.703075 208.375 -3.77353 231.383 5.00941 249.553C11.4795 262.938 23.3997 272.9 35.889 281.004C75.7345 306.859 125.163 317.642 172.194 310.74" fill="#DFDFDF"/>
<path d="M31.721 177.186C48.3122 190.662 63.5329 205.734 77.163 222.184C90.7952 238.617 102.797 256.33 112.999 275.073C118.702 285.588 123.825 296.405 128.345 307.476C129.267 309.728 125.6 310.709 124.688 308.482C116.682 288.963 106.776 270.274 95.1138 252.682C83.508 235.154 70.2245 218.79 55.45 203.82C47.0934 195.357 38.2765 187.358 29.0393 179.861C27.1459 178.323 29.8433 175.662 31.721 177.186L31.721 177.186Z" fill="white"/>
<path d="M376.852 312.315H156.594V86.9547C156.594 39.0076 195.711 0 243.792 0H289.654C337.735 0 376.852 39.0076 376.852 86.9547V312.315Z" fill="#DFDFDF"/>
<path d="M330.991 312.316H156.594V86.9563C156.546 68.5841 162.38 50.6762 173.247 35.8399C173.647 35.2955 174.047 34.7581 174.459 34.2265C179.715 27.352 185.97 21.2978 193.017 16.2636C193.415 15.9747 193.815 15.6909 194.221 15.407C200.118 11.3376 206.497 8.01086 213.213 5.50263C213.611 5.3519 214.017 5.20086 214.423 5.056C220.497 2.89452 226.793 1.41391 233.196 0.641517C233.593 0.587448 234 0.545139 234.408 0.502829C240.647 -0.162401 246.939 -0.162401 253.178 0.502829C253.585 0.545139 253.992 0.587443 254.394 0.642095C260.794 1.41454 267.089 2.89496 273.161 5.05603C273.567 5.20089 273.973 5.35191 274.373 5.50294C281.006 7.97953 287.31 11.2566 293.144 15.261C293.55 15.5387 293.955 15.8225 294.355 16.1064C298.305 18.9183 302.016 22.0509 305.449 25.4722C308.202 28.2165 310.767 31.1418 313.127 34.2283C313.538 34.7581 313.937 35.2955 314.337 35.8391C325.204 50.6755 331.039 68.5837 330.991 86.9563V312.316Z" fill="#AEAEAE"/>
<path d="M316.811 211.518C322.144 211.518 326.467 207.207 326.467 201.89C326.467 196.572 322.144 192.262 316.811 192.262C311.479 192.262 307.156 196.572 307.156 201.89C307.156 207.207 311.479 211.518 316.811 211.518Z" fill="#67CB19"/>
<path d="M358.809 305.562H351.411L347.891 277.105L358.81 277.106L358.809 305.562Z" fill="#FFB8B8"/>
<path d="M346.128 303.457H360.396V312.415H337.145C337.145 311.239 337.377 310.074 337.828 308.987C338.28 307.9 338.942 306.913 339.776 306.081C340.61 305.249 341.6 304.589 342.69 304.139C343.78 303.689 344.948 303.457 346.128 303.457Z" fill="#2F2E41"/>
<path d="M395.621 305.562H388.223L384.703 277.105L395.623 277.106L395.621 305.562Z" fill="#FFB8B8"/>
<path d="M382.937 303.457H397.204V312.415H373.953C373.953 311.239 374.186 310.074 374.637 308.987C375.088 307.9 375.75 306.913 376.584 306.081C377.419 305.249 378.409 304.589 379.499 304.139C380.589 303.689 381.757 303.457 382.937 303.457Z" fill="#2F2E41"/>
<path d="M321.697 203.801C321.165 203.019 320.811 202.13 320.66 201.197C320.51 200.264 320.566 199.309 320.826 198.4C321.085 197.491 321.542 196.65 322.162 195.936C322.783 195.222 323.553 194.652 324.419 194.267L349.568 125.145L361.943 131.879L333.228 197.935C333.781 199.428 333.765 201.071 333.184 202.553C332.603 204.034 331.497 205.252 330.075 205.975C328.654 206.698 327.016 206.876 325.472 206.476C323.928 206.075 322.584 205.123 321.697 203.801Z" fill="#FFB8B8"/>
<path d="M391.841 216.789C391.019 216.318 390.31 215.674 389.765 214.902C389.219 214.129 388.85 213.246 388.684 212.316C388.517 211.385 388.558 210.43 388.802 209.517C389.045 208.603 389.487 207.755 390.096 207.03L382.305 133.91L396.388 134.552L399.626 206.475C400.779 207.575 401.487 209.058 401.616 210.644C401.745 212.23 401.287 213.808 400.327 215.08C399.368 216.351 397.974 217.227 396.41 217.542C394.846 217.857 393.22 217.589 391.841 216.789Z" fill="#FFB8B8"/>
<path d="M369.372 112.341C377.558 112.341 384.193 105.724 384.193 97.5612C384.193 89.3984 377.558 82.7812 369.372 82.7812C361.186 82.7812 354.551 89.3984 354.551 97.5612C354.551 105.724 361.186 112.341 369.372 112.341Z" fill="#FFB8B8"/>
<path d="M391.746 200.155H347.062L347.116 199.808C347.197 199.29 355.08 147.792 349.266 130.945C348.682 129.289 348.733 127.477 349.41 125.857C350.086 124.237 351.339 122.923 352.928 122.169H352.928C361.239 118.266 377.191 113.461 390.656 125.123C392.637 126.868 394.184 129.048 395.175 131.491C396.166 133.935 396.573 136.575 396.364 139.202L391.746 200.155Z" fill="#67CB19"/>
<path d="M355.644 155.405L335.527 151.335L344.957 129.052C345.521 126.894 346.921 125.047 348.849 123.916C350.777 122.786 353.076 122.464 355.242 123.021C357.407 123.579 359.263 124.97 360.401 126.89C361.539 128.81 361.868 131.102 361.314 133.263L355.644 155.405Z" fill="#67CB19"/>
<path d="M381.41 162.959L380.201 135.313C379.284 130.116 382.267 125.203 386.855 124.4C391.445 123.6 395.926 127.205 396.847 132.44L401.393 158.272L381.41 162.959Z" fill="#67CB19"/>
<path d="M390.26 196.848C397.45 224.154 398.234 258.871 396.295 296.74L386.639 295.537L369.14 223.325L359.484 296.74L348.622 296.138C345.377 256.404 342.218 222.293 347.415 199.856L390.26 196.848Z" fill="#2F2E41"/>
<path d="M379.138 108.983C376.373 111.92 371.238 110.343 370.878 106.33C370.85 106.019 370.852 105.705 370.884 105.394C371.07 103.617 372.1 102.003 371.853 100.127C371.797 99.6596 371.623 99.2146 371.346 98.8336C369.143 95.8914 363.971 100.15 361.891 97.4861C360.616 95.8529 362.115 93.2815 361.137 91.4561C359.845 89.0469 356.02 90.2353 353.621 88.9159C350.953 87.448 351.112 83.3646 352.869 80.8808C355.012 77.8518 358.768 76.2355 362.478 76.0025C366.188 75.7696 369.872 76.7696 373.335 78.1156C377.271 79.6449 381.173 81.7584 383.594 85.2089C386.539 89.4051 386.823 95.0465 385.35 99.9531C384.454 102.938 381.396 106.584 379.138 108.983Z" fill="#2F2E41"/>
<path d="M506.887 312.703H61.3649C61.1747 312.702 60.9925 312.626 60.8582 312.492C60.7239 312.358 60.6484 312.176 60.6484 311.986C60.6484 311.796 60.7239 311.614 60.8582 311.48C60.9925 311.346 61.1747 311.27 61.3649 311.27H506.887C507.077 311.27 507.26 311.346 507.394 311.48C507.528 311.614 507.604 311.796 507.604 311.986C507.604 312.176 507.528 312.358 507.394 312.492C507.26 312.626 507.077 312.702 506.887 312.703Z" fill="#3F3D56"/>
<path d="M283.019 247.026H204.571C203.538 247.031 202.545 246.628 201.809 245.904C201.074 245.18 200.656 244.195 200.648 243.165V68.552C200.656 67.5217 201.074 66.5367 201.809 65.813C202.545 65.0892 203.538 64.6859 204.571 64.6915H283.019C284.052 64.6859 285.046 65.0892 285.781 65.813C286.516 66.5367 286.934 67.5217 286.942 68.552V243.165C286.934 244.195 286.516 245.18 285.781 245.904C285.046 246.628 284.052 247.031 283.019 247.026Z" fill="white"/>
<path d="M286.942 121.188H200.648V122.391H286.942V121.188Z" fill="#AEAEAE"/>
<path d="M287.242 189.855H200.949V191.059H287.242V189.855Z" fill="#AEAEAE"/>
<path d="M229.008 64.6914H227.801V247.627H229.008V64.6914Z" fill="#AEAEAE"/>
<path d="M259.18 64.6914H257.973V247.627H259.18V64.6914Z" fill="#AEAEAE"/>
</g>
<defs>
<clipPath id="clip0_2901_693">
<rect width="525" height="313" fill="white"/>
</clipPath>
</defs>
</svg>
