<svg width="422" height="282" viewBox="0 0 422 282" fill="none" xmlns="http://www.w3.org/2000/svg">
<g clip-path="url(#clip0_2901_743)">
<path d="M270.628 162.175C256.166 136.613 228.579 116.985 199.377 118.876C220.917 142.413 233.478 172.847 234.837 204.793C235.316 217.116 234.573 230.871 242.715 240.098C247.782 245.839 255.526 248.62 263.14 249.203C270.755 249.786 278.368 248.404 285.881 247.027L287.703 247.59C288.397 218.194 285.09 187.737 270.628 162.175Z" fill="#F0F0F0"/>
<path d="M199.335 119.491C220.93 129.937 239.344 147.382 250.647 168.658C253.091 173.258 255.172 178.138 256.08 183.297C256.988 188.459 256.353 193.373 254.599 198.276C252.994 202.758 250.837 207.156 250.345 211.951C249.827 217.006 251.678 221.733 255.01 225.484C259.087 230.074 264.562 232.918 270.012 235.512C276.064 238.393 282.395 241.288 286.681 246.665C287.2 247.316 288.176 246.468 287.657 245.818C280.2 236.464 267.435 234.706 258.583 227.171C254.453 223.656 251.352 218.868 251.548 213.258C251.719 208.352 253.94 203.815 255.603 199.291C257.349 194.54 258.22 189.764 257.594 184.699C256.953 179.519 255.058 174.547 252.742 169.904C247.519 159.435 240.37 149.823 232.182 141.514C222.771 131.963 211.803 124.1 199.753 118.265C199.007 117.904 198.594 119.133 199.335 119.491Z" fill="white"/>
<path d="M247.333 161.548C250.644 159.116 252.986 155.58 253.942 151.573C254.898 147.565 254.405 143.347 252.551 139.671C252.173 138.929 251.007 139.484 251.385 140.227C253.118 143.647 253.577 147.576 252.679 151.306C251.782 155.036 249.587 158.32 246.491 160.567C245.818 161.056 246.665 162.034 247.333 161.548Z" fill="white"/>
<path d="M255.711 196.11C247.415 194.892 239.881 190.577 234.611 184.026C234.09 183.376 233.114 184.224 233.635 184.873C239.132 191.68 246.981 196.154 255.616 197.403C256.44 197.521 256.53 196.228 255.711 196.11V196.11Z" fill="white"/>
<path d="M222.132 133.555C221.046 134.764 219.678 135.683 218.151 136.23C216.625 136.777 214.986 136.934 213.384 136.688C212.563 136.559 212.474 137.853 213.29 137.981C215.061 138.244 216.87 138.068 218.558 137.468C220.247 136.867 221.763 135.861 222.974 134.536C223.099 134.42 223.175 134.262 223.188 134.092C223.2 133.922 223.148 133.754 223.041 133.622C222.929 133.492 222.77 133.413 222.6 133.4C222.43 133.388 222.261 133.443 222.132 133.555Z" fill="white"/>
<path d="M141.273 199.515C141.783 199.61 142.294 199.705 142.809 199.81C149.666 201.124 156.406 202.996 162.961 205.407C163.471 205.585 163.985 205.774 164.488 205.966C180.22 211.944 194.711 220.805 207.223 232.098C212.198 236.596 216.825 241.468 221.065 246.672C226.919 253.859 232.697 262.119 240.347 266.805C241.14 267.303 241.963 267.751 242.81 268.146L286.88 249.779C286.959 249.687 287.043 249.605 287.123 249.512L288.916 248.86C288.716 248.576 288.503 248.286 288.303 248.003C288.187 247.837 288.062 247.676 287.947 247.511C287.867 247.403 287.786 247.294 287.72 247.191C287.694 247.155 287.667 247.119 287.644 247.093C287.578 246.99 287.506 246.902 287.444 246.809C286.256 245.185 285.053 243.567 283.838 241.954C283.833 241.944 283.833 241.944 283.819 241.938C274.525 229.672 264.13 218.078 252.314 208.438C251.958 208.149 251.599 207.848 251.223 207.567C245.873 203.251 240.181 199.382 234.204 195.999C230.925 194.157 227.555 192.482 224.107 190.982C215.192 187.124 205.729 184.699 196.064 183.796C176.796 181.998 157.171 186.412 142.393 198.574C142.015 198.886 141.647 199.193 141.273 199.515Z" fill="#F0F0F0"/>
<path d="M141.606 200.035C165.107 195.311 190.263 198.101 212.036 208.251C216.744 210.445 221.329 213.083 225.145 216.653C228.963 220.225 231.401 224.532 232.938 229.508C234.343 234.057 235.255 238.874 237.736 243.001C240.351 247.35 244.661 250.005 249.57 250.984C255.575 252.182 261.651 251.141 267.557 249.915C274.115 248.554 280.905 247.036 287.548 248.736C288.353 248.942 288.624 247.675 287.821 247.469C276.262 244.512 265.016 250.83 253.434 250.169C248.029 249.861 242.684 247.914 239.479 243.316C236.676 239.296 235.731 234.33 234.348 229.711C232.896 224.862 230.729 220.521 227.195 216.857C223.579 213.108 219.086 210.284 214.455 207.979C204.012 202.779 192.545 199.429 181.028 197.748C167.79 195.816 154.322 196.172 141.204 198.803C140.392 198.966 140.799 200.197 141.606 200.035V200.035Z" fill="white"/>
<path d="M205.129 204.577C206.314 200.632 206.066 196.392 204.428 192.614C202.79 188.837 199.869 185.767 196.186 183.953C195.44 183.589 194.841 184.737 195.588 185.102C199.021 186.784 201.742 189.644 203.26 193.165C204.778 196.686 204.994 200.637 203.868 204.303C203.624 205.101 204.886 205.369 205.129 204.577Z" fill="white"/>
<path d="M232.525 227.107C225.172 231.153 216.571 232.265 208.438 230.223C207.632 230.02 207.361 231.287 208.165 231.489C216.633 233.599 225.581 232.423 233.224 228.196C233.952 227.793 233.249 226.706 232.525 227.107Z" fill="white"/>
<path d="M168.232 197.475C168.09 199.098 167.549 200.659 166.658 202.02C165.766 203.38 164.553 204.497 163.126 205.269C162.393 205.663 163.097 206.75 163.825 206.358C165.397 205.497 166.736 204.263 167.724 202.762C168.712 201.261 169.32 199.54 169.493 197.749C169.523 197.581 169.489 197.409 169.398 197.266C169.306 197.123 169.163 197.02 168.999 196.979C168.832 196.943 168.657 196.976 168.514 197.069C168.37 197.162 168.269 197.308 168.232 197.475Z" fill="white"/>
<path d="M225.222 229.816C231.394 199.831 239.109 189.834 239.109 189.834L242.056 187.538L245.6 184.771L245.583 184.416L246.424 184.128L246.621 183.974L246.945 183.725L246.997 183.781L247.107 183.895L263.145 178.417L283.493 171.473L292.915 159.167C294.449 157.163 296.425 155.543 298.687 154.435C300.949 153.326 303.435 152.759 305.952 152.778L336.043 153.002C340.112 153.032 344.022 154.59 347.005 157.371L366.784 175.804L397.603 190.594L397.655 190.541L397.978 190.774L402.74 193.062L402.543 194.089L405.491 196.226C405.491 196.226 413.206 205.528 419.377 233.429C420.947 240.528 421.72 255.757 421.999 274.522C422.013 275.472 421.839 276.414 421.487 277.295C421.136 278.177 420.613 278.979 419.95 279.655C419.287 280.331 418.497 280.869 417.625 281.235C416.754 281.602 415.818 281.791 414.873 281.791H250.264V281.791H229.719C228.775 281.791 227.84 281.602 226.969 281.236C226.098 280.869 225.308 280.333 224.645 279.657C223.982 278.982 223.459 278.181 223.107 277.3C222.755 276.42 222.58 275.478 222.593 274.53C222.865 254.11 223.638 237.515 225.222 229.816Z" fill="#3F3D56"/>
<path d="M204.099 26.1484C210.503 26.1484 216.645 28.7047 221.174 33.2549C225.702 37.8051 228.246 43.9764 228.246 50.4114C228.246 56.8463 225.702 63.0177 221.174 67.5679C216.645 72.1181 210.503 74.6743 204.099 74.6743H24.1439C17.7397 74.6743 11.5977 72.1181 7.06921 67.5679C2.54073 63.0177 -0.00335693 56.8463 -0.00335693 50.4114C-0.00335693 43.9764 2.54073 37.8051 7.06921 33.2549C11.5977 28.7047 17.7397 26.1484 24.1439 26.1484H204.099Z" fill="#E5E5E5"/>
<path d="M204.101 31.0586C209.209 31.0586 214.108 33.0975 217.72 36.7268C221.332 40.3562 223.361 45.2786 223.361 50.4112C223.361 55.5438 221.332 60.4662 217.72 64.0955C214.108 67.7248 209.209 69.7638 204.101 69.7638H24.1461C19.0379 69.7638 14.139 67.7248 10.527 64.0955C6.91499 60.4662 4.88573 55.5438 4.88573 50.4112C4.88573 45.2786 6.91499 40.3562 10.527 36.7268C14.139 33.0975 19.0379 31.0586 24.1461 31.0586H204.101Z" fill="white"/>
<path d="M316.269 141.418C294.496 141.418 276.846 123.683 276.846 101.807C276.846 79.9299 294.496 62.1953 316.269 62.1953C338.041 62.1953 355.691 79.9299 355.691 101.807C355.691 123.683 338.041 141.418 316.269 141.418Z" fill="#9E616A"/>
<path d="M326.359 139.481C326.528 139.108 326.696 138.735 326.863 138.359C326.799 138.361 326.735 138.371 326.67 138.372L326.359 139.481Z" fill="#2F2E41"/>
<path d="M356.792 63.9971C354.798 62.399 352.468 60.9285 349.918 61.0111C347.369 61.0937 344.784 63.4071 345.312 65.9144C340.63 57.584 333.177 51.177 324.261 47.818C315.346 44.459 305.538 44.3625 296.559 47.5456C290.223 49.7917 284.01 54.2851 282.554 60.8757C282.181 62.5675 282.1 64.4225 281.049 65.7963C279.724 67.5284 277.187 67.9202 275.099 67.3109C275.078 67.3048 275.057 67.2986 275.037 67.2924C274.684 67.1713 274.303 67.1595 273.943 67.2582C273.584 67.357 273.262 67.5619 273.02 67.8465C272.777 68.1311 272.625 68.4822 272.584 68.8544C272.542 69.2266 272.612 69.6028 272.786 69.9344L274.579 73.2938C272.319 73.8 269.971 73.7498 267.734 73.1476C267.363 73.0497 266.97 73.0697 266.61 73.2048C266.251 73.3399 265.941 73.5836 265.725 73.9024C265.508 74.2211 265.395 74.5994 265.401 74.9852C265.407 75.3711 265.532 75.7457 265.758 76.0576C271.669 84.2124 281.545 89.4783 291.623 89.4164C298.786 89.3725 306.023 86.892 312.994 88.5471C315.691 89.1874 318.211 90.4262 320.369 92.1727C322.527 93.9192 324.269 96.129 325.466 98.6401C326.664 101.151 327.286 103.9 327.289 106.684C327.291 109.468 326.673 112.218 325.479 114.731C327.621 112.377 331.761 112.935 333.952 115.242C336.142 117.55 336.709 120.994 336.488 124.176C336.151 129.041 334.254 133.626 332.253 138.089C349.023 137.558 364.885 125.738 370.224 109.751C375.585 93.6971 369.966 74.5573 356.792 63.9971Z" fill="#2F2E41"/>
<path opacity="0.2" d="M383.199 220.762L372.142 281.21L365.508 281.79L383.199 220.762Z" fill="black"/>
<path opacity="0.2" d="M261.398 216.203L272.455 281.166L279.09 281.79L261.398 216.203Z" fill="black"/>
<path d="M347.36 43.6541C349.48 44.5436 351.692 43.5687 352.62 41.3363C353.562 39.0697 352.682 36.7688 350.528 35.8651C348.374 34.9612 346.201 35.9384 345.244 38.2416C344.301 40.5102 345.171 42.7358 347.36 43.6541ZM351.421 31.4037L353.107 32.111C353.528 32.2856 353.999 32.295 354.426 32.1374C354.854 31.9797 355.207 31.6666 355.416 31.2598L355.5 31.0959C357.313 27.8092 357.521 23.8146 356.114 19.2294C354.81 15.1163 354.268 12.2235 355.357 9.60285C356.617 6.57284 359.305 5.62369 362.734 6.99865C364.064 7.55662 364.487 7.54772 365.534 8.59089C365.762 8.82056 366.033 9.00182 366.332 9.12385C366.631 9.24589 366.951 9.30619 367.273 9.30118C367.585 9.29749 367.893 9.23075 368.179 9.10492C368.464 8.97909 368.722 8.79676 368.936 8.5688C369.348 8.12949 369.579 7.54938 369.582 6.94561C369.585 6.34185 369.36 5.75942 368.952 5.31595C367.193 3.46572 365.071 2.00195 362.721 1.01701C355.354 -2.07401 351.645 2.48943 349.948 6.57329C348.288 10.5678 349.222 14.274 350.722 19.0739C351.979 23.0623 351.906 26.0177 350.478 28.9562C350.375 29.1784 350.317 29.4192 350.309 29.6642C350.301 29.9092 350.342 30.1533 350.43 30.3819C350.518 30.6105 350.652 30.8188 350.822 30.9944C350.992 31.17 351.196 31.3092 351.421 31.4037L351.421 31.4037Z" fill="#67CB19"/>
<path d="M164.351 61.9831H200.155C200.269 61.9839 200.382 61.962 200.487 61.9188C200.592 61.8756 200.688 61.8119 200.769 61.7314C200.849 61.6508 200.914 61.5551 200.957 61.4495C201.001 61.344 201.023 61.2308 201.023 61.1166C201.023 61.0023 201.001 60.8891 200.957 60.7836C200.914 60.6781 200.849 60.5823 200.769 60.5017C200.688 60.4212 200.592 60.3575 200.487 60.3143C200.382 60.2711 200.269 60.2492 200.155 60.25H164.351C164.123 60.2516 163.905 60.3436 163.745 60.5059C163.584 60.6682 163.494 60.8877 163.494 61.1166C163.494 61.3454 163.584 61.5649 163.745 61.7272C163.905 61.8896 164.123 61.9815 164.351 61.9831Z" fill="#67CB19"/>
<path d="M118.931 62.2722H154.735C154.849 62.2729 154.962 62.2511 155.067 62.2079C155.172 62.1647 155.268 62.101 155.349 62.0204C155.43 61.9399 155.494 61.8441 155.537 61.7386C155.581 61.6331 155.604 61.5199 155.604 61.4056C155.604 61.2913 155.581 61.1782 155.537 61.0726C155.494 60.9671 155.43 60.8713 155.349 60.7908C155.268 60.7102 155.172 60.6465 155.067 60.6033C154.962 60.5601 154.849 60.5383 154.735 60.5391H118.931C118.817 60.5383 118.704 60.5601 118.599 60.6033C118.494 60.6465 118.398 60.7102 118.317 60.7908C118.237 60.8713 118.172 60.9671 118.129 61.0726C118.085 61.1782 118.063 61.2913 118.063 61.4056C118.063 61.5199 118.085 61.6331 118.129 61.7386C118.172 61.8441 118.237 61.9399 118.317 62.0204C118.398 62.101 118.494 62.1647 118.599 62.2079C118.704 62.2511 118.817 62.2729 118.931 62.2722Z" fill="#67CB19"/>
<path d="M73.511 62.5612H109.315C109.543 62.5597 109.761 62.4677 109.921 62.3053C110.082 62.143 110.172 61.9235 110.172 61.6947C110.172 61.4659 110.082 61.2464 109.921 61.084C109.761 60.9217 109.543 60.8297 109.315 60.8281H73.511C73.3973 60.8274 73.2845 60.8492 73.1792 60.8924C73.0739 60.9356 72.9781 60.9993 72.8974 61.0798C72.8167 61.1604 72.7526 61.2562 72.7089 61.3617C72.6652 61.4672 72.6427 61.5804 72.6427 61.6947C72.6427 61.809 72.6652 61.9221 72.7089 62.0277C72.7526 62.1332 72.8167 62.229 72.8974 62.3095C72.9781 62.39 73.0739 62.4538 73.1792 62.4969C73.2845 62.5401 73.3973 62.562 73.511 62.5612H73.511Z" fill="#67CB19"/>
<path d="M28.0949 62.8503H63.8993C64.127 62.8487 64.3448 62.7567 64.5053 62.5944C64.6658 62.432 64.7559 62.2125 64.7559 61.9837C64.7559 61.7549 64.6658 61.5354 64.5053 61.3731C64.3448 61.2107 64.127 61.1187 63.8993 61.1172H28.0949C27.8672 61.1187 27.6494 61.2107 27.4889 61.3731C27.3284 61.5354 27.2384 61.7549 27.2384 61.9837C27.2384 62.2125 27.3284 62.432 27.4889 62.5944C27.6494 62.7567 27.8672 62.8487 28.0949 62.8503Z" fill="#67CB19"/>
<path d="M182.336 54.0095C178.661 54.0095 175.681 51.0159 175.681 47.3231C175.681 43.6303 178.661 40.6367 182.336 40.6367C186.011 40.6367 188.99 43.6303 188.99 47.3231C188.99 51.0159 186.011 54.0095 182.336 54.0095Z" fill="#67CB19"/>
<path d="M136.642 54.0095C132.967 54.0095 129.988 51.0159 129.988 47.3231C129.988 43.6303 132.967 40.6367 136.642 40.6367C140.318 40.6367 143.297 43.6303 143.297 47.3231C143.297 51.0159 140.318 54.0095 136.642 54.0095Z" fill="#67CB19"/>
<path d="M90.947 54.0095C87.2719 54.0095 84.2925 51.0159 84.2925 47.3231C84.2925 43.6303 87.2719 40.6367 90.947 40.6367C94.6222 40.6367 97.6016 43.6303 97.6016 47.3231C97.6016 51.0159 94.6222 54.0095 90.947 54.0095Z" fill="#67CB19"/>
<path d="M45.2517 54.0095C41.5766 54.0095 38.5972 51.0159 38.5972 47.3231C38.5972 43.6303 41.5766 40.6367 45.2517 40.6367C48.9269 40.6367 51.9062 43.6303 51.9062 47.3231C51.9062 51.0159 48.9269 54.0095 45.2517 54.0095Z" fill="#67CB19"/>
</g>
<defs>
<clipPath id="clip0_2901_743">
<rect width="422" height="281.792" fill="white" transform="matrix(-1 0 0 1 422 0)"/>
</clipPath>
</defs>
</svg>
