<svg width="312" height="364" viewBox="0 0 312 364" fill="none" xmlns="http://www.w3.org/2000/svg">
<g clip-path="url(#clip0_2901_798)">
<path d="M301.916 134.079H9.81686C7.21419 134.076 4.71897 133.041 2.8786 131.202C1.03824 129.362 0.00300525 126.868 0 124.266V9.81328C0.00300525 7.21156 1.03824 4.71725 2.8786 2.87756C4.71897 1.03786 7.21419 0.00300415 9.81686 0H301.916C304.519 0.00300415 307.014 1.03786 308.854 2.87756C310.695 4.71725 311.73 7.21156 311.733 9.81328V124.266C311.73 126.868 310.695 129.362 308.854 131.202C307.014 133.041 304.519 134.076 301.916 134.079Z" fill="#F2F2F2"/>
<path d="M233.795 127.822H56.1861C42.951 127.807 30.2622 122.545 20.9035 113.19C11.5448 103.834 6.28056 91.1502 6.26562 77.9199V56.1683C6.28054 42.9379 11.5448 30.2537 20.9035 20.8984C30.2621 11.5431 42.9509 6.28063 56.1861 6.26562H255.554C268.79 6.28063 281.478 11.5431 290.837 20.8984C300.196 30.2537 305.46 42.9379 305.475 56.1683C305.453 75.1655 297.894 93.3785 284.457 106.812C271.019 120.245 252.799 127.801 233.795 127.822Z" fill="white"/>
<path d="M187.976 39.0265H70.5747C69.9033 39.0265 69.2593 38.7599 68.7845 38.2853C68.3097 37.8106 68.043 37.1669 68.043 36.4957C68.043 35.8245 68.3097 35.1807 68.7845 34.7061C69.2593 34.2315 69.9033 33.9648 70.5747 33.9648H187.976C188.648 33.9648 189.292 34.2315 189.767 34.7061C190.241 35.1807 190.508 35.8245 190.508 36.4957C190.508 37.1669 190.241 37.8106 189.767 38.2853C189.292 38.7599 188.648 39.0265 187.976 39.0265Z" fill="#E6E6E6"/>
<path d="M247.407 66.0304H70.5747C69.9033 66.0304 69.2593 65.7638 68.7845 65.2892C68.3097 64.8146 68.043 64.1708 68.043 63.4996C68.043 62.8284 68.3097 62.1846 68.7845 61.71C69.2593 61.2354 69.9033 60.9688 70.5747 60.9688H247.407C248.078 60.9688 248.722 61.2354 249.197 61.71C249.672 62.1846 249.939 62.8284 249.939 63.4996C249.939 64.1708 249.672 64.8146 249.197 65.2892C248.722 65.7638 248.078 66.0304 247.407 66.0304Z" fill="#E6E6E6"/>
<path d="M247.407 93.0343H70.5747C69.9033 93.0343 69.2593 92.7677 68.7845 92.2931C68.3097 91.8184 68.043 91.1747 68.043 90.5035C68.043 89.8323 68.3097 89.1885 68.7845 88.7139C69.2593 88.2393 69.9033 87.9727 70.5747 87.9727H247.407C248.078 87.9727 248.722 88.2393 249.197 88.7139C249.672 89.1885 249.939 89.8323 249.939 90.5035C249.939 91.1747 249.672 91.8184 249.197 92.2931C248.722 92.7677 248.078 93.0343 247.407 93.0343Z" fill="#E6E6E6"/>
<path d="M247.407 93.0343H70.5747C69.9033 93.0343 69.2593 92.7677 68.7845 92.2931C68.3097 91.8184 68.043 91.1747 68.043 90.5035C68.043 89.8323 68.3097 89.1885 68.7845 88.7139C69.2593 88.2393 69.9033 87.9727 70.5747 87.9727H247.407C248.078 87.9727 248.722 88.2393 249.197 88.7139C249.672 89.1885 249.939 89.8323 249.939 90.5035C249.939 91.1747 249.672 91.8184 249.197 92.2931C248.722 92.7677 248.078 93.0343 247.407 93.0343Z" fill="#E6E6E6"/>
<path d="M175.587 69.13C175.615 69.8924 175.81 70.6393 176.158 71.3181C176.506 71.997 176.999 72.5913 177.602 73.0591C178.205 73.527 178.903 73.857 179.647 74.0261C180.391 74.1951 181.163 74.1989 181.909 74.0373L191.564 89.871L195.673 81.1542L185.875 67.4547C185.52 66.2202 184.725 65.1587 183.64 64.4712C182.554 63.7837 181.255 63.518 179.986 63.7245C178.718 63.931 177.57 64.5954 176.759 65.5916C175.948 66.5879 175.531 67.8469 175.587 69.13H175.587Z" fill="#FFB6B6"/>
<path d="M248.041 114.509L214.767 96.4671L204.272 86.624C204.272 86.624 199.71 85.4029 201.389 83.9199C203.068 82.4369 198.283 81.0067 198.283 81.0067L192.648 75.7227L184.643 81.3853L186.96 84.9756C186.96 84.9756 186.8 90.9193 190.057 89.7758C193.315 88.6323 192.501 93.5618 192.501 93.5618L211.942 123.688L248.041 114.509Z" fill="#3F3D56"/>
<path d="M149.823 97.5083C167.772 97.5083 182.323 82.9627 182.323 65.0198C182.323 47.0769 167.772 32.5312 149.823 32.5312C131.873 32.5312 117.322 47.0769 117.322 65.0198C117.322 82.9627 131.873 97.5083 149.823 97.5083Z" fill="#67CB19"/>
<path d="M248.149 351.146H241.392L238.176 325.09H248.149V351.146Z" fill="#FFB6B6"/>
<path d="M251.71 362.85H246.864L245.999 358.276L243.784 362.85H230.93C230.314 362.85 229.714 362.653 229.218 362.288C228.722 361.923 228.355 361.409 228.172 360.821C227.989 360.233 227.998 359.602 228.199 359.02C228.4 358.438 228.782 357.935 229.289 357.585L239.553 350.499V345.875L250.349 346.519L251.71 362.85Z" fill="#2F2E41"/>
<path d="M194.099 351.146H187.341L184.125 325.09H194.099V351.146Z" fill="#FFB6B6"/>
<path d="M197.665 362.85H192.819L191.954 358.276L189.739 362.85H176.886C176.269 362.85 175.669 362.653 175.173 362.288C174.677 361.923 174.31 361.409 174.127 360.821C173.944 360.233 173.953 359.602 174.154 359.02C174.355 358.438 174.737 357.935 175.244 357.585L185.508 350.499V345.875L196.304 346.519L197.665 362.85Z" fill="#2F2E41"/>
<path d="M240.973 154.09H206.865V192.906H240.973V154.09Z" fill="#FFB6B6"/>
<path d="M207.653 173.234L201.881 180.053L191.911 201.035L166.789 260.786L161.477 273.423L165.767 295.761C165.767 295.761 166.462 311.499 166.462 314.075C166.462 319.32 170.85 322.227 170.85 322.227L174.07 338.991L205.292 337.68C205.292 337.68 204.203 319.201 197.663 314.54C191.124 309.879 188.118 285.586 188.118 285.586L184.565 274.808L219.198 233.77L219.421 248.115L219.529 255.058C219.529 255.058 214.458 300.218 220.37 308.983C226.282 317.747 220.49 316.716 220.49 316.716L220.772 334.795L257.766 335.057L249.604 283.007C249.604 283.007 245.46 279.736 247.677 276.448C249.895 273.16 245.528 269.133 245.528 269.133L247.487 228.5C247.487 228.5 245.319 221.481 247.869 220.569C250.419 219.657 248.204 213.621 248.204 213.621L248.583 205.756L240.974 181.365L207.653 173.234Z" fill="#2F2E41"/>
<path d="M241.502 154.09L245.175 143.075L247.799 139.403L248.848 128.912C248.848 100.586 242.528 105.303 242.528 105.303L238.878 95.3409L222.087 94.8164L211.33 105.045L202.409 108.192L198.916 126.337L205.295 145.697L206.87 156.188C203.867 161.73 204.121 159.109 206.607 163.27L236.255 171.4C246.749 175.072 246.749 165.63 244.645 163.27C242.541 160.909 241.502 154.09 241.502 154.09Z" fill="#3F3D56"/>
<path d="M228.313 91.2933C236.91 91.2933 243.879 84.3265 243.879 75.7326C243.879 67.1386 236.91 60.1719 228.313 60.1719C219.715 60.1719 212.746 67.1386 212.746 75.7326C212.746 84.3265 219.715 91.2933 228.313 91.2933Z" fill="#FFB6B6"/>
<path d="M249.091 96.5042C249.238 96.7516 249.327 97.0289 249.351 97.3154C249.376 97.6019 249.336 97.8903 249.233 98.159C249.131 98.4277 248.969 98.6699 248.76 98.8674C248.551 99.065 248.3 99.2129 248.026 99.3001C245.938 99.9925 244.652 102.012 243.151 103.628C241.656 105.238 239.247 106.576 237.337 105.479C235.432 104.388 235.301 101.603 233.706 100.092C232.153 98.6234 229.571 98.8018 227.745 99.919L227.69 99.9526C227.375 100.158 227.007 100.267 226.63 100.265C226.254 100.263 225.886 100.151 225.573 99.943C225.26 99.7347 225.014 99.4392 224.867 99.093C224.72 98.7468 224.678 98.365 224.746 97.995C225.385 94.5935 226.025 91.1923 226.664 87.7915C224.984 91.836 222.546 95.5217 219.48 98.6496C218.636 99.6238 217.566 100.377 216.363 100.842C215.272 101.188 214.212 100.061 213.152 100.265C215.786 97.9625 224.644 83.2017 223.059 73.335C221.196 73.5448 219.333 73.7547 217.471 73.9645C217.269 73.0832 216.838 72.2708 216.222 71.6093C216.297 72.467 216.188 73.3308 215.902 74.1428C215.125 74.232 214.343 74.316 213.567 74.4051C212.486 74.5258 211.31 74.6307 210.381 74.0642C208.833 73.12 208.786 70.8854 209.227 69.1229C210.518 63.9981 214.432 59.7126 219.223 57.4675C224.014 55.2277 225.431 60.2161 230.479 58.6216C240.449 55.4743 248.089 60.8561 250.781 70.8435C253.042 79.2205 251.4 88.1115 249.091 96.5042Z" fill="#2F2E41"/>
<path d="M292.185 363.19H273.125L273.043 363.041C272.799 362.6 272.564 362.131 272.344 361.65C270.38 357.449 269.551 352.643 268.818 348.403L268.267 345.207C268.2 344.82 268.251 344.422 268.411 344.064C268.572 343.705 268.837 343.403 269.17 343.196C269.504 342.988 269.892 342.885 270.285 342.9C270.677 342.914 271.057 343.045 271.374 343.277C274.271 345.384 277.169 347.489 280.068 349.592C281.166 350.39 282.419 351.314 283.62 352.313C283.736 351.75 283.857 351.186 283.978 350.63C284.061 350.246 284.258 349.896 284.542 349.624C284.826 349.352 285.184 349.171 285.572 349.104C285.959 349.037 286.358 349.087 286.716 349.248C287.075 349.409 287.378 349.673 287.585 350.007L289.815 353.588C291.442 356.204 292.878 358.781 292.585 361.561C292.586 361.595 292.584 361.629 292.577 361.662C292.519 362.119 292.41 362.568 292.254 363L292.185 363.19Z" fill="#F0F0F0"/>
<path d="M311.321 363.602L130.194 363.778C130.013 363.777 129.84 363.705 129.713 363.577C129.585 363.449 129.514 363.275 129.514 363.094C129.514 362.914 129.585 362.74 129.713 362.612C129.84 362.484 130.013 362.412 130.194 362.411L311.321 362.234C311.502 362.235 311.675 362.308 311.802 362.436C311.93 362.564 312.001 362.737 312.001 362.918C312.001 363.099 311.93 363.272 311.802 363.4C311.675 363.528 311.502 363.601 311.321 363.602Z" fill="#CACACA"/>
<path d="M146.869 108.748L126.946 91.9293C126.265 91.3531 125.841 90.5304 125.766 89.6417C125.691 88.753 125.972 87.8708 126.547 87.1888L130.213 82.8483C130.79 82.1675 131.613 81.7431 132.502 81.6682C133.391 81.5932 134.273 81.8739 134.956 82.4486L154.879 99.2675C155.56 99.8437 155.984 100.666 156.059 101.555C156.134 102.444 155.853 103.326 155.279 104.008L151.612 108.348C151.035 109.029 150.212 109.454 149.323 109.529C148.434 109.604 147.552 109.323 146.869 108.748Z" fill="#3F3D56"/>
<path d="M127.992 87.5375C127.682 87.9051 127.53 88.3804 127.571 88.8593C127.611 89.3382 127.84 89.7816 128.207 90.0921L148.13 106.911C148.498 107.221 148.973 107.372 149.452 107.332C149.932 107.291 150.375 107.062 150.686 106.696L154.353 102.355C154.662 101.988 154.814 101.512 154.773 101.033C154.733 100.554 154.504 100.111 154.137 99.8005L134.214 82.9816C133.846 82.6719 133.371 82.5207 132.892 82.5611C132.413 82.6015 131.969 82.8302 131.658 83.197L127.992 87.5375Z" fill="white"/>
<path d="M139.688 94.0763C139.618 94.173 139.528 94.2523 139.423 94.3078C139.317 94.3634 139.201 94.3938 139.082 94.3965L135.952 94.4683C135.851 94.4706 135.751 94.4531 135.657 94.4168C135.563 94.3804 135.478 94.326 135.405 94.2565C135.332 94.1871 135.274 94.104 135.233 94.012C135.193 93.92 135.17 93.8209 135.168 93.7204C135.166 93.6198 135.183 93.5198 135.22 93.4261C135.256 93.3323 135.311 93.2466 135.38 93.1739C135.45 93.1012 135.533 93.0429 135.625 93.0023C135.717 92.9617 135.816 92.9396 135.916 92.9373L137.964 92.8902L135.947 87.5705C135.876 87.3807 135.883 87.1704 135.966 86.9856C136.05 86.8008 136.203 86.6567 136.393 86.5849C136.583 86.513 136.793 86.5193 136.978 86.6023C137.163 86.6853 137.308 86.8384 137.38 87.0278L139.781 93.3596C139.824 93.4741 139.839 93.5974 139.825 93.719C139.811 93.8407 139.768 93.9572 139.7 94.0588L139.688 94.0763Z" fill="#67CB19"/>
<path d="M140.086 95.4123C140.841 95.5231 141.562 95.7981 142.199 96.2179C142.837 96.6377 143.374 97.192 143.774 97.8418C144.173 98.4917 144.426 99.2212 144.513 99.9791C144.6 100.737 144.52 101.505 144.278 102.228L158.974 113.544L149.859 116.68L137.301 105.453C136.112 104.967 135.143 104.061 134.577 102.908C134.011 101.755 133.889 100.434 134.232 99.1964C134.575 97.9587 135.361 96.8899 136.439 96.1925C137.518 95.495 138.816 95.2175 140.086 95.4123L140.086 95.4123Z" fill="#FFB6B6"/>
<path d="M216.599 101.008L178.974 124.133C178.974 124.133 163.804 118.522 166.768 115.925C169.733 113.327 160.295 111.571 160.295 111.571L149.869 104.559L143.818 111.588C143.818 111.588 144.921 123.005 146.796 121.028C148.672 119.051 151.476 124.451 151.476 124.451C151.476 124.451 152.304 130.481 157.644 128.964C162.984 127.447 177.311 143.352 177.311 143.352L223.617 126.088L216.599 101.008Z" fill="#3F3D56"/>
<path d="M148.679 78.0527C148.243 78.0527 147.813 77.9512 147.423 77.7561C147.032 77.5611 146.693 77.2779 146.431 76.929L139.54 67.7441C139.319 67.4491 139.158 67.1133 139.066 66.756C138.975 66.3987 138.955 66.0269 139.007 65.6617C139.059 65.2966 139.183 64.9453 139.371 64.628C139.559 64.3106 139.807 64.0334 140.102 63.8121C140.699 63.3651 141.448 63.1733 142.186 63.2786C142.551 63.3308 142.902 63.4544 143.22 63.6423C143.537 63.8302 143.815 64.0788 144.036 64.3739L148.544 70.3824L160.123 53.0203C160.537 52.4005 161.18 51.9702 161.91 51.8241C162.641 51.678 163.4 51.8281 164.02 52.2413C164.64 52.6545 165.07 53.297 165.217 54.0275C165.363 54.7579 165.213 55.5165 164.799 56.1363L151.017 76.8019C150.768 77.1757 150.432 77.4842 150.039 77.7017C149.646 77.9192 149.206 78.0393 148.757 78.0519C148.731 78.0523 148.705 78.0527 148.679 78.0527Z" fill="white"/>
</g>
<defs>
<clipPath id="clip0_2901_798">
<rect width="312" height="363.779" fill="white"/>
</clipPath>
</defs>
</svg>
