<svg width="478" height="255" viewBox="0 0 478 255" fill="none" xmlns="http://www.w3.org/2000/svg">
<g clip-path="url(#clip0_2901_915)">
<path d="M3.09396 254.341H269.225C270.045 254.34 270.831 254.013 271.411 253.43C271.991 252.848 272.317 252.059 272.318 251.236V3.10549C272.317 2.2822 271.991 1.49293 271.411 0.910767C270.831 0.328607 270.045 0.00107752 269.225 0H3.09396C2.27393 0.00107752 1.48776 0.328607 0.907898 0.910767C0.328064 1.49293 0.00183105 2.2822 0.000762939 3.10549V251.235C0.00167847 252.058 0.32785 252.848 0.907745 253.43C1.48761 254.012 2.2739 254.34 3.09396 254.341V254.341ZM269.225 1.23975C269.717 1.24083 270.188 1.43731 270.535 1.78621C270.883 2.13511 271.078 2.60801 271.079 3.10142V251.235C271.078 251.729 270.883 252.201 270.535 252.55C270.188 252.899 269.717 253.096 269.225 253.097H3.09396C2.60245 253.096 2.13135 252.899 1.78378 252.55C1.43625 252.202 1.24057 251.729 1.23965 251.235V3.10549C1.24072 2.61208 1.43643 2.13918 1.78394 1.79029C2.13147 1.44139 2.60251 1.2449 3.09396 1.24383L269.225 1.23975Z" fill="#E6E6E6"/>
<path d="M143.47 64.4766C144.027 64.4766 144.561 64.6987 144.955 65.0941C145.349 65.4895 145.57 66.0257 145.57 66.5849C145.57 67.1441 145.349 67.6803 144.955 68.0757C144.561 68.4711 144.027 68.6933 143.47 68.6933H28.2394C27.6824 68.6933 27.1483 68.4711 26.7544 68.0757C26.3606 67.6803 26.1394 67.1441 26.1394 66.5849C26.1394 66.0257 26.3606 65.4895 26.7544 65.0941C27.1483 64.6987 27.6824 64.4766 28.2394 64.4766H143.47Z" fill="#E6E6E6"/>
<path d="M143.47 77.1289C144.027 77.1289 144.561 77.351 144.955 77.7464C145.349 78.1418 145.57 78.6781 145.57 79.2373C145.57 79.7964 145.349 80.3327 144.955 80.7281C144.561 81.1234 144.027 81.3456 143.47 81.3456H84.6426C84.0856 81.3456 83.5515 81.1234 83.1577 80.7281C82.7638 80.3327 82.5426 79.7964 82.5426 79.2373C82.5426 78.6781 82.7638 78.1418 83.1577 77.7464C83.5515 77.351 84.0856 77.1289 84.6426 77.1289H143.47Z" fill="#E6E6E6"/>
<path d="M244.183 138.363C244.74 138.363 245.274 138.585 245.668 138.981C246.062 139.376 246.283 139.912 246.283 140.472C246.283 141.031 246.062 141.567 245.668 141.962C245.274 142.358 244.74 142.58 244.183 142.58H28.1245C27.5676 142.58 27.0334 142.358 26.6396 141.962C26.2458 141.567 26.0246 141.031 26.0246 140.472C26.0246 139.912 26.2458 139.376 26.6396 138.981C27.0334 138.585 27.5676 138.363 28.1245 138.363H244.183Z" fill="#E6E6E6"/>
<path d="M244.183 151.012C244.74 151.012 245.274 151.234 245.668 151.629C246.062 152.025 246.283 152.561 246.283 153.12C246.283 153.679 246.062 154.215 245.668 154.611C245.274 155.006 244.74 155.228 244.183 155.228H84.5278C83.9708 155.228 83.4367 155.006 83.0428 154.611C82.649 154.215 82.4278 153.679 82.4278 153.12C82.4278 152.561 82.649 152.025 83.0428 151.629C83.4367 151.234 83.9708 151.012 84.5278 151.012H244.183Z" fill="#E6E6E6"/>
<path d="M244.183 163.379C244.74 163.379 245.274 163.601 245.668 163.996C246.062 164.392 246.283 164.928 246.283 165.487C246.283 166.046 246.062 166.583 245.668 166.978C245.274 167.373 244.74 167.596 244.183 167.596H28.1245C27.5676 167.596 27.0334 167.373 26.6396 166.978C26.2458 166.583 26.0246 166.046 26.0246 165.487C26.0246 164.928 26.2458 164.392 26.6396 163.996C27.0334 163.601 27.5676 163.379 28.1245 163.379H244.183Z" fill="#E6E6E6"/>
<path d="M244.183 176.031C244.74 176.031 245.274 176.253 245.668 176.649C246.062 177.044 246.283 177.58 246.283 178.14C246.283 178.699 246.062 179.235 245.668 179.63C245.274 180.026 244.74 180.248 244.183 180.248H84.5278C83.9708 180.248 83.4367 180.026 83.0428 179.63C82.649 179.235 82.4278 178.699 82.4278 178.14C82.4278 177.58 82.649 177.044 83.0428 176.649C83.4367 176.253 83.9708 176.031 84.5278 176.031H244.183Z" fill="#E6E6E6"/>
<path d="M172.595 108.899H339.637C340.457 108.898 341.244 108.571 341.823 107.988C342.403 107.406 342.73 106.617 342.73 105.794V32.1953C342.73 31.372 342.403 30.5826 341.823 30.0004C341.244 29.4182 340.457 29.0908 339.637 29.0898H172.595C171.775 29.0908 170.988 29.4182 170.409 30.0004C169.829 30.5826 169.502 31.372 169.502 32.1953V105.794C169.502 106.617 169.829 107.406 170.409 107.988C170.988 108.571 171.775 108.898 172.595 108.899Z" fill="#67CB19"/>
<path d="M29.4624 225.252H92.7799C93.6 225.251 94.3862 224.923 94.9661 224.341C95.546 223.759 95.8721 222.969 95.873 222.146V211.961C95.8721 211.138 95.546 210.348 94.9661 209.766C94.3862 209.184 93.6 208.856 92.7799 208.855H29.4624C28.6423 208.856 27.8561 209.184 27.2762 209.766C26.6963 210.348 26.3701 211.138 26.3692 211.961V222.146C26.3701 222.969 26.6963 223.759 27.2762 224.341C27.8561 224.923 28.6423 225.251 29.4624 225.252Z" fill="#67CB19"/>
<path d="M404.685 124.564C407.414 122.519 408.215 118.697 406.474 116.028C406.301 115.766 406.105 115.521 405.889 115.294L405.715 60.9219L397.665 62.4308L397.311 115.907C395.477 118.043 395.107 121.156 396.592 123.433C398.333 126.103 401.957 126.609 404.685 124.564Z" fill="#FFB8B8"/>
<path d="M362.821 246.264L354.522 246.263L350.573 214.125L362.822 214.126L362.821 246.264Z" fill="#FFB8B8"/>
<path d="M364.934 243.544L348.589 243.543H348.589C345.826 243.543 343.177 244.645 341.224 246.606C339.271 248.567 338.173 251.227 338.173 254V254.34L364.933 254.341L364.934 243.544Z" fill="#2F2E41"/>
<path d="M439.993 246.264L431.693 246.263L427.745 214.125L439.994 214.126L439.993 246.264Z" fill="#FFB8B8"/>
<path d="M442.105 243.544L425.761 243.543H425.761C422.998 243.543 420.349 244.645 418.396 246.606C416.442 248.567 415.345 251.227 415.345 254V254.34L442.105 254.341L442.105 243.544Z" fill="#2F2E41"/>
<path d="M363.303 237.287L363.999 233.097C364.713 232.846 365.32 232.356 365.719 231.71C366.466 230.526 366.585 228.858 366.073 226.753L371.673 179.277L400.907 148.824L419.662 194.24L427.086 230.179V235.371L441.909 237.282L441.235 232.388C441.802 232.144 442.274 231.721 442.581 231.184C443.432 229.761 443.421 227.555 442.546 224.628L442.508 224.501L442.557 224.064C442.591 223.758 442.368 194.403 433.676 179.858L424.971 135.701C425.197 135.079 426.313 131.458 424.266 125.34C422.246 119.302 416.596 109.575 401.153 97.5244L401.1 97.4832L401.034 97.4693C400.863 97.4338 383.83 94.034 375.021 105.599L374.961 105.677V105.776C374.961 106.491 374.977 123.13 376.287 126.822L355.384 165.41C354.977 165.843 351.323 170.08 352.621 181.219L349.244 219.19C348.857 219.931 345.362 226.905 349.215 229.666L348.524 234.46L363.303 237.287Z" fill="#2F2E41"/>
<path d="M398.27 77.7258C402.195 77.7258 407.41 76.3331 410.603 69.9134L410.666 69.7873L402.8 53.0474C401.781 50.8787 399.957 49.1964 397.719 48.3607C395.48 47.5249 393.004 47.6019 390.821 48.5753C388.639 49.5488 386.922 51.3412 386.039 53.5692C385.155 55.7971 385.176 58.2837 386.095 60.4968L392.896 76.864L393.014 76.908C394.712 77.4557 396.486 77.7317 398.27 77.7258Z" fill="#67CB19"/>
<path d="M376.486 110.914L401.283 99.1579L397.875 57.409L391.661 49.7841L390.457 49.5253C384.925 48.3361 379.176 48.6558 373.809 50.451L373.691 50.4905L363.484 72.3516C363.42 72.4606 356.059 85.5082 366.234 92.3872L376.486 110.914Z" fill="#67CB19"/>
<path d="M342.394 97.6073C342.69 97.7311 342.976 97.8781 343.249 98.047L369.379 86.0471L370.049 79.0713L380.667 78.7109L380.676 91.176C380.676 92.183 380.352 93.1631 379.751 93.969C379.149 94.775 378.304 95.3634 377.341 95.6459L345.964 104.852C345.641 106.049 344.964 107.12 344.021 107.92C343.078 108.721 341.915 109.215 340.686 109.336C339.456 109.457 338.22 109.199 337.14 108.597C336.06 107.995 335.189 107.078 334.641 105.966C334.093 104.855 333.896 103.602 334.075 102.375C334.253 101.149 334.8 100.005 335.642 99.0979C336.483 98.1905 337.58 97.5618 338.786 97.2955C339.993 97.0293 341.251 97.138 342.394 97.6073L342.394 97.6073Z" fill="#FFB8B8"/>
<path d="M374.355 82.0511C377.333 82.0511 380.693 81.0174 383.918 77.7793L384.018 77.6796L381.838 59.3004C381.556 56.9192 380.357 54.7435 378.497 53.2388C376.637 51.7341 374.265 51.0199 371.887 51.2491C369.509 51.4782 367.316 52.6325 365.775 54.4649C364.234 56.2973 363.469 58.6623 363.643 61.0539L364.929 78.7406L365.028 78.8198C365.091 78.8707 369.134 82.0511 374.355 82.0511Z" fill="#67CB19"/>
<path d="M366.388 35.2415C361.984 27.1523 364.945 17.0099 373.002 12.5879C381.059 8.16587 391.161 11.1388 395.566 19.2281C399.97 27.3173 397.009 37.4597 388.952 41.8817C380.895 46.3037 370.793 43.3308 366.388 35.2415Z" fill="#FFB8B8"/>
<path d="M364.053 18.3899C364.878 13.5723 368.73 9.57861 373.319 7.94455C377.908 6.31048 383.082 6.8419 387.576 8.72364C388.325 9.03843 389.056 9.39165 389.768 9.78188C391.411 6.63867 395.438 4.81566 399.121 5.01242C403.57 5.25011 407.589 7.6138 411.453 9.8415C415.318 12.0692 419.465 14.2857 423.919 14.1819C431.97 13.9945 437.959 6.50108 445.701 4.27413C449.147 3.28281 452.814 3.38309 456.201 4.56129C459.588 5.73949 462.531 7.93823 464.628 10.8575C466.725 13.7768 467.873 17.2744 467.917 20.8732C467.96 24.472 466.897 27.9967 464.872 30.9664C461.569 25.0235 453.812 23.0163 447.081 23.8253C440.351 24.6344 434.078 27.5963 427.484 29.174C420.89 30.7518 413.253 30.684 408.146 26.2098C405.249 23.6719 403.548 20.0444 401.025 17.1308C399.319 15.1601 396.89 13.496 394.409 13.1043C396.853 15.3144 398.719 18.0935 399.843 21.1974C401.833 26.8737 400.769 33.6891 396.641 38.052C392.216 42.7295 385.27 43.9761 378.844 43.9004L378.71 43.7632C380.677 40.8068 382.23 36.7074 380.064 33.8945C377.926 31.1179 373.709 31.5269 370.434 30.2983C365.873 28.587 363.228 23.2076 364.053 18.3899Z" fill="#2F2E41"/>
<path d="M319.175 254.999H477.37C477.523 254.999 477.671 254.938 477.779 254.829C477.888 254.72 477.949 254.572 477.949 254.418C477.949 254.263 477.888 254.115 477.779 254.006C477.671 253.897 477.523 253.836 477.37 253.836H319.175C319.021 253.836 318.874 253.897 318.765 254.006C318.656 254.115 318.595 254.263 318.595 254.418C318.595 254.572 318.656 254.72 318.765 254.829C318.874 254.938 319.021 254.999 319.175 254.999Z" fill="#CCCCCC"/>
<path d="M263.611 54.9023C264.336 54.9047 264.923 55.8505 264.922 57.0149C264.92 58.176 264.334 59.1167 263.611 59.119H201.683C200.958 59.1167 200.371 58.1709 200.372 57.0065C200.374 55.8454 200.96 54.9046 201.683 54.9023H263.611Z" fill="white"/>
<path d="M263.611 67.1172C264.336 67.1195 264.923 68.0653 264.922 69.2297C264.92 70.3908 264.334 71.3316 263.611 71.3339H201.683C200.958 71.3315 200.371 70.3857 200.372 69.2214C200.374 68.0602 200.96 67.1195 201.683 67.1172H263.611Z" fill="white"/>
<path d="M263.611 79.1875C264.336 79.1898 264.923 80.1356 264.922 81.3C264.92 82.4612 264.334 83.4019 263.611 83.4042H236.963C236.238 83.4019 235.651 82.4561 235.652 81.2917C235.654 80.1305 236.24 79.1898 236.963 79.1875H263.611Z" fill="white"/>
<path d="M295.053 85.8638C285.772 85.8638 278.248 78.3103 278.248 68.9925C278.248 59.6747 285.772 52.1211 295.053 52.1211C304.334 52.1211 311.857 59.6747 311.857 68.9925C311.857 78.3103 304.334 85.8638 295.053 85.8638Z" fill="white"/>
</g>
<defs>
<clipPath id="clip0_2901_915">
<rect width="477.951" height="255" fill="white" transform="matrix(-1 0 0 1 477.949 0)"/>
</clipPath>
</defs>
</svg>
