<svg width="51" height="61" viewBox="0 0 51 61" fill="none" xmlns="http://www.w3.org/2000/svg">
<g clip-path="url(#clip0_1978_27427)">
<path d="M50.4662 15.7375C50.4662 13.0499 48.676 10.8867 46.4518 10.8867H4.57155C2.34735 10.8867 0.557129 13.0499 0.557129 15.7375V45.432C0.557129 48.0541 2.34735 50.2172 4.57155 50.2172H46.506C48.7302 50.2172 50.5204 48.0541 50.5204 45.3665V15.7375H50.4662ZM46.1263 16.1308V20.7193H4.89705V16.1308H46.1263ZM4.89705 44.9732V28.5855H46.1263V44.9732H4.89705ZM42.0576 36.4516C42.0576 37.8937 41.0811 39.0736 39.8876 39.0736H29.5803C28.3869 39.0736 27.4104 37.8937 27.4104 36.4516C27.4104 35.0094 28.3869 33.8295 29.5803 33.8295H39.8876C41.0811 33.8295 42.0576 35.0094 42.0576 36.4516Z" fill="#9A9FAE"/>
</g>
<defs>
<clipPath id="clip0_1978_27427">
<rect width="49.9091" height="60.3068" fill="white" transform="translate(0.556641 0.398438)"/>
</clipPath>
</defs>
</svg>
