<svg width="51" height="51" viewBox="0 0 51 51" fill="none" xmlns="http://www.w3.org/2000/svg">
<g clip-path="url(#clip0_1978_27434)">
<path d="M50.471 21.7041C50.471 20.3444 49.3687 19.2422 48.0091 19.2422H33.9092C32.5496 19.2422 31.4473 20.3444 31.4473 21.7041V29.0897C31.4473 30.4493 32.5496 31.5516 33.9092 31.5516H48.0091C49.3687 31.5516 50.471 30.4493 50.471 29.0897V21.7041ZM38.5006 28.299C36.9156 28.299 35.6308 27.0141 35.6308 25.4291C35.6308 23.8441 36.9156 22.5592 38.5006 22.5592C40.0856 22.5592 41.3705 23.8441 41.3705 25.4291C41.3705 27.0139 40.0856 28.299 38.5006 28.299Z" fill="#9A9FAE"/>
<path d="M28.2004 15.8834H46.4387V8.49774C46.4387 6.64663 45.0074 5.14062 43.1561 5.14062H3.98979C2.13868 5.14062 0.558151 6.64663 0.558151 8.49774V42.5165C0.558151 44.3676 2.13868 45.8736 3.98979 45.8736H43.1561C45.0072 45.8736 46.4387 44.3676 46.4387 42.5165V34.907H28.2337L28.2004 15.8834Z" fill="#9A9FAE"/>
</g>
<defs>
<clipPath id="clip0_1978_27434">
<rect width="49.9091" height="49.9091" fill="white" transform="translate(0.556641 0.554688)"/>
</clipPath>
</defs>
</svg>
