<svg width="51" height="63" viewBox="0 0 51 63" fill="none" xmlns="http://www.w3.org/2000/svg">
<g clip-path="url(#clip0_1978_27443)">
<path d="M25.6503 45.488C20.5128 45.488 16.1931 41.121 14.9328 35.1953H0.555599V49.0589H50.4647V35.1953H36.3678C35.1075 41.121 30.7877 45.488 25.6503 45.488Z" fill="#9A9FAE"/>
<path d="M25.6503 17.7593C30.8482 17.7593 35.2093 22.2297 36.4111 28.2621H50.4647V14.3984H0.555599V28.2621H14.8894C16.0913 22.2297 20.4523 17.7593 25.6503 17.7593Z" fill="#9A9FAE"/>
<path d="M26.1136 30.1627C25.5298 29.8417 25.1313 29.5241 24.9183 29.2103C24.7052 28.8967 24.5986 28.4879 24.5986 27.9844C24.5986 27.4883 24.698 27.0793 24.8964 26.7581C25.0947 26.4372 25.4014 26.2767 25.8159 26.2767C26.2246 26.2767 26.5515 26.493 26.7967 26.8833C27.042 27.2738 27.1645 27.8429 27.1645 28.6831H30.0629L30.0806 28.6077C30.098 27.228 29.7552 26.083 29.1424 25.1924C28.5294 24.3026 27.6096 23.7518 26.6014 23.5617V21.1211H25.257V23.518C24.0807 23.6495 23.2815 24.1148 22.6159 24.9138C21.9503 25.7131 21.628 26.7291 21.628 27.9626C21.628 29.3273 21.9472 30.3614 22.5747 31.0657C23.202 31.7703 24.2073 32.4649 25.5852 33.1512C26.1512 33.4576 26.5469 33.7693 26.7689 34.0869C26.9904 34.4046 27.1022 34.8515 27.1022 35.4277C27.1022 35.9241 26.9944 36.3255 26.7787 36.632C26.5626 36.9382 26.2446 37.0916 25.8242 37.0916C25.3222 37.0916 24.9137 36.9044 24.5983 36.507C24.2832 36.1094 24.1258 35.405 24.1258 34.5648H21.2446L21.2183 34.619C21.1947 36.2604 21.5394 37.5012 22.2867 38.3511C23.0338 39.2014 23.9127 39.6897 25.089 39.8282V42.1266H26.4333V39.8391C27.6096 39.7002 28.4144 39.2442 29.0537 38.4708C29.6927 37.6972 30.0332 36.6755 30.0332 35.4055C30.0332 34.0701 29.7253 33.043 29.0889 32.3242C28.4529 31.6058 27.4678 30.8849 26.1136 30.1627Z" fill="#9A9FAE"/>
</g>
<defs>
<clipPath id="clip0_1978_27443">
<rect width="49.9091" height="62.3863" fill="white" transform="translate(0.556641 0.535156)"/>
</clipPath>
</defs>
</svg>
