<svg width="49" height="39" viewBox="0 0 49 39" fill="none" xmlns="http://www.w3.org/2000/svg">
<path d="M4.22653 0.5H44.7923C47.0978 0.5 48.9912 2.39342 48.9912 4.69888V33.8181C48.9912 36.1236 47.0972 38.017 44.7923 38.017H4.22653C1.92166 38.017 0.028244 36.1236 0.028244 33.8181V4.69888C0.028244 2.39342 1.92166 0.5 4.22653 0.5ZM2.47577 7.32502H46.5431V4.69888C46.5431 3.73154 45.7591 2.94812 44.7923 2.94812H4.22653C3.25978 2.94812 2.47577 3.73154 2.47577 4.69888V7.32502ZM46.5431 11.4655H2.47577V33.8181C2.47577 34.7854 3.25978 35.5689 4.22653 35.5689H44.7923C45.7591 35.5689 46.5431 34.7854 46.5431 33.8181V11.4655ZM31.8897 22.5979H42.1715C42.8476 22.5979 43.3958 23.1461 43.3958 23.8223V31.2886C43.3958 31.9648 42.8476 32.5124 42.1715 32.5124H31.8897C31.2142 32.5124 30.666 31.9648 30.666 31.2886V23.8223C30.666 23.1461 31.2142 22.5979 31.8897 22.5979ZM40.9477 25.046H33.1141V30.0649H40.9477V25.046ZM6.51549 22.0296C4.90562 22.0296 4.90562 19.5821 6.51549 19.5821H19.1787C20.7886 19.5821 20.7886 22.0296 19.1787 22.0296H6.51549ZM6.51549 17.4028C4.90562 17.4028 4.90562 14.9547 6.51549 14.9547H19.1787C20.7886 14.9547 20.7886 17.4028 19.1787 17.4028H6.51549Z" fill="#9A9FAE"/>
</svg>
