<svg width="68" height="67" viewBox="0 0 68 67" fill="none" xmlns="http://www.w3.org/2000/svg">
<path d="M28.4867 16.984C39.1442 16.984 47.7839 25.6237 47.7839 36.2812C47.7839 37.3139 47.7028 38.3276 47.5466 39.3163L38.73 30.5026C35.8077 33.4249 34.0002 37.4621 34.0002 41.9214C34.0002 46.1593 35.6327 50.016 38.3031 52.8968C35.4282 54.6009 32.0716 55.5785 28.4867 55.5785C17.8291 55.5785 9.18945 46.9388 9.18945 36.2812C9.18945 25.6237 17.8291 16.984 28.4867 16.984ZM28.4867 16.984L21.3513 15.5569C17.4855 14.7838 14.7029 11.3896 14.7029 7.4473V5.95703L21.8384 7.38412C25.7041 8.15726 28.4867 11.5515 28.4867 15.4938V19.7408M28.4867 16.984V19.7408M28.4867 19.7408C28.4867 16.3617 30.3958 13.2727 33.4181 11.7616L34.0002 11.4705M42.2435 34.2812L42.1016 34.1394C41.048 33.0858 39.9241 31.9619 38.73 30.7677C35.8077 33.6901 34.0002 37.7272 34.0002 42.1866C34.0002 43.2649 34.1059 44.3185 34.3074 45.3377C34.5152 46.3879 34.8247 47.4015 35.2254 48.3678C36.0439 50.3416 37.2425 52.1179 38.73 53.6054C40.2175 55.0929 41.9938 56.2915 43.9676 57.1099C44.9339 57.5106 45.9475 57.8202 46.9977 58.0279C48.0169 58.2295 49.0705 58.3352 50.1488 58.3352C54.6081 58.3352 58.6453 56.5277 61.5676 53.6054C60.3735 52.4113 59.2496 51.2874 58.196 50.2337L58.0541 50.0919M42.2435 34.2812C40.2203 36.3044 38.969 39.0993 38.969 42.1866M42.2435 34.2812L42.8787 34.9165C43.1333 35.1711 43.3836 35.4213 43.6294 35.6672L45.0518 37.0896C45.2801 37.3179 45.504 37.5418 45.7235 37.7613L48.6869 40.7246C49.2137 41.2515 49.701 41.7388 50.1488 42.1866M38.969 42.1866C38.969 48.361 43.9744 53.3664 50.1488 53.3664M38.969 42.1866C38.969 42.9331 39.0421 43.6625 39.1817 44.368L50.1488 42.1866M50.1488 53.3664C53.236 53.3664 56.031 52.115 58.0541 50.0919M50.1488 53.3664C48.6327 53.3664 47.1871 53.0646 45.8688 52.5179L50.1488 42.1866M58.0541 50.0919L57.4189 49.4567C57.1643 49.202 56.9141 48.9518 56.6682 48.706L55.2458 47.2835C55.0175 47.0553 54.7936 46.8314 54.5741 46.6118L51.6107 43.6485C51.0839 43.1217 50.5966 42.6344 50.1488 42.1866" stroke="#9A9FAE" stroke-width="2.75675" stroke-linecap="round"/>
</svg>
