<svg width="68" height="67" viewBox="0 0 68 67" fill="none" xmlns="http://www.w3.org/2000/svg">
<g clip-path="url(#clip0_1978_14312)">
<path d="M46.4702 29.8468C46.7201 30.0994 46.9101 30.3939 47.0369 30.7105L50.5884 30.694C51.616 30.6885 52.5445 30.0796 52.9592 29.1392C53.4985 27.9162 53.0223 26.5022 51.897 25.8414L51.6673 25.7237L54.2815 24.8414C54.9354 24.6203 55.4749 24.1488 55.7817 23.5303C56.4212 22.2407 55.8943 20.6768 54.6047 20.0372L53.5795 19.5269L54.3147 18.7942C55.8321 17.2767 55.8321 14.8165 54.3147 13.2991C52.7973 11.7816 50.337 11.7816 48.8196 13.2991L48.0532 14.0629L47.4828 12.9153C47.1761 12.2969 46.6365 11.8253 45.9826 11.6042C44.6189 11.1431 43.1397 11.8748 42.6786 13.2385L41.87 15.6224L41.85 15.564C41.477 14.5497 40.5135 13.8736 39.4328 13.8678C38.0023 13.8601 36.8363 15.0135 36.8286 16.4441L36.8085 20.3739C37.0505 20.4949 37.2762 20.6549 37.4757 20.8523M46.4702 29.8468C45.4579 28.8234 43.8076 28.8145 42.7842 29.8269L17.0176 55.3171C16.3838 55.9441 15.4736 56.2036 14.6044 56.0052M46.4702 29.8468C47.2287 30.6135 47.4361 31.7674 46.9943 32.7492L49.251 31.634C50.5412 30.9958 52.1046 31.5244 52.7428 32.8147C53.0489 33.4335 53.097 34.1484 52.8766 34.8026L52.4136 36.1748L54.9226 36.1751C56.9458 36.1751 58.586 37.8152 58.586 39.8385C58.586 41.8617 56.9458 43.5019 54.9226 43.5019L52.4136 43.4995L52.8766 44.8744C53.3362 46.2386 52.603 47.717 51.2388 48.1767C50.5846 48.3971 49.8697 48.349 49.2509 48.0429L46.7816 46.8214L46.8578 47.064C47.1863 48.327 46.5231 49.6635 45.2769 50.147C44.3188 50.5187 43.2317 50.2927 42.5011 49.57L36.3672 43.5019L21.5177 58.1921C19.4866 60.2014 16.2165 60.2014 14.1854 58.1921L11.1859 55.2248L14.6044 56.0052M14.6044 56.0052L11.9295 55.3933L11.3173 52.7181M11.3173 52.7181C11.1189 51.849 11.3785 50.9387 12.0054 50.3049M11.3173 52.7181L12.0977 56.1366L9.13044 53.1371C7.1211 51.106 7.1211 47.8359 9.13044 45.8048L23.8206 30.9553L17.7525 24.8214C17.0298 24.0908 16.8038 23.0037 17.1755 22.0456C17.659 20.7994 18.9956 20.1363 20.2585 20.4648L20.5012 20.5409L19.2796 18.0716C18.9735 17.4528 18.9254 16.7379 19.1458 16.0837C19.6055 14.7195 21.084 13.9863 22.4481 14.4459L23.823 14.9089L23.8206 12.3999C23.8206 10.3767 25.4608 8.73652 27.484 8.73652C29.5073 8.73652 31.1474 10.3767 31.1474 12.3999L31.1477 14.9089L32.52 14.4459C33.1741 14.2255 33.8891 14.2736 34.5078 14.5797C35.7981 15.2179 36.3267 16.7813 35.6885 18.0716L34.5733 20.3282C35.5551 19.8864 36.709 20.0938 37.4757 20.8523M12.0054 50.3049L29.9373 32.1769L36.7804 25.3358L36.7794 25.2608L37.4956 24.5383M12.0054 50.3049L37.4956 24.5383M37.4956 24.5383C38.508 23.515 38.4991 21.8647 37.4757 20.8523M47.2254 20.2946L44.6069 22.9131M27.484 19.8459L27.484 23.549M21.0255 35.5981L32.0157 46.5883M47.4766 39.8385L43.7735 39.8385" stroke="#9A9FAE" stroke-width="2.75675" stroke-linecap="round"/>
</g>
<defs>
<clipPath id="clip0_1978_14312">
<rect width="66.1619" height="66.1619" fill="white" transform="translate(0.917969 0.441406)"/>
</clipPath>
</defs>
</svg>
