<svg width="68" height="67" viewBox="0 0 68 67" fill="none" xmlns="http://www.w3.org/2000/svg">
<g clip-path="url(#clip0_1978_14317)">
<path d="M10.5693 56.9569L50.6401 16.8861M10.5693 56.9569L14.128 53.3982C17.0549 50.4713 17.6299 45.9346 15.5258 42.3701M10.5693 56.9569L22.0531 45.4731C24.7287 42.7975 24.7287 38.4595 22.0531 35.7839M10.5693 56.9569L31.7997 35.7266C33.3987 34.1275 33.3987 31.535 31.7997 29.936M10.5693 56.9569L44.4702 23.056C45.5309 21.9953 45.5309 20.2755 44.4702 19.2148M10.5693 56.9569L40.5716 26.9547C41.6323 25.8939 41.6323 24.1741 40.5716 23.1134M10.5693 56.9569L14.1691 53.3571C17.0911 50.4352 21.5913 49.7934 25.2136 51.7822M10.5693 56.9569L21.9957 45.5305C24.703 42.8232 29.0924 42.8232 31.7997 45.5305M10.5693 56.9569L31.7423 35.7839C33.373 34.1532 36.0169 34.1532 37.6476 35.7839M10.5693 56.9569L44.4128 23.1134C45.5052 22.021 47.2764 22.021 48.3688 23.1134M10.5693 56.9569L40.5142 27.012C41.6066 25.9196 43.3778 25.9196 44.4702 27.012M19.0964 32.7689L20.5649 35.2164C21.7399 37.1747 21.1049 39.7147 19.1466 40.8897C18.5039 41.2753 17.7686 41.479 17.0191 41.479L14.0821 41.479C11.7983 41.479 9.94698 39.6277 9.94698 37.3439C9.94698 36.5944 10.1507 35.859 10.5363 35.2164L12.0048 32.7689C13.1798 30.8106 15.7198 30.1756 17.6781 31.3505M19.0964 32.7689C18.7472 32.1869 18.2601 31.6998 17.6781 31.3505M19.0964 32.7689L20.2145 34.6392C20.5877 34.7499 20.9829 34.8093 21.392 34.8093L24.329 34.8093C25.0785 34.8093 25.8139 34.6056 26.4565 34.22C28.4148 33.045 29.0499 30.505 27.8749 28.5467M17.6781 31.3505C17.5497 31.2735 17.4188 31.2043 17.286 31.1427C17.2659 30.9903 17.2569 30.8333 17.2569 30.6742C17.2569 29.9247 17.4606 29.1893 17.8462 28.5467L19.3147 26.0992C20.4897 24.1408 23.0297 23.5058 24.988 24.6808M32.3672 47.0187L34.8147 48.4872C35.3967 48.8364 35.8839 49.3235 36.2331 49.9055C37.408 51.8638 36.773 54.4039 34.8147 55.5788M32.3672 47.0187C30.4089 45.8437 27.8689 46.4787 26.6939 48.437C26.3083 49.0797 26.1046 49.815 26.1046 50.5645L26.1046 53.5015C26.1046 55.7853 27.956 57.6366 30.2397 57.6366C30.9892 57.6366 31.7246 57.4329 32.3672 57.0473L34.8147 55.5788M32.3672 47.0187L32.9436 47.3665C32.8334 46.994 32.7743 46.5997 32.7743 46.1916L32.7743 43.2546C32.7743 42.5051 32.978 41.7697 33.3636 41.1271C34.5386 39.1688 37.0786 38.5338 39.0369 39.7087M34.8147 55.5788C36.6447 54.4809 37.3191 52.191 36.4385 50.3002C36.593 50.3177 36.7502 50.3267 36.9094 50.3267C37.6589 50.3267 38.3943 50.123 39.0369 49.7374L41.4845 48.2689C43.4428 47.0939 44.0778 44.5539 42.9028 42.5956M27.8749 28.5467L26.4064 26.0992C26.0571 25.5171 25.57 25.03 24.988 24.6808M27.8749 28.5467C27.9535 28.6777 28.024 28.8113 28.0865 28.947L28.3818 28.9613L31.3189 28.9613C32.0683 28.9613 32.8037 28.7577 33.4464 28.3721C35.4047 27.1971 36.0397 24.657 34.8647 22.6987L33.3962 20.2512C33.047 19.6692 32.5599 19.1821 31.9778 18.8329C30.0195 17.6579 27.4795 18.2929 26.3045 20.2512L24.836 22.6987C24.534 23.2021 24.3435 23.7625 24.2786 24.3415C24.521 24.4303 24.7585 24.5431 24.988 24.6808M42.9028 42.5956C42.5536 42.0136 42.0665 41.5265 41.4844 41.1773L39.0369 39.7087M42.9028 42.5956C43.0405 42.8251 43.1533 43.0626 43.2417 43.3084C43.8212 43.2401 44.3815 43.0497 44.8849 42.7476L47.3324 41.2791C49.2907 40.1041 49.9257 37.5641 48.7507 35.6058C48.4015 35.0237 47.9144 34.5366 47.3324 34.1874L44.8849 32.7189C42.9266 31.5439 40.3865 32.1789 39.2115 34.1373C38.8259 34.7799 38.6223 35.5153 38.6223 36.2648L38.6223 39.2018L38.6366 39.4971C38.7723 39.5596 38.9059 39.6301 39.0369 39.7087M41.3026 16.5345C42.4455 18.4393 41.8278 20.91 39.923 22.0529C39.2979 22.428 38.5826 22.6261 37.8536 22.6261L37.4416 22.6261C35.2202 22.6261 33.4194 20.8253 33.4194 18.6039C33.4194 17.8749 33.6176 17.1596 33.9926 16.5345C35.2038 14.5159 37.822 13.8613 39.8406 15.0725C40.4405 15.4324 40.9426 15.9345 41.3026 16.5345ZM52.9985 28.2304C54.1414 30.1352 53.5237 32.6059 51.6188 33.7488C50.9937 34.1238 50.2784 34.322 49.5494 34.322L49.1375 34.322C46.9161 34.322 45.1153 32.5212 45.1153 30.2998C45.1153 29.5708 45.3135 28.8555 45.6885 28.2304C46.8997 26.2118 49.5179 25.5572 51.5365 26.7684C52.1364 27.1283 52.6385 27.6304 52.9985 28.2304ZM49.0998 12.6358C50.2427 14.5407 49.6251 17.0114 47.7202 18.1543C47.0951 18.5293 46.3798 18.7275 45.6508 18.7275L45.2389 18.7274C43.0175 18.7274 41.2167 16.9266 41.2167 14.7052C41.2167 13.9762 41.4148 13.261 41.7899 12.6358C43.001 10.6173 45.6193 9.96271 47.6378 11.1739C48.2378 11.5338 48.7399 12.0359 49.0998 12.6358ZM56.8971 20.4331C58.04 22.3379 57.4223 24.8086 55.5175 25.9515C54.8924 26.3266 54.1771 26.5247 53.4481 26.5247L53.0362 26.5247C50.8148 26.5247 49.014 24.7239 49.014 22.5025C49.014 21.7735 49.2121 21.0582 49.5872 20.4331C50.7983 18.4145 53.4165 17.76 55.4351 18.9711C56.035 19.3311 56.5371 19.8332 56.8971 20.4331ZM58.8464 10.6865C59.9893 12.5914 59.3716 15.062 57.4668 16.2049C56.8417 16.58 56.1264 16.7781 55.3974 16.7781L54.9855 16.7781C52.7641 16.7781 50.9633 14.9773 50.9633 12.7559C50.9633 12.0269 51.1614 11.3116 51.5365 10.6865C52.7476 8.66795 55.3658 8.0134 57.3844 9.22454C57.9843 9.5845 58.4864 10.0866 58.8464 10.6865Z" stroke="#9A9FAE" stroke-width="2.75675" stroke-linecap="round"/>
</g>
<defs>
<clipPath id="clip0_1978_14317">
<rect width="66.1619" height="66.1619" fill="white" transform="translate(0.917969 0.441406)"/>
</clipPath>
</defs>
</svg>
