<svg width="68" height="67" viewBox="0 0 68 67" fill="none" xmlns="http://www.w3.org/2000/svg">
<path fill-rule="evenodd" clip-rule="evenodd" d="M22.4312 12.014L24.3518 11.4653C30.6728 9.65928 37.3578 9.54789 43.7355 11.1423L46.3193 11.7883C52.3431 13.2942 57.1053 17.9004 58.8111 23.8706L59.5287 26.3821C60.8506 31.0088 60.5982 35.9435 58.8111 40.4111L58.6139 40.9041C57.1383 44.5931 53.6607 47.0699 49.7273 47.2874L49.1625 47.303C44.7012 47.303 40.3727 48.8213 36.889 51.6083L35.3788 52.8165C31.1359 56.2108 25.3689 56.9937 20.3746 54.8533L18.8383 54.1949C12.8625 51.6338 8.69405 46.0947 7.88764 39.6434L7.42983 35.9809C6.78393 30.8138 7.88888 25.5792 10.5681 21.1139C13.225 16.6857 17.4657 13.4328 22.4312 12.014ZM43.7355 11.1423L46.3193 11.7883C52.3431 13.2942 57.1053 17.9004 58.8111 23.8706L59.5287 26.3821C59.7009 26.9848 59.8464 27.5928 59.9652 28.2043C59.7088 29.5439 59.3229 30.8615 58.8111 32.1409L58.6139 32.6338C57.1383 36.3229 53.6607 38.7996 49.7273 39.0172L49.1625 39.0328C44.7012 39.0328 40.3727 40.5511 36.889 43.3381L35.3788 44.5462C31.1359 47.9406 25.3689 48.7234 20.3746 46.583L18.8383 45.9246C12.8625 43.3636 8.69405 37.8244 7.88764 31.3732L7.59689 29.0891C8.08559 26.2897 9.08595 23.5841 10.5681 21.1139C13.225 16.6857 17.4657 13.4328 22.4312 12.014L24.3518 11.4653C30.6728 9.65928 37.3578 9.54789 43.7355 11.1423ZM60.0517 28.8481C57.4381 23.4618 51.9774 20.0418 45.9905 20.0418H45.0963C38.1282 20.0418 31.3132 17.9969 25.4962 14.1606L23.7315 12.9968C23.2394 12.6722 22.7382 12.3659 22.2289 12.0779L22.4312 12.014L24.3518 11.4653C27.5123 10.5623 30.7638 10.0829 34.0224 10.0286L35.2445 10.0282C38.0962 10.0737 40.9452 10.4448 43.7355 11.1423L46.3193 11.7883C52.3431 13.2942 57.1053 17.9004 58.8111 23.8706L59.5287 26.3821C59.7765 27.2496 59.969 28.1279 60.1065 29.012L60.0952 28.9383C60.0807 28.9082 60.0662 28.8781 60.0517 28.8481ZM17.5579 29.7592C17.5579 32.0429 20.0264 33.8943 23.0714 33.8943C26.1164 33.8943 28.5849 32.0429 28.5849 29.7592C28.5849 27.4754 26.1164 25.624 23.0714 25.624C20.0264 25.624 17.5579 27.4754 17.5579 29.7592Z" stroke="#9A9FAE" stroke-width="2.75675" stroke-linecap="square"/>
</svg>
