<svg width="68" height="67" viewBox="0 0 68 67" fill="none" xmlns="http://www.w3.org/2000/svg">
<path d="M28.4842 8.71094H42.2679M23.8186 29.4184L26.3788 25.3522C28.6241 21.7864 30.0672 17.7751 30.6084 13.5962L31.2409 8.71094H39.5112L40.0831 13.2864C40.6144 17.5363 42.0655 21.6194 44.3355 25.2514L46.9434 29.424C47.491 30.3003 47.7814 31.3128 47.7814 32.3462V52.8189C47.7814 55.8639 45.3129 58.3324 42.2679 58.3324H28.4842C25.4392 58.3324 22.9707 55.8639 22.9707 52.8189V32.3561C22.9707 31.3165 23.2646 30.2981 23.8186 29.4184ZM22.9707 39.0351L24.7027 39.6125C28.7975 40.9774 33.3014 40.2465 36.7544 37.6568L37.3365 37.2202C40.1909 35.0794 43.9563 34.6353 47.2124 36.0158L47.7814 36.2784V52.8189C47.7814 55.8639 45.3129 58.3324 42.2679 58.3324H28.4842C25.4392 58.3324 22.9707 55.8639 22.9707 52.8189V39.0351Z" stroke="#9A9FAE" stroke-width="2.75675" stroke-linecap="round"/>
</svg>
