<svg width="118" height="33" viewBox="0 0 118 33" fill="none" xmlns="http://www.w3.org/2000/svg">
<rect width="118" height="33" rx="4" fill="black"/>
<path d="M35.463 9.85H36.102V12.253C35.808 12.511 35.46 12.709 35.058 12.847C34.656 12.985 34.233 13.054 33.789 13.054C33.159 13.054 32.592 12.916 32.088 12.64C31.584 12.364 31.188 11.983 30.9 11.497C30.612 11.005 30.468 10.456 30.468 9.85C30.468 9.244 30.612 8.698 30.9 8.212C31.188 7.72 31.584 7.336 32.088 7.06C32.592 6.784 33.162 6.646 33.798 6.646C34.278 6.646 34.719 6.724 35.121 6.88C35.523 7.03 35.862 7.255 36.138 7.555L35.724 7.978C35.226 7.486 34.593 7.24 33.825 7.24C33.315 7.24 32.853 7.354 32.439 7.582C32.031 7.804 31.71 8.116 31.476 8.518C31.242 8.914 31.125 9.358 31.125 9.85C31.125 10.342 31.242 10.786 31.476 11.182C31.71 11.578 32.031 11.89 32.439 12.118C32.847 12.346 33.306 12.46 33.816 12.46C34.464 12.46 35.013 12.298 35.463 11.974V9.85ZM42.4419 12.424V13H37.9869V6.7H42.3069V7.276H38.6529V9.517H41.9109V10.084H38.6529V12.424H42.4419ZM45.2314 7.276H43.0174V6.7H48.1114V7.276H45.8974V13H45.2314V7.276ZM51.5309 6.7H52.1969V13H51.5309V6.7ZM55.4707 7.276H53.2567V6.7H58.3507V7.276H56.1367V13H55.4707V7.276ZM64.5241 13.054C63.9001 13.054 63.3331 12.916 62.8231 12.64C62.3191 12.358 61.9231 11.974 61.6351 11.488C61.3531 11.002 61.2121 10.456 61.2121 9.85C61.2121 9.244 61.3531 8.698 61.6351 8.212C61.9231 7.726 62.3191 7.345 62.8231 7.069C63.3331 6.787 63.9001 6.646 64.5241 6.646C65.1481 6.646 65.7091 6.784 66.2071 7.06C66.7111 7.336 67.1071 7.72 67.3951 8.212C67.6831 8.698 67.8271 9.244 67.8271 9.85C67.8271 10.456 67.6831 11.005 67.3951 11.497C67.1071 11.983 66.7111 12.364 66.2071 12.64C65.7091 12.916 65.1481 13.054 64.5241 13.054ZM64.5241 12.46C65.0221 12.46 65.4721 12.349 65.8741 12.127C66.2761 11.899 66.5911 11.587 66.8191 11.191C67.0471 10.789 67.1611 10.342 67.1611 9.85C67.1611 9.358 67.0471 8.914 66.8191 8.518C66.5911 8.116 66.2761 7.804 65.8741 7.582C65.4721 7.354 65.0221 7.24 64.5241 7.24C64.0261 7.24 63.5731 7.354 63.1651 7.582C62.7631 7.804 62.4451 8.116 62.2111 8.518C61.9831 8.914 61.8691 9.358 61.8691 9.85C61.8691 10.342 61.9831 10.789 62.2111 11.191C62.4451 11.587 62.7631 11.899 63.1651 12.127C63.5731 12.349 64.0261 12.46 64.5241 12.46ZM74.5849 6.7V13H74.0359L69.9859 7.888V13H69.3199V6.7H69.8689L73.9279 11.812V6.7H74.5849Z" fill="white"/>
<path d="M37.072 24.05H32.847L32.041 26H29.883L33.939 16.9H36.019L40.088 26H37.878L37.072 24.05ZM36.409 22.451L34.966 18.967L33.523 22.451H36.409ZM45.0231 18.902C45.6731 18.902 46.2625 19.0537 46.7911 19.357C47.3285 19.6517 47.7488 20.072 48.0521 20.618C48.3555 21.1553 48.5071 21.7837 48.5071 22.503C48.5071 23.2223 48.3555 23.855 48.0521 24.401C47.7488 24.9383 47.3285 25.3587 46.7911 25.662C46.2625 25.9567 45.6731 26.104 45.0231 26.104C44.1305 26.104 43.4285 25.8223 42.9171 25.259V28.522H40.8891V19.006H42.8261V19.812C43.3288 19.2053 44.0611 18.902 45.0231 18.902ZM44.6721 24.44C45.1921 24.44 45.6168 24.2667 45.9461 23.92C46.2841 23.5647 46.4531 23.0923 46.4531 22.503C46.4531 21.9137 46.2841 21.4457 45.9461 21.099C45.6168 20.7437 45.1921 20.566 44.6721 20.566C44.1521 20.566 43.7231 20.7437 43.3851 21.099C43.0558 21.4457 42.8911 21.9137 42.8911 22.503C42.8911 23.0923 43.0558 23.5647 43.3851 23.92C43.7231 24.2667 44.1521 24.44 44.6721 24.44ZM53.9987 18.902C54.6487 18.902 55.238 19.0537 55.7667 19.357C56.304 19.6517 56.7244 20.072 57.0277 20.618C57.331 21.1553 57.4827 21.7837 57.4827 22.503C57.4827 23.2223 57.331 23.855 57.0277 24.401C56.7244 24.9383 56.304 25.3587 55.7667 25.662C55.238 25.9567 54.6487 26.104 53.9987 26.104C53.106 26.104 52.404 25.8223 51.8927 25.259V28.522H49.8647V19.006H51.8017V19.812C52.3044 19.2053 53.0367 18.902 53.9987 18.902ZM53.6477 24.44C54.1677 24.44 54.5924 24.2667 54.9217 23.92C55.2597 23.5647 55.4287 23.0923 55.4287 22.503C55.4287 21.9137 55.2597 21.4457 54.9217 21.099C54.5924 20.7437 54.1677 20.566 53.6477 20.566C53.1277 20.566 52.6987 20.7437 52.3607 21.099C52.0314 21.4457 51.8667 21.9137 51.8667 22.503C51.8667 23.0923 52.0314 23.5647 52.3607 23.92C52.6987 24.2667 53.1277 24.44 53.6477 24.44ZM65.6549 26.156C64.9356 26.156 64.2379 26.0607 63.5619 25.87C62.8946 25.6707 62.3573 25.415 61.9499 25.103L62.6649 23.517C63.0549 23.803 63.5186 24.0327 64.0559 24.206C64.5933 24.3793 65.1306 24.466 65.6679 24.466C66.2659 24.466 66.7079 24.3793 66.9939 24.206C67.2799 24.024 67.4229 23.7857 67.4229 23.491C67.4229 23.2743 67.3363 23.0967 67.1629 22.958C66.9983 22.8107 66.7816 22.6937 66.5129 22.607C66.2529 22.5203 65.8976 22.425 65.4469 22.321C64.7536 22.1563 64.1859 21.9917 63.7439 21.827C63.3019 21.6623 62.9206 21.398 62.5999 21.034C62.2879 20.67 62.1319 20.1847 62.1319 19.578C62.1319 19.0493 62.2749 18.5727 62.5609 18.148C62.8469 17.7147 63.2759 17.3723 63.8479 17.121C64.4286 16.8697 65.1349 16.744 65.9669 16.744C66.5476 16.744 67.1153 16.8133 67.6699 16.952C68.2246 17.0907 68.7099 17.29 69.1259 17.55L68.4759 19.149C67.6353 18.6723 66.7946 18.434 65.9539 18.434C65.3646 18.434 64.9269 18.5293 64.6409 18.72C64.3636 18.9107 64.2249 19.162 64.2249 19.474C64.2249 19.786 64.3853 20.02 64.7059 20.176C65.0353 20.3233 65.5336 20.4707 66.2009 20.618C66.8943 20.7827 67.4619 20.9473 67.9039 21.112C68.3459 21.2767 68.7229 21.5367 69.0349 21.892C69.3556 22.2473 69.5159 22.7283 69.5159 23.335C69.5159 23.855 69.3686 24.3317 69.0739 24.765C68.7879 25.1897 68.3546 25.5277 67.7739 25.779C67.1933 26.0303 66.4869 26.156 65.6549 26.156ZM75.323 25.662C75.1236 25.8093 74.8766 25.922 74.582 26C74.296 26.0693 73.9926 26.104 73.672 26.104C72.84 26.104 72.1943 25.8917 71.735 25.467C71.2843 25.0423 71.059 24.4183 71.059 23.595V20.722H69.98V19.162H71.059V17.459H73.087V19.162H74.829V20.722H73.087V23.569C73.087 23.8637 73.1606 24.0933 73.308 24.258C73.464 24.414 73.6806 24.492 73.958 24.492C74.2786 24.492 74.5516 24.4053 74.777 24.232L75.323 25.662ZM79.5736 26.104C78.8369 26.104 78.1739 25.9523 77.5846 25.649C77.0039 25.337 76.5489 24.908 76.2196 24.362C75.8902 23.816 75.7256 23.1963 75.7256 22.503C75.7256 21.8097 75.8902 21.19 76.2196 20.644C76.5489 20.098 77.0039 19.6733 77.5846 19.37C78.1739 19.058 78.8369 18.902 79.5736 18.902C80.3102 18.902 80.9689 19.058 81.5496 19.37C82.1302 19.6733 82.5852 20.098 82.9146 20.644C83.2439 21.19 83.4086 21.8097 83.4086 22.503C83.4086 23.1963 83.2439 23.816 82.9146 24.362C82.5852 24.908 82.1302 25.337 81.5496 25.649C80.9689 25.9523 80.3102 26.104 79.5736 26.104ZM79.5736 24.44C80.0936 24.44 80.5182 24.2667 80.8476 23.92C81.1856 23.5647 81.3546 23.0923 81.3546 22.503C81.3546 21.9137 81.1856 21.4457 80.8476 21.099C80.5182 20.7437 80.0936 20.566 79.5736 20.566C79.0536 20.566 78.6246 20.7437 78.2866 21.099C77.9486 21.4457 77.7796 21.9137 77.7796 22.503C77.7796 23.0923 77.9486 23.5647 78.2866 23.92C78.6246 24.2667 79.0536 24.44 79.5736 24.44ZM86.7011 19.929C86.9438 19.591 87.2688 19.3353 87.6761 19.162C88.0921 18.9887 88.5688 18.902 89.1061 18.902V20.774C88.8808 20.7567 88.7291 20.748 88.6511 20.748C88.0705 20.748 87.6155 20.9127 87.2861 21.242C86.9568 21.5627 86.7921 22.048 86.7921 22.698V26H84.7641V19.006H86.7011V19.929ZM97.0995 22.529C97.0995 22.555 97.0865 22.737 97.0605 23.075H91.7695C91.8648 23.5083 92.0902 23.8507 92.4455 24.102C92.8008 24.3533 93.2428 24.479 93.7715 24.479C94.1355 24.479 94.4562 24.427 94.7335 24.323C95.0195 24.2103 95.2838 24.037 95.5265 23.803L96.6055 24.973C95.9468 25.727 94.9848 26.104 93.7195 26.104C92.9308 26.104 92.2332 25.9523 91.6265 25.649C91.0198 25.337 90.5518 24.908 90.2225 24.362C89.8932 23.816 89.7285 23.1963 89.7285 22.503C89.7285 21.8183 89.8888 21.203 90.2095 20.657C90.5388 20.1023 90.9852 19.6733 91.5485 19.37C92.1205 19.058 92.7575 18.902 93.4595 18.902C94.1442 18.902 94.7638 19.0493 95.3185 19.344C95.8732 19.6387 96.3065 20.0633 96.6185 20.618C96.9392 21.164 97.0995 21.801 97.0995 22.529ZM93.4725 20.436C93.0132 20.436 92.6275 20.566 92.3155 20.826C92.0035 21.086 91.8128 21.4413 91.7435 21.892H95.1885C95.1192 21.45 94.9285 21.099 94.6165 20.839C94.3045 20.5703 93.9232 20.436 93.4725 20.436Z" fill="white"/>
<path d="M23.5638 19.8612C23.1508 20.7772 22.9518 21.1862 22.4198 21.9962C21.6778 23.1262 20.6298 24.5342 19.3328 24.5462C18.1808 24.5562 17.8848 23.7962 16.3198 23.8052C14.7558 23.8132 14.4298 24.5602 13.2768 24.5492C11.9798 24.5372 10.9868 23.2662 10.2438 22.1352C8.16682 18.9752 7.94982 15.2652 9.23082 13.2922C10.1408 11.8912 11.5778 11.0712 12.9278 11.0712C14.3028 11.0712 15.1678 11.8252 16.3038 11.8252C17.4068 11.8252 18.0788 11.0692 19.6688 11.0692C20.8688 11.0692 22.1428 11.7242 23.0498 12.8542C20.0778 14.4832 20.5598 18.7272 23.5638 19.8612ZM18.4628 9.80722C19.0398 9.06522 19.4788 8.01922 19.3198 6.94922C18.3758 7.01422 17.2728 7.61422 16.6278 8.39722C16.0438 9.10722 15.5608 10.1602 15.7478 11.1842C16.7778 11.2152 17.8438 10.6002 18.4628 9.80722Z" fill="white"/>
</svg>
