<svg width="50" height="50" viewBox="0 0 50 50" fill="none" xmlns="http://www.w3.org/2000/svg">
<path d="M0 16.7708C0 10.8386 0 7.87254 1.17278 5.61485C2.16106 3.71232 3.71232 2.16106 5.61485 1.17278C7.87254 0 10.8386 0 16.7708 0H33.2292C39.1614 0 42.1275 0 44.3852 1.17278C46.2877 2.16106 47.8389 3.71232 48.8272 5.61485C50 7.87254 50 10.8386 50 16.7708V33.2292C50 39.1614 50 42.1275 48.8272 44.3852C47.8389 46.2877 46.2877 47.8389 44.3852 48.8272C42.1275 50 39.1614 50 33.2292 50H16.7708C10.8386 50 7.87254 50 5.61485 48.8272C3.71232 47.8389 2.16106 46.2877 1.17278 44.3852C0 42.1275 0 39.1614 0 33.2292V16.7708Z" fill="url(#paint0_linear_1978_15280)"/>
<path d="M34.7229 31.9449L35.834 25.0004H29.1673V20.1393C29.1673 18.1949 29.8618 16.6671 32.9173 16.6671H36.1118V10.2782C34.3062 10.0004 32.3618 9.72266 30.5562 9.72266C24.8618 9.72266 20.834 13.1949 20.834 19.4449V25.0004H14.584V31.9449H20.834V50.0004C23.6118 50.0004 26.3895 50.0004 29.1673 50.0004V31.9449H34.7229Z" fill="white"/>
<defs>
<linearGradient id="paint0_linear_1978_15280" x1="25" y1="48.5391" x2="25" y2="0" gradientUnits="userSpaceOnUse">
<stop stop-color="#0062E0"/>
<stop offset="1" stop-color="#19AFFF"/>
</linearGradient>
</defs>
</svg>
