<svg width="118" height="33" viewBox="0 0 118 33" fill="none" xmlns="http://www.w3.org/2000/svg">
<rect width="118" height="33" rx="4" fill="black"/>
<path d="M33.789 13.054C33.309 13.054 32.865 12.976 32.457 12.82C32.055 12.658 31.704 12.433 31.404 12.145C31.11 11.857 30.879 11.518 30.711 11.128C30.549 10.738 30.468 10.312 30.468 9.85C30.468 9.388 30.549 8.962 30.711 8.572C30.879 8.182 31.113 7.843 31.413 7.555C31.713 7.267 32.064 7.045 32.466 6.889C32.874 6.727 33.318 6.646 33.798 6.646C34.278 6.646 34.716 6.721 35.112 6.871C35.514 7.021 35.856 7.249 36.138 7.555L35.724 7.978C35.46 7.714 35.169 7.525 34.851 7.411C34.533 7.297 34.191 7.24 33.825 7.24C33.435 7.24 33.075 7.306 32.745 7.438C32.421 7.564 32.136 7.747 31.89 7.987C31.65 8.221 31.461 8.497 31.323 8.815C31.191 9.127 31.125 9.472 31.125 9.85C31.125 10.222 31.191 10.567 31.323 10.885C31.461 11.203 31.65 11.482 31.89 11.722C32.136 11.956 32.421 12.139 32.745 12.271C33.075 12.397 33.432 12.46 33.816 12.46C34.176 12.46 34.515 12.406 34.833 12.298C35.157 12.19 35.454 12.007 35.724 11.749L36.102 12.253C35.802 12.517 35.451 12.718 35.049 12.856C34.647 12.988 34.227 13.054 33.789 13.054ZM35.463 12.172V9.85H36.102V12.253L35.463 12.172ZM38.5809 9.517H41.9109V10.084H38.5809V9.517ZM38.6529 12.424H42.4419V13H37.9869V6.7H42.3069V7.276H38.6529V12.424ZM45.2314 13V7.276H43.0174V6.7H48.1114V7.276H45.8974V13H45.2314ZM51.5309 13V6.7H52.1969V13H51.5309ZM55.4707 13V7.276H53.2567V6.7H58.3507V7.276H56.1367V13H55.4707ZM64.5241 13.054C64.0501 13.054 63.6091 12.976 63.2011 12.82C62.7991 12.658 62.4481 12.433 62.1481 12.145C61.8541 11.851 61.6231 11.512 61.4551 11.128C61.2931 10.738 61.2121 10.312 61.2121 9.85C61.2121 9.388 61.2931 8.965 61.4551 8.581C61.6231 8.191 61.8541 7.852 62.1481 7.564C62.4481 7.27 62.7991 7.045 63.2011 6.889C63.6031 6.727 64.0441 6.646 64.5241 6.646C64.9981 6.646 65.4361 6.727 65.8381 6.889C66.2401 7.045 66.5881 7.267 66.8821 7.555C67.1821 7.843 67.4131 8.182 67.5751 8.572C67.7431 8.962 67.8271 9.388 67.8271 9.85C67.8271 10.312 67.7431 10.738 67.5751 11.128C67.4131 11.518 67.1821 11.857 66.8821 12.145C66.5881 12.433 66.2401 12.658 65.8381 12.82C65.4361 12.976 64.9981 13.054 64.5241 13.054ZM64.5241 12.46C64.9021 12.46 65.2501 12.397 65.5681 12.271C65.8921 12.139 66.1711 11.956 66.4051 11.722C66.6451 11.482 66.8311 11.206 66.9631 10.894C67.0951 10.576 67.1611 10.228 67.1611 9.85C67.1611 9.472 67.0951 9.127 66.9631 8.815C66.8311 8.497 66.6451 8.221 66.4051 7.987C66.1711 7.747 65.8921 7.564 65.5681 7.438C65.2501 7.306 64.9021 7.24 64.5241 7.24C64.1461 7.24 63.7951 7.306 63.4711 7.438C63.1471 7.564 62.8651 7.747 62.6251 7.987C62.3911 8.221 62.2051 8.497 62.0671 8.815C61.9351 9.127 61.8691 9.472 61.8691 9.85C61.8691 10.222 61.9351 10.567 62.0671 10.885C62.2051 11.203 62.3911 11.482 62.6251 11.722C62.8651 11.956 63.1471 12.139 63.4711 12.271C63.7951 12.397 64.1461 12.46 64.5241 12.46ZM69.3199 13V6.7H69.8689L74.2159 12.172H73.9279V6.7H74.5849V13H74.0359L69.6979 7.528H69.9859V13H69.3199Z" fill="white"/>
<path d="M37.228 21.307H39.152V24.999C38.658 25.3717 38.086 25.6577 37.436 25.857C36.786 26.0563 36.1317 26.156 35.473 26.156C34.5283 26.156 33.679 25.9567 32.925 25.558C32.171 25.1507 31.5773 24.5917 31.144 23.881C30.7193 23.1617 30.507 22.3513 30.507 21.45C30.507 20.5487 30.7193 19.7427 31.144 19.032C31.5773 18.3127 32.1753 17.7537 32.938 17.355C33.7007 16.9477 34.5587 16.744 35.512 16.744C36.3093 16.744 37.033 16.8783 37.683 17.147C38.333 17.4157 38.879 17.8057 39.321 18.317L37.969 19.565C37.319 18.8803 36.5347 18.538 35.616 18.538C35.0353 18.538 34.5197 18.6593 34.069 18.902C33.6183 19.1447 33.2673 19.487 33.016 19.929C32.7647 20.371 32.639 20.878 32.639 21.45C32.639 22.0133 32.7647 22.516 33.016 22.958C33.2673 23.4 33.614 23.7467 34.056 23.998C34.5067 24.2407 35.018 24.362 35.59 24.362C36.1967 24.362 36.7427 24.232 37.228 23.972V21.307ZM44.2933 26.104C43.5566 26.104 42.8936 25.9523 42.3043 25.649C41.7236 25.337 41.2686 24.908 40.9393 24.362C40.61 23.816 40.4453 23.1963 40.4453 22.503C40.4453 21.8097 40.61 21.19 40.9393 20.644C41.2686 20.098 41.7236 19.6733 42.3043 19.37C42.8936 19.058 43.5566 18.902 44.2933 18.902C45.03 18.902 45.6886 19.058 46.2693 19.37C46.85 19.6733 47.305 20.098 47.6343 20.644C47.9636 21.19 48.1283 21.8097 48.1283 22.503C48.1283 23.1963 47.9636 23.816 47.6343 24.362C47.305 24.908 46.85 25.337 46.2693 25.649C45.6886 25.9523 45.03 26.104 44.2933 26.104ZM44.2933 24.44C44.8133 24.44 45.238 24.2667 45.5673 23.92C45.9053 23.5647 46.0743 23.0923 46.0743 22.503C46.0743 21.9137 45.9053 21.4457 45.5673 21.099C45.238 20.7437 44.8133 20.566 44.2933 20.566C43.7733 20.566 43.3443 20.7437 43.0063 21.099C42.6683 21.4457 42.4993 21.9137 42.4993 22.503C42.4993 23.0923 42.6683 23.5647 43.0063 23.92C43.3443 24.2667 43.7733 24.44 44.2933 24.44ZM52.8119 26.104C52.0752 26.104 51.4122 25.9523 50.8229 25.649C50.2422 25.337 49.7872 24.908 49.4579 24.362C49.1285 23.816 48.9639 23.1963 48.9639 22.503C48.9639 21.8097 49.1285 21.19 49.4579 20.644C49.7872 20.098 50.2422 19.6733 50.8229 19.37C51.4122 19.058 52.0752 18.902 52.8119 18.902C53.5485 18.902 54.2072 19.058 54.7879 19.37C55.3685 19.6733 55.8235 20.098 56.1529 20.644C56.4822 21.19 56.6469 21.8097 56.6469 22.503C56.6469 23.1963 56.4822 23.816 56.1529 24.362C55.8235 24.908 55.3685 25.337 54.7879 25.649C54.2072 25.9523 53.5485 26.104 52.8119 26.104ZM52.8119 24.44C53.3319 24.44 53.7565 24.2667 54.0859 23.92C54.4239 23.5647 54.5929 23.0923 54.5929 22.503C54.5929 21.9137 54.4239 21.4457 54.0859 21.099C53.7565 20.7437 53.3319 20.566 52.8119 20.566C52.2919 20.566 51.8629 20.7437 51.5249 21.099C51.1869 21.4457 51.0179 21.9137 51.0179 22.503C51.0179 23.0923 51.1869 23.5647 51.5249 23.92C51.8629 24.2667 52.2919 24.44 52.8119 24.44ZM65.2174 19.006V24.83C65.2174 26.1127 64.8837 27.066 64.2164 27.69C63.5491 28.314 62.5741 28.626 61.2914 28.626C60.6154 28.626 59.9741 28.5437 59.3674 28.379C58.7607 28.2143 58.2581 27.976 57.8594 27.664L58.6654 26.208C58.9601 26.4507 59.3327 26.6413 59.7834 26.78C60.2341 26.9273 60.6847 27.001 61.1354 27.001C61.8374 27.001 62.3531 26.8407 62.6824 26.52C63.0204 26.208 63.1894 25.7313 63.1894 25.09V24.791C62.6607 25.3717 61.9241 25.662 60.9794 25.662C60.3381 25.662 59.7487 25.5233 59.2114 25.246C58.6827 24.96 58.2624 24.5613 57.9504 24.05C57.6384 23.5387 57.4824 22.9493 57.4824 22.282C57.4824 21.6147 57.6384 21.0253 57.9504 20.514C58.2624 20.0027 58.6827 19.6083 59.2114 19.331C59.7487 19.045 60.3381 18.902 60.9794 18.902C61.9934 18.902 62.7647 19.2357 63.2934 19.903V19.006H65.2174ZM61.3824 23.998C61.9197 23.998 62.3574 23.842 62.6954 23.53C63.0421 23.2093 63.2154 22.7933 63.2154 22.282C63.2154 21.7707 63.0421 21.359 62.6954 21.047C62.3574 20.7263 61.9197 20.566 61.3824 20.566C60.8451 20.566 60.4031 20.7263 60.0564 21.047C59.7097 21.359 59.5364 21.7707 59.5364 22.282C59.5364 22.7933 59.7097 23.2093 60.0564 23.53C60.4031 23.842 60.8451 23.998 61.3824 23.998ZM67.1049 16.354H69.1329V26H67.1049V16.354ZM77.8661 22.529C77.8661 22.555 77.8531 22.737 77.8271 23.075H72.5361C72.6314 23.5083 72.8568 23.8507 73.2121 24.102C73.5674 24.3533 74.0094 24.479 74.5381 24.479C74.9021 24.479 75.2228 24.427 75.5001 24.323C75.7861 24.2103 76.0504 24.037 76.2931 23.803L77.3721 24.973C76.7134 25.727 75.7514 26.104 74.4861 26.104C73.6974 26.104 72.9998 25.9523 72.3931 25.649C71.7864 25.337 71.3184 24.908 70.9891 24.362C70.6598 23.816 70.4951 23.1963 70.4951 22.503C70.4951 21.8183 70.6554 21.203 70.9761 20.657C71.3054 20.1023 71.7518 19.6733 72.3151 19.37C72.8871 19.058 73.5241 18.902 74.2261 18.902C74.9108 18.902 75.5304 19.0493 76.0851 19.344C76.6398 19.6387 77.0731 20.0633 77.3851 20.618C77.7058 21.164 77.8661 21.801 77.8661 22.529ZM74.2391 20.436C73.7798 20.436 73.3941 20.566 73.0821 20.826C72.7701 21.086 72.5794 21.4413 72.5101 21.892H75.9551C75.8858 21.45 75.6951 21.099 75.3831 20.839C75.0711 20.5703 74.6898 20.436 74.2391 20.436ZM86.9799 16.9C87.7859 16.9 88.4836 17.0343 89.0729 17.303C89.6709 17.5717 90.1302 17.953 90.4509 18.447C90.7716 18.941 90.9319 19.526 90.9319 20.202C90.9319 20.8693 90.7716 21.4543 90.4509 21.957C90.1302 22.451 89.6709 22.8323 89.0729 23.101C88.4836 23.361 87.7859 23.491 86.9799 23.491H85.1469V26H83.0409V16.9H86.9799ZM86.8629 21.775C87.4956 21.775 87.9766 21.6407 88.3059 21.372C88.6352 21.0947 88.7999 20.7047 88.7999 20.202C88.7999 19.6907 88.6352 19.3007 88.3059 19.032C87.9766 18.7547 87.4956 18.616 86.8629 18.616H85.1469V21.775H86.8629ZM92.4194 16.354H94.4474V26H92.4194V16.354ZM99.1506 18.902C100.234 18.902 101.066 19.162 101.647 19.682C102.227 20.1933 102.518 20.969 102.518 22.009V26H100.62V25.129C100.238 25.779 99.5276 26.104 98.4876 26.104C97.9502 26.104 97.4822 26.013 97.0836 25.831C96.6936 25.649 96.3946 25.3977 96.1866 25.077C95.9786 24.7563 95.8746 24.3923 95.8746 23.985C95.8746 23.335 96.1172 22.8237 96.6026 22.451C97.0966 22.0783 97.8549 21.892 98.8776 21.892H100.49C100.49 21.45 100.355 21.112 100.087 20.878C99.8179 20.6353 99.4149 20.514 98.8776 20.514C98.5049 20.514 98.1366 20.5747 97.7726 20.696C97.4172 20.8087 97.1139 20.9647 96.8626 21.164L96.1346 19.747C96.5159 19.4783 96.9709 19.2703 97.4996 19.123C98.0369 18.9757 98.5872 18.902 99.1506 18.902ZM98.9946 24.739C99.3412 24.739 99.6489 24.661 99.9176 24.505C100.186 24.3403 100.377 24.102 100.49 23.79V23.075H99.0986C98.2666 23.075 97.8506 23.348 97.8506 23.894C97.8506 24.154 97.9502 24.362 98.1496 24.518C98.3576 24.6653 98.6392 24.739 98.9946 24.739ZM111.168 19.006L108.009 26.429C107.688 27.235 107.29 27.8027 106.813 28.132C106.345 28.4613 105.777 28.626 105.11 28.626C104.746 28.626 104.386 28.5697 104.031 28.457C103.676 28.3443 103.385 28.1883 103.16 27.989L103.901 26.546C104.057 26.6847 104.235 26.793 104.434 26.871C104.642 26.949 104.846 26.988 105.045 26.988C105.322 26.988 105.548 26.9187 105.721 26.78C105.894 26.65 106.05 26.429 106.189 26.117L106.215 26.052L103.186 19.006H105.279L107.242 23.751L109.218 19.006H111.168Z" fill="white"/>
<path d="M17.2239 13.486L7.71305 8.05016C7.59354 7.98076 7.44318 7.98462 7.32753 8.05401C7.20801 8.12341 7.13477 8.24677 7.13477 8.38556C7.13477 8.38556 7.13862 8.88674 7.14248 9.71176L14.0703 16.6396L17.2239 13.486Z" fill="url(#paint0_linear_1978_15256)"/>
<path d="M7.14258 9.71094C7.15414 12.6872 7.18884 19.9118 7.20426 23.5088L14.0743 16.6388L7.14258 9.71094Z" fill="url(#paint1_linear_1978_15256)"/>
<path d="M22.6674 16.5955L17.2238 13.4844L14.0664 16.6379L17.6286 20.2002L22.6712 17.2625C22.7908 17.1931 22.864 17.0659 22.864 16.9309C22.864 16.7921 22.7869 16.6649 22.6674 16.5955Z" fill="url(#paint2_linear_1978_15256)"/>
<path d="M7.20117 23.5107C7.20888 24.7945 7.21274 25.6156 7.21274 25.6156C7.21274 25.7544 7.28599 25.8816 7.4055 25.9472C7.52501 26.0166 7.67151 26.0166 7.79102 25.9472L17.6334 20.2068L14.0712 16.6445L7.20117 23.5107Z" fill="url(#paint3_linear_1978_15256)"/>
<defs>
<linearGradient id="paint0_linear_1978_15256" x1="7.13477" y1="12.3215" x2="17.2256" y2="12.3215" gradientUnits="userSpaceOnUse">
<stop stop-color="#63BE6B"/>
<stop offset="0.506" stop-color="#5BBC6A"/>
<stop offset="1" stop-color="#4AB96A"/>
</linearGradient>
<linearGradient id="paint1_linear_1978_15256" x1="7.14073" y1="16.6115" x2="14.0702" y2="16.6115" gradientUnits="userSpaceOnUse">
<stop stop-color="#3EC6F2"/>
<stop offset="1" stop-color="#45AFE3"/>
</linearGradient>
<linearGradient id="paint2_linear_1978_15256" x1="14.0701" y1="16.8447" x2="22.8631" y2="16.8447" gradientUnits="userSpaceOnUse">
<stop stop-color="#FAA51A"/>
<stop offset="0.387" stop-color="#FAB716"/>
<stop offset="0.741" stop-color="#FAC412"/>
<stop offset="1" stop-color="#FAC80F"/>
</linearGradient>
<linearGradient id="paint3_linear_1978_15256" x1="7.20287" y1="21.3217" x2="17.6332" y2="21.3217" gradientUnits="userSpaceOnUse">
<stop stop-color="#EC3B50"/>
<stop offset="1" stop-color="#E7515B"/>
</linearGradient>
</defs>
</svg>
