<svg width="51" height="51" viewBox="0 0 51 51" fill="none" xmlns="http://www.w3.org/2000/svg">
<path d="M0 17.1063C0 11.0554 0 8.02999 1.19623 5.72715C2.20428 3.78656 3.78656 2.20428 5.72715 1.19623C8.02999 0 11.0554 0 17.1063 0H33.8937C39.9446 0 42.97 0 45.2729 1.19623C47.2134 2.20428 48.7957 3.78656 49.8038 5.72715C51 8.02999 51 11.0554 51 17.1063V33.8937C51 39.9446 51 42.97 49.8038 45.2729C48.7957 47.2134 47.2134 48.7957 45.2729 49.8038C42.97 51 39.9446 51 33.8937 51H17.1063C11.0554 51 8.02999 51 5.72715 49.8038C3.78656 48.7957 2.20428 47.2134 1.19623 45.2729C0 42.97 0 39.9446 0 33.8937V17.1063Z" fill="#1265BF"/>
<path d="M11.4477 15.8368C13.8911 15.8368 15.8719 13.856 15.8719 11.4125C15.8719 8.96908 13.8911 6.98828 11.4477 6.98828C9.00424 6.98828 7.02344 8.96908 7.02344 11.4125C7.02344 13.856 9.00424 15.8368 11.4477 15.8368Z" fill="white"/>
<path d="M19.9238 19.1064H27.2562V22.4654C27.2562 22.4654 29.2459 18.4859 34.6597 18.4859C39.4891 18.4859 43.4897 20.865 43.4897 28.1165V43.408H35.8912V29.9694C35.8912 25.6917 33.6074 25.2212 31.8672 25.2212C28.2555 25.2212 27.6372 28.3365 27.6372 30.5274V43.408H19.9238V19.1064Z" fill="white"/>
<path d="M7.59096 19.1064H15.3044V43.408H7.59096V19.1064Z" fill="white"/>
</svg>
