<svg width="631" height="472" viewBox="0 0 631 472" fill="none" xmlns="http://www.w3.org/2000/svg">
<g clip-path="url(#clip0_1978_20872)">
<path d="M460.753 448.102H448.198L442.223 399.676H460.753V448.102Z" fill="#9E616A"/>
<path d="M467.379 469.854H458.375L456.768 461.354L452.652 469.854H428.772C427.627 469.854 426.512 469.489 425.59 468.81C424.668 468.132 423.987 467.177 423.647 466.084C423.306 464.991 423.323 463.818 423.697 462.736C424.07 461.654 424.779 460.719 425.721 460.069L444.791 446.899V438.305L464.85 439.502L467.379 469.854Z" fill="#2F2E41"/>
<path d="M535.349 432.255L525.274 439.747L491.582 404.452L506.452 393.395L535.349 432.255Z" fill="#9E616A"/>
<path d="M553.648 445.757L546.423 451.13L540.06 445.268L541.83 454.545L522.667 468.795C521.749 469.478 520.636 469.85 519.491 469.855C518.347 469.861 517.23 469.501 516.305 468.827C515.379 468.154 514.693 467.202 514.347 466.111C514.001 465.02 514.013 463.847 514.38 462.763L521.824 440.815L516.696 433.919L533.506 422.91L553.648 445.757Z" fill="#2F2E41"/>
<path d="M475.373 198.246C475.373 198.246 499.195 218.827 488.204 277.497L474.786 334.984L518.546 407.582L504.593 424.557L447.704 345.978L427.088 297.621L421.304 211.555L475.373 198.246Z" fill="#2F2E41"/>
<path d="M438.445 311.398L437.012 333.588L441.397 428.147L462.029 424.554L465.972 357.229L438.445 311.398Z" fill="#2F2E41"/>
<path d="M173.672 459.487L184.9 459.486L190.241 416.18L173.671 416.18L173.672 459.487Z" fill="#FFB6B6"/>
<path d="M170.809 455.822L173.969 455.822L186.307 450.805L192.92 455.822H192.921C196.658 455.822 200.242 457.306 202.885 459.949C205.527 462.591 207.012 466.175 207.012 469.913V470.37L170.809 470.372L170.809 455.822Z" fill="#2F2E41"/>
<path d="M217.18 452.412L228.131 454.884L242.881 413.818L226.717 410.168L217.18 452.412Z" fill="#FFB6B6"/>
<path d="M215.194 448.207L218.277 448.903L231.418 446.727L236.763 453.077L236.764 453.077C240.409 453.901 243.578 456.138 245.574 459.298C247.569 462.458 248.228 466.281 247.405 469.926L247.304 470.373L211.99 462.399L215.194 448.207Z" fill="#2F2E41"/>
<path d="M159.452 194.73C154.188 210.607 154.744 227.84 160.717 246.337L163.27 350.475C163.27 350.475 159.466 418.767 171.742 442.799H189.544L198.359 344.239L199.466 278.084L237.633 333.896L213.323 441.187L235.234 443.146L274.683 326.71L226.011 213.747L159.452 194.73Z" fill="#2F2E41"/>
<path d="M364.756 149.51C378.374 137.239 398.628 131.069 415.617 137.95C398.19 147.625 384.746 163.154 377.665 181.787C374.961 188.983 372.702 197.269 366.049 201.121C361.91 203.519 356.76 203.636 352.119 202.479C347.477 201.321 343.223 199.001 339.027 196.704L337.833 196.678C343.193 179.148 351.139 161.78 364.756 149.51Z" fill="#E6E6E6"/>
<path d="M415.521 138.324C400.474 140.268 386.422 146.904 375.361 157.29C372.941 159.483 370.881 162.045 369.257 164.879C367.765 167.692 367.054 170.853 367.197 174.034C367.27 177.002 367.689 180.03 367.04 182.964C366.685 184.462 366.018 185.867 365.082 187.088C364.146 188.309 362.963 189.319 361.609 190.051C358.284 191.962 354.471 192.565 350.721 193.024C346.558 193.534 342.226 193.999 338.622 196.334C338.185 196.617 337.772 195.923 338.208 195.64C344.478 191.577 352.412 193.056 359.154 190.344C362.3 189.079 365.083 186.858 366.069 183.5C366.93 180.564 366.501 177.441 366.4 174.436C366.216 171.335 366.793 168.236 368.082 165.41C369.556 162.502 371.513 159.865 373.872 157.614C379.1 152.46 385.106 148.161 391.669 144.873C399.14 141.079 407.204 138.59 415.513 137.516C416.028 137.449 416.032 138.258 415.521 138.324H415.521Z" fill="white"/>
<path d="M378.73 153.732C377.24 151.64 376.541 149.086 376.76 146.527C376.979 143.967 378.1 141.568 379.924 139.759C380.294 139.395 380.879 139.953 380.508 140.318C378.806 142 377.762 144.234 377.563 146.618C377.364 149.002 378.024 151.378 379.424 153.318C379.727 153.74 379.032 154.152 378.73 153.732V153.732Z" fill="white"/>
<path d="M366.967 172.533C372.138 173.449 377.464 172.383 381.884 169.546C382.321 169.265 382.735 169.959 382.298 170.24C377.693 173.183 372.148 174.282 366.769 173.316C366.257 173.224 366.457 172.441 366.967 172.533V172.533Z" fill="white"/>
<path d="M399.206 142.145C399.614 143.075 400.247 143.889 401.047 144.514C401.847 145.139 402.79 145.555 403.791 145.725C404.304 145.811 404.104 146.594 403.593 146.509C402.488 146.315 401.447 145.854 400.562 145.166C399.676 144.477 398.972 143.583 398.512 142.559C398.461 142.467 398.447 142.358 398.473 142.255C398.499 142.152 398.563 142.063 398.652 142.006C398.744 141.951 398.854 141.935 398.958 141.962C399.061 141.988 399.151 142.054 399.206 142.145Z" fill="white"/>
<path d="M434.328 197.123C434.006 197.079 433.684 197.034 433.357 196.995C429.022 196.419 424.648 196.197 420.278 196.33C419.94 196.335 419.597 196.345 419.26 196.36C408.733 196.793 398.379 199.176 388.723 203.389C384.882 205.069 381.174 207.038 377.632 209.281C372.741 212.378 367.684 216.125 362.215 217.388C361.646 217.526 361.069 217.629 360.488 217.696L337.895 198.134C337.866 198.064 337.832 197.998 337.803 197.928L336.865 197.188C337.04 197.06 337.224 196.93 337.398 196.802C337.499 196.727 337.605 196.656 337.706 196.581C337.775 196.533 337.844 196.485 337.904 196.437C337.927 196.421 337.95 196.405 337.968 196.393C338.028 196.346 338.088 196.308 338.143 196.265C339.168 195.539 340.201 194.818 341.24 194.104C341.245 194.099 341.245 194.099 341.254 194.098C349.123 188.579 357.618 184.012 366.562 180.494C366.831 180.393 367.103 180.286 367.382 180.193C371.41 178.696 375.554 177.53 379.772 176.707C382.083 176.264 384.415 175.938 386.759 175.731C392.816 175.207 398.919 175.64 404.842 177.012C416.649 179.75 427.45 186.234 433.847 196.346C434.011 196.604 434.169 196.859 434.328 197.123Z" fill="#E6E6E6"/>
<path d="M434.027 197.366C420.842 189.859 405.627 186.698 390.543 188.331C387.29 188.625 384.103 189.429 381.1 190.716C378.215 192.063 375.744 194.159 373.943 196.784C372.215 199.198 370.726 201.868 368.441 203.82C367.256 204.802 365.878 205.523 364.395 205.934C362.913 206.346 361.36 206.44 359.839 206.209C356.033 205.733 352.626 203.918 349.355 202.028C345.724 199.929 341.985 197.691 337.702 197.385C337.183 197.349 337.27 196.545 337.789 196.582C345.241 197.113 350.686 203.071 357.701 204.965C360.975 205.848 364.535 205.751 367.343 203.663C369.799 201.838 371.336 199.086 373.065 196.626C374.784 194.039 377.111 191.912 379.842 190.432C382.77 188.997 385.92 188.07 389.159 187.692C396.436 186.725 403.82 186.908 411.04 188.235C419.289 189.703 427.226 192.572 434.508 196.717C434.958 196.973 434.475 197.621 434.027 197.366L434.027 197.366Z" fill="white"/>
<path d="M395.369 187.52C395.439 184.952 396.419 182.492 398.135 180.58C399.85 178.668 402.19 177.429 404.735 177.082C405.251 177.014 405.381 177.811 404.865 177.88C402.494 178.198 400.315 179.353 398.721 181.137C397.127 182.921 396.223 185.215 396.172 187.607C396.161 188.127 395.358 188.037 395.369 187.52Z" fill="white"/>
<path d="M374.658 195.448C378.235 199.292 383.13 201.647 388.367 202.044C388.885 202.082 388.798 202.886 388.28 202.847C382.831 202.424 377.743 199.963 374.029 195.954C373.675 195.572 374.307 195.067 374.658 195.448Z" fill="white"/>
<path d="M418.7 190.595C418.466 191.583 418.481 192.613 418.743 193.594C419.006 194.575 419.508 195.475 420.205 196.214C420.563 196.591 419.932 197.095 419.576 196.72C418.81 195.9 418.256 194.906 417.964 193.823C417.671 192.74 417.648 191.602 417.896 190.508C417.911 190.403 417.965 190.307 418.048 190.241C418.131 190.174 418.236 190.142 418.341 190.15C418.448 190.162 418.545 190.215 418.612 190.299C418.679 190.382 418.711 190.488 418.7 190.595Z" fill="white"/>
<path d="M37.5023 458.702C36.4418 462.681 33.6551 465.994 30.2905 468.408C29.742 468.803 29.1788 469.169 28.6083 469.512C28.4327 469.615 28.2572 469.725 28.0743 469.82C27.8768 469.937 27.6794 470.046 27.4819 470.149H11.6612C11.376 469.571 11.098 468.986 10.8201 468.408C4.0398 454.16 -0.721755 438.785 0.090123 423.126C0.412224 417.052 1.68832 411.066 3.87157 405.389C8.21622 394.074 16.1448 384.28 27.0503 379.35C27.321 379.226 27.6062 379.101 27.8842 378.984C27.7964 379.299 27.7086 379.606 27.6208 379.921C26.4509 384.135 25.6241 388.438 25.1486 392.786C25.1047 393.123 25.0682 393.459 25.0389 393.803C23.9998 404.29 24.9225 414.878 27.7598 425.027C27.7671 425.049 27.7744 425.079 27.7818 425.101C28.4035 427.346 29.1252 429.557 29.9468 431.735C30.5904 433.453 31.2853 435.15 32.0459 436.818C35.2203 443.818 39.4771 451.278 37.5023 458.702Z" fill="#E6E6E6"/>
<path d="M28.0799 379.314C27.9263 379.519 27.7726 379.716 27.6191 379.921C24.4065 384.179 21.6786 388.781 19.4857 393.643C19.3686 393.884 19.2589 394.125 19.1638 394.374C16.1591 401.163 14.2295 408.378 13.4441 415.761C13.4356 415.812 13.4307 415.863 13.4295 415.914C13.2466 417.641 13.1369 419.381 13.093 421.122C12.9304 424.385 13.2834 427.653 14.139 430.806C14.9191 433.381 16.2862 435.739 18.1325 437.696C18.3154 437.894 18.4982 438.091 18.6957 438.281C18.842 438.435 19.0029 438.588 19.1565 438.735C20.634 440.146 22.2504 441.456 23.6401 442.97C24.2771 443.649 24.8523 444.383 25.359 445.164C26.1676 446.473 26.6899 447.938 26.8916 449.464C27.0933 450.989 26.9698 452.54 26.5293 454.014C25.5345 457.715 23.2598 460.838 20.9339 463.815C19.7709 465.307 18.5714 466.814 17.5328 468.409C17.1525 468.979 16.8013 469.557 16.4796 470.149H15.558C15.8652 469.557 16.2016 468.979 16.5673 468.409C19.237 464.203 23.0331 460.59 25.0006 455.96C26.3318 452.837 26.7341 449.296 25.0518 446.232C24.5588 445.341 23.9622 444.511 23.2745 443.76C21.936 442.246 20.3342 440.951 18.8786 439.583C18.5129 439.239 18.1545 438.888 17.8107 438.523C15.9882 436.671 14.5818 434.452 13.6855 432.013C12.6705 428.916 12.1907 425.668 12.2666 422.409C12.2666 420.332 12.3763 418.24 12.5811 416.163C12.603 415.9 12.6323 415.629 12.6615 415.358C14.1573 402.287 19.1249 389.854 27.0486 379.351C27.1949 379.146 27.3485 378.948 27.5021 378.751C27.8166 378.341 28.3944 378.912 28.0799 379.314Z" fill="white"/>
<path d="M12.9581 416.233C10.4247 415.807 8.125 414.495 6.46975 412.531C4.81451 410.566 3.9115 408.077 3.92196 405.508C3.92337 405.404 3.96537 405.303 4.03913 405.229C4.11289 405.155 4.21265 405.112 4.31739 405.109C4.42212 405.107 4.52366 405.146 4.6006 405.217C4.67754 405.288 4.72388 405.386 4.72986 405.491C4.7157 407.883 5.55708 410.201 7.10218 412.027C8.64728 413.854 10.7943 415.067 13.1557 415.45C13.6688 415.533 13.4682 416.316 12.9581 416.233V416.233Z" fill="white"/>
<path d="M17.931 437.843C22.2351 434.834 25.2472 430.314 26.3666 425.183C26.477 424.675 27.2602 424.873 27.1499 425.381C25.9751 430.718 22.831 435.415 18.3451 438.536C17.9174 438.833 17.5055 438.138 17.931 437.843L17.931 437.843Z" fill="white"/>
<path d="M19.2413 393.555C20.1873 393.924 21.21 394.052 22.2177 393.928C23.2254 393.804 24.1866 393.431 25.0148 392.844C25.4386 392.542 25.85 393.237 25.4289 393.538C24.5109 394.182 23.4489 394.592 22.3358 394.732C21.2228 394.871 20.0925 394.736 19.0437 394.338C18.9417 394.309 18.8546 394.242 18.8002 394.151C18.7459 394.06 18.7282 393.951 18.7508 393.848C18.7775 393.744 18.844 393.655 18.9359 393.6C19.0277 393.546 19.1375 393.529 19.2413 393.555Z" fill="white"/>
<path d="M82.9553 407.595C82.6993 407.792 82.4359 407.99 82.1799 408.195C78.7074 410.852 75.4565 413.788 72.4593 416.972C72.2253 417.213 71.9912 417.462 71.7645 417.71L71.7572 417.718C64.6507 425.432 59.0316 434.394 55.1832 444.151L55.1612 444.217C55.1539 444.239 55.1466 444.254 55.1393 444.276C53.6139 448.181 52.3841 452.196 51.4602 456.286C50.5679 460.279 49.8365 464.558 48.4395 468.405C48.2273 468.998 47.9933 469.583 47.7446 470.146H15.2256C15.3353 469.568 15.4523 468.983 15.5694 468.405C17.2236 459.93 19.809 451.664 23.2785 443.756C23.3956 443.493 23.5126 443.23 23.6442 442.966C25.4354 439.059 27.5415 435.304 29.9418 431.739C29.9418 431.738 29.942 431.737 29.9423 431.736C29.9427 431.735 29.9432 431.735 29.9439 431.734C29.9446 431.733 29.9454 431.733 29.9463 431.732C29.9472 431.732 29.9481 431.732 29.9491 431.732C31.2671 429.786 32.683 427.909 34.1914 426.107C38.1031 421.453 42.7239 417.444 47.8836 414.229C47.9128 414.207 47.9494 414.192 47.9787 414.17C58.2478 407.8 70.4187 404.764 82.0556 407.39H82.0629C82.3628 407.456 82.6554 407.522 82.9553 407.595Z" fill="#E6E6E6"/>
<path d="M82.9156 407.983C82.667 408.049 82.4183 408.122 82.1769 408.195C77.0508 409.66 72.103 411.689 67.4241 414.244C67.1901 414.369 66.956 414.5 66.7219 414.632C60.2559 418.241 54.3864 422.827 49.3214 428.229C49.3175 428.233 49.3149 428.238 49.3141 428.244C49.2556 428.302 49.1898 428.368 49.1386 428.427C47.9683 429.685 46.8419 430.994 45.774 432.34C43.6852 434.849 42.002 437.67 40.7857 440.7C39.8563 443.225 39.5283 445.932 39.8276 448.606C39.8495 448.877 39.8861 449.14 39.9226 449.411C39.9519 449.623 39.9812 449.835 40.0177 450.055C40.5005 452.988 41.3343 455.928 41.1002 458.92C40.9578 460.452 40.4925 461.938 39.7348 463.278C38.9772 464.618 37.9444 465.782 36.7044 466.694C35.8615 467.346 34.9605 467.919 34.0128 468.406C32.6578 469.105 31.2459 469.687 29.7925 470.147H26.918C27.3056 470.037 27.686 469.927 28.0736 469.818C29.4492 469.43 30.8 468.958 32.1184 468.406C32.8715 468.091 33.6044 467.73 34.3126 467.324C37.253 465.634 39.7033 463.045 40.2152 459.585C40.6614 456.557 39.7983 453.529 39.2863 450.567C39.1985 450.055 39.1181 449.55 39.0742 449.045C38.725 446.48 38.9371 443.87 39.6959 441.395C40.7483 438.307 42.3217 435.423 44.3478 432.866C45.6011 431.202 46.9389 429.603 48.356 428.075C48.5315 427.878 48.7143 427.68 48.9045 427.483C54.0761 422.043 60.0473 417.423 66.6122 413.783H66.6196C71.5009 411.066 76.6795 408.921 82.0526 407.391H82.0599C82.3012 407.318 82.5499 407.245 82.7913 407.179C83.296 407.047 83.413 407.844 82.9156 407.983Z" fill="white"/>
<path d="M48.6158 428.354C46.8492 426.489 45.8031 424.057 45.6643 421.492C45.5254 418.927 46.303 416.396 47.858 414.351C48.174 413.938 48.8301 414.41 48.5137 414.823C47.0621 416.725 46.3381 419.082 46.4723 421.471C46.6064 423.859 47.5899 426.121 49.2452 427.848C49.6045 428.224 48.973 428.728 48.6158 428.354H48.6158Z" fill="white"/>
<path d="M39.5752 448.603C44.8232 448.792 49.9497 446.997 53.9325 443.574C54.3268 443.235 54.8328 443.864 54.4389 444.203C50.2877 447.757 44.949 449.615 39.4883 449.406C38.9678 449.386 39.0576 448.583 39.5752 448.603Z" fill="white"/>
<path d="M67.2857 414.033C67.8189 414.897 68.5583 415.615 69.4376 416.123C70.3169 416.63 71.3085 416.912 72.3234 416.941C72.8439 416.955 72.7535 417.758 72.2364 417.744C71.1153 417.706 70.0206 417.394 69.0478 416.836C68.0751 416.277 67.254 415.488 66.6563 414.539C66.5925 414.454 66.5633 414.349 66.5747 414.243C66.5861 414.138 66.6373 414.04 66.7178 413.971C66.8014 413.905 66.9081 413.874 67.0144 413.885C67.1207 413.897 67.2182 413.95 67.2857 414.033Z" fill="white"/>
<path d="M333.81 126.631C333.059 127.618 332.101 128.429 331.003 129.006C329.906 129.583 328.694 129.913 327.456 129.971C326.217 130.029 324.98 129.816 323.833 129.344C322.685 128.873 321.655 128.156 320.815 127.244L293.167 139.268L295.86 123.834L321.702 114.781C323.329 113.472 325.379 112.804 327.465 112.904C329.55 113.005 331.527 113.868 333.019 115.328C334.512 116.789 335.417 118.746 335.562 120.829C335.708 122.913 335.085 124.977 333.81 126.631Z" fill="#FFB8B8"/>
<path d="M315.358 131.45L251.141 160.054L251.004 160.005L177.812 133.923C172.361 131.074 168.204 126.249 166.194 120.435C164.184 114.621 164.473 108.259 167.001 102.651C168.402 99.5524 170.444 96.7858 172.991 94.5332C175.539 92.2807 178.534 90.5932 181.781 89.5819C185.028 88.5705 188.452 88.2582 191.828 88.6656C195.204 89.073 198.455 90.1908 201.368 91.9453L255.836 124.756L308.653 117.911L315.358 131.45Z" fill="#E6E6E6"/>
<path d="M630.997 470.741C630.997 470.856 630.975 470.969 630.932 471.075C630.888 471.181 630.824 471.277 630.743 471.358C630.662 471.439 630.566 471.503 630.46 471.546C630.354 471.59 630.241 471.612 630.127 471.612H0.891867C0.661025 471.612 0.439645 471.52 0.276415 471.357C0.113185 471.194 0.0214844 470.972 0.0214844 470.741C0.0214844 470.511 0.113185 470.289 0.276415 470.126C0.439645 469.963 0.661025 469.871 0.891867 469.871H630.127C630.241 469.871 630.354 469.893 630.46 469.937C630.566 469.98 630.662 470.044 630.743 470.125C630.824 470.206 630.888 470.302 630.932 470.408C630.975 470.514 630.997 470.627 630.997 470.741Z" fill="#CCCCCC"/>
<path d="M229.188 217.082L164.452 206.727C162.755 206.183 161.195 205.279 159.879 204.075C158.564 202.872 157.525 201.398 156.833 199.755C156.142 198.111 155.814 196.338 155.872 194.556C155.93 192.775 156.373 191.026 157.171 189.432L160.106 183.56L158.966 121.867C158.829 113.842 160.807 105.923 164.702 98.9052C168.597 91.8878 174.272 86.0199 181.155 81.8919L187.468 78.1173L190.658 70.0156L220.076 70.7332L220.162 81.3588L230.697 98.1583L230.696 98.2279L230.035 189.666L227.132 199.102L231.522 210.078L229.188 217.082Z" fill="#E6E6E6"/>
<path d="M208.063 59.9427C222.825 59.9427 234.792 47.9757 234.792 33.2135C234.792 18.4514 222.825 6.48438 208.063 6.48438C193.301 6.48438 181.334 18.4514 181.334 33.2135C181.334 47.9757 193.301 59.9427 208.063 59.9427Z" fill="#FFB8B8"/>
<path d="M180.227 39.042C179.43 35.6834 179.796 30.9572 180.246 27.5755C181.427 18.7097 186.351 10.2812 193.831 5.28872C195.249 4.21146 196.935 3.54168 198.706 3.35158C200.475 3.27771 202.393 4.22502 202.937 5.91082C203.382 4.79819 204.052 3.78873 204.903 2.94474C205.754 2.10076 206.769 1.44015 207.885 1.00371C210.128 0.144552 212.539 -0.180362 214.929 0.0547255C219.562 0.436557 224.004 2.06538 227.785 4.76832C231.567 7.47126 234.546 11.1475 236.406 15.4069C237.12 17.1029 239.114 10.8383 240.019 12.4408C240.85 14.1065 242.3 15.3807 244.059 15.9907C245.831 16.4852 246.551 23.7879 247.249 22.085C247.79 23.3435 248.004 24.7184 247.871 26.0818C247.737 27.4452 247.261 28.7526 246.487 29.8825C245.712 31.0123 244.664 31.9277 243.44 32.5434C242.217 33.1591 240.857 33.4552 239.488 33.404C237.684 33.3365 235.959 32.6729 234.176 32.3873C227.802 31.3659 221.04 35.9882 219.677 42.2985C219.189 40.4736 218.41 38.7395 217.369 37.1632C216.841 36.3791 216.133 35.7326 215.304 35.2773C214.476 34.822 213.55 34.5712 212.605 34.5457C210.792 34.6135 209.198 35.7992 208.021 37.1809C206.844 38.5626 205.96 40.1746 204.775 41.5489C201.297 45.5812 196.592 54.9849 191.635 54.299C187.723 53.7578 181.315 43.6277 180.227 39.042Z" fill="#2F2E41"/>
<path d="M369.634 156.921C369.821 155.703 369.571 154.457 368.927 153.406C368.284 152.354 367.289 151.565 366.118 151.177L294.137 127.203C293.447 126.972 292.716 126.888 291.992 126.957L273.95 128.663L263.597 129.645L244.493 131.45C243.34 131.561 242.256 132.051 241.411 132.843C240.566 133.636 240.008 134.687 239.824 135.831L230.125 196.42C229.941 197.602 230.166 198.811 230.763 199.848C231.359 200.885 232.291 201.687 233.405 202.123L306.138 230.198C306.479 230.33 306.834 230.426 307.196 230.482C307.722 230.567 308.259 230.571 308.787 230.494L355.785 223.528C356.893 223.368 357.921 222.854 358.714 222.064C359.508 221.273 360.025 220.248 360.19 219.14L369.634 156.921Z" fill="white"/>
<path d="M235.054 197.854L307.787 225.928C307.893 225.97 308.008 225.984 308.121 225.967L355.113 219.003C355.252 218.983 355.381 218.919 355.481 218.82C355.581 218.721 355.645 218.592 355.665 218.453L365.115 156.233C365.136 156.081 365.104 155.927 365.024 155.796C364.944 155.665 364.821 155.566 364.676 155.515L364.192 155.351L292.69 131.547C292.658 131.535 292.624 131.527 292.59 131.522C292.534 131.512 292.478 131.509 292.422 131.514L248.416 135.678L244.924 136.005C244.781 136.021 244.647 136.082 244.542 136.181C244.437 136.28 244.367 136.41 244.343 136.552L234.645 197.139C234.621 197.287 234.649 197.439 234.723 197.569C234.798 197.699 234.915 197.8 235.054 197.854Z" fill="#BFE4A1"/>
<path d="M248.416 135.678L292.421 131.514C292.478 131.509 292.534 131.512 292.59 131.522C292.624 131.527 292.658 131.535 292.69 131.547L364.192 155.351L345.331 157.348L338.273 158.092L318.188 160.214C318.129 160.217 318.07 160.216 318.012 160.212C317.976 160.201 317.94 160.19 317.897 160.179L248.416 135.678Z" fill="#2F2E41"/>
<path d="M233.405 202.127L306.137 230.2C306.479 230.332 306.835 230.425 307.198 230.478C307.725 230.565 308.262 230.572 308.791 230.498L355.782 223.533C356.891 223.372 357.919 222.858 358.713 222.067C359.507 221.276 360.026 220.25 360.192 219.142L369.634 156.922C369.774 156.004 369.668 155.066 369.328 154.203C369.28 154.088 369.232 153.974 369.177 153.865C368.802 153.077 368.232 152.398 367.521 151.892C367.093 151.585 366.62 151.344 366.12 151.178L366.034 151.148L294.142 127.203C293.848 127.109 293.548 127.036 293.244 126.985C292.829 126.926 292.407 126.918 291.99 126.96L273.951 128.661L263.599 129.648L244.492 131.452C243.711 131.525 242.956 131.775 242.285 132.182C242.233 132.207 242.183 132.237 242.137 132.27C242.103 132.292 242.072 132.316 242.042 132.342C241.455 132.742 240.957 133.258 240.576 133.857C240.196 134.456 239.941 135.126 239.828 135.827L230.122 196.42C229.938 197.603 230.164 198.813 230.76 199.85C231.357 200.888 232.29 201.691 233.405 202.127ZM241.115 136.038C241.233 135.312 241.555 134.634 242.044 134.084C242.192 133.907 242.358 133.746 242.538 133.602C243.032 133.203 243.615 132.931 244.238 132.809C244.361 132.784 244.485 132.766 244.61 132.757L276.782 129.717L292.116 128.258C292.22 128.246 292.315 128.248 292.411 128.242C292.643 128.238 292.875 128.255 293.104 128.294C293.315 128.321 293.522 128.371 293.722 128.441L365.7 152.416C365.757 152.436 365.807 152.456 365.863 152.476C366.518 152.719 367.093 153.138 367.526 153.686C367.868 154.105 368.118 154.592 368.259 155.114C368.401 155.637 368.43 156.183 368.346 156.718L358.895 218.945C358.771 219.774 358.384 220.542 357.79 221.135C357.196 221.728 356.428 222.114 355.598 222.237L308.599 229.201C307.926 229.298 307.24 229.219 306.607 228.974L233.874 200.908C233.04 200.579 232.343 199.977 231.896 199.2C231.45 198.423 231.281 197.518 231.417 196.632L241.115 136.038Z" fill="#3F3D56"/>
<path d="M241.885 132.67C241.923 132.56 241.991 132.462 242.081 132.388C242.11 132.364 242.142 132.342 242.175 132.323C242.206 132.311 242.237 132.292 242.267 132.28C242.413 132.222 242.576 132.219 242.724 132.273L244.238 132.807L318.196 158.896L335.505 157.067L345.191 156.046L365.692 153.875L367.526 153.683L367.882 153.644C368.036 153.63 368.189 153.67 368.317 153.757C368.444 153.844 368.536 153.973 368.578 154.122C368.588 154.156 368.595 154.191 368.598 154.226C368.613 154.367 368.582 154.509 368.509 154.631C368.437 154.752 368.327 154.847 368.195 154.901C368.138 154.925 368.077 154.941 368.014 154.949L365.521 155.211L345.332 157.345L338.273 158.089L318.188 160.211C318.129 160.214 318.07 160.213 318.012 160.208C317.976 160.198 317.94 160.187 317.897 160.175L242.538 133.6L242.282 133.509C242.224 133.49 242.169 133.46 242.122 133.42C242.008 133.337 241.923 133.219 241.881 133.084C241.838 132.949 241.839 132.804 241.885 132.67Z" fill="#3F3D56"/>
<path d="M307.396 230.666C307.226 230.639 307.073 230.546 306.972 230.407C306.87 230.268 306.827 230.094 306.853 229.923L317.471 159.463C317.497 159.291 317.59 159.137 317.729 159.034C317.869 158.931 318.043 158.888 318.215 158.914L318.221 158.914C318.391 158.942 318.543 159.035 318.645 159.174C318.747 159.313 318.789 159.487 318.764 159.657L308.146 230.118C308.12 230.29 308.027 230.444 307.888 230.547C307.748 230.65 307.573 230.693 307.402 230.667L307.396 230.666Z" fill="#3F3D56"/>
<path d="M334.309 226.199L327.247 226.944L335.507 157.068C335.507 157.068 344.939 155.36 345.191 156.045C345.346 156.454 334.376 225.75 334.309 226.199Z" fill="#3F3D56"/>
<path d="M242.281 133.508L242.091 165.374L298.502 186.869L318.761 159.657L242.281 133.508Z" fill="#3F3D56"/>
<path d="M367.527 153.683C367.056 153.09 366.421 152.649 365.701 152.413L293.725 128.438C293.523 128.37 293.315 128.32 293.104 128.287C292.875 128.248 292.642 128.23 292.409 128.235L292.526 127.506L293.246 126.984L310.338 114.609L367.419 132.103L367.518 151.889L367.527 153.683Z" fill="#3F3D56"/>
<path d="M245.158 184.665C245.239 184.673 245.319 184.69 245.396 184.715L267.48 191.968C267.757 192.059 267.986 192.256 268.117 192.516C268.249 192.775 268.272 193.077 268.181 193.353C268.09 193.63 267.893 193.859 267.634 193.99C267.374 194.121 267.073 194.144 266.796 194.054L244.712 186.8C244.455 186.716 244.239 186.54 244.104 186.306C243.969 186.073 243.925 185.797 243.98 185.533C244.035 185.269 244.186 185.035 244.403 184.874C244.62 184.714 244.889 184.64 245.158 184.665H245.158Z" fill="white"/>
<path d="M334.261 318.339C339.109 318.339 343.038 314.41 343.038 309.562C343.038 304.715 339.109 300.785 334.261 300.785C329.414 300.785 325.484 304.715 325.484 309.562C325.484 314.41 329.414 318.339 334.261 318.339Z" fill="#F2F2F2"/>
<path d="M110.442 350.523C115.29 350.523 119.219 346.593 119.219 341.746C119.219 336.898 115.29 332.969 110.442 332.969C105.595 332.969 101.665 336.898 101.665 341.746C101.665 346.593 105.595 350.523 110.442 350.523Z" fill="#F2F2F2"/>
<path d="M293.299 60.1518C298.146 60.1518 302.076 56.2222 302.076 51.3747C302.076 46.5273 298.146 42.5977 293.299 42.5977C288.451 42.5977 284.521 46.5273 284.521 51.3747C284.521 56.2222 288.451 60.1518 293.299 60.1518Z" fill="#F2F2F2"/>
<path d="M307.708 197.571C306.571 198.065 305.338 198.304 304.099 198.271C302.859 198.237 301.641 197.932 300.532 197.377C299.423 196.822 298.449 196.031 297.678 195.059C296.908 194.087 296.36 192.958 296.073 191.751L266.076 188.72L275.972 176.574L302.941 181.314C305 180.967 307.115 181.387 308.885 182.495C310.655 183.603 311.958 185.321 312.545 187.325C313.133 189.329 312.965 191.479 312.073 193.367C311.182 195.256 309.629 196.751 307.708 197.571Z" fill="#FFB8B8"/>
<path d="M289.252 192.753L219.249 186.303L219.153 186.193L168.062 127.652C164.7 122.501 163.434 116.26 164.524 110.205C165.613 104.151 168.976 98.7427 173.924 95.087C176.661 93.0695 179.795 91.6545 183.118 90.9353C186.442 90.2162 189.88 90.209 193.207 90.9145C196.533 91.6199 199.673 93.0218 202.418 95.028C205.164 97.0342 207.454 99.5992 209.137 102.554L240.604 157.809L290.023 177.665L289.252 192.753Z" fill="#E6E6E6"/>
<path d="M464.958 80.177C463.219 67.4254 461.039 53.7348 452.045 44.5297C449.191 41.609 445.775 39.2964 442.004 37.7313C438.232 36.1663 434.183 35.3812 430.099 35.4235C426.016 35.4658 421.984 36.3345 418.245 37.9772C414.507 39.62 411.14 42.0028 408.347 44.982C401.8 51.9662 398.909 61.7731 398.644 71.3423C398.38 80.9116 400.511 90.3745 402.875 99.6509C415.387 99.9008 427.806 97.4563 439.29 92.4834C442.161 91.237 444.987 89.828 448.021 89.0557C451.054 88.2836 453.217 90.2267 456.039 91.5816L457.588 88.6153C458.856 90.9753 462.783 90.2758 464.207 88.0066C465.632 85.7375 465.32 82.8315 464.958 80.177Z" fill="#2F2E41"/>
<path d="M415.361 151.349L364.252 152.442C363.468 151.085 362.305 149.986 360.907 149.278C359.509 148.569 357.935 148.283 356.377 148.453C354.819 148.623 353.343 149.242 352.131 150.235C350.918 151.228 350.02 152.552 349.546 154.046C349.072 155.54 349.043 157.14 349.462 158.65C349.88 160.161 350.729 161.517 351.904 162.554C353.08 163.591 354.531 164.264 356.082 164.491C357.633 164.718 359.216 164.489 360.639 163.833C367.418 164.218 420.449 171.745 423.613 166.894C426.824 161.971 443.964 144.596 443.964 144.596L430.789 125.84L415.361 151.349Z" fill="#9E616A"/>
<path d="M427.816 92.7949C441.078 92.7949 451.829 82.044 451.829 68.7822C451.829 55.5204 441.078 44.7695 427.816 44.7695C414.555 44.7695 403.804 55.5204 403.804 68.7822C403.804 82.044 414.555 92.7949 427.816 92.7949Z" fill="#9E616A"/>
<path d="M466.277 114.984C463.448 109.352 462.073 102.394 456.04 100.569C451.966 99.3358 435.489 101.183 431.776 103.265C425.6 106.727 431.197 113.214 427.554 119.284C423.593 125.884 412.829 139.128 408.868 145.727C406.145 150.264 415.317 163.581 413.844 168.663C412.372 173.745 412.301 179.449 414.81 184.109C417.054 188.279 413.807 191.968 416.064 196.131C418.412 200.461 421.293 216.649 419.108 221.064L417.645 225.452C432.161 226.305 444.367 208.963 458.793 207.136C462.376 206.682 466.097 206.089 469.05 204.01C473.399 200.946 475.118 195.387 476.193 190.176C481.365 164.708 477.874 138.241 466.277 114.984Z" fill="#3F3D56"/>
<path d="M488.045 174.45C486.023 168.931 482.363 144.801 482.363 144.801L459.452 144.129L470.653 171.756L440.087 214.546C440.087 214.546 440.143 214.64 440.246 214.808C438.639 214.55 436.992 214.784 435.519 215.477C434.047 216.171 432.818 217.293 431.994 218.697C431.17 220.101 430.789 221.72 430.901 223.344C431.013 224.968 431.612 226.52 432.62 227.798C433.628 229.075 434.999 230.019 436.552 230.505C438.106 230.991 439.77 230.996 441.326 230.521C442.883 230.046 444.26 229.111 445.277 227.841C446.294 226.57 446.904 225.022 447.026 223.399C447.139 223.463 447.27 223.486 447.398 223.464C447.526 223.442 447.642 223.377 447.727 223.278C451.128 219.01 490.067 179.969 488.045 174.45Z" fill="#9E616A"/>
<path d="M490.369 159.206C488.266 150.33 486.147 141.407 482.602 133.002C479.057 124.598 473.981 116.66 466.842 110.983C464.56 109.167 462.008 107.565 459.147 107.001C456.286 106.436 453.062 107.068 451.053 109.181C447.837 112.563 448.805 117.992 449.984 122.506C453.461 135.819 456.939 149.131 460.416 162.443C470.458 161.379 480.5 160.314 490.542 159.25L490.369 159.206Z" fill="#3F3D56"/>
<path d="M457.243 72.1111C456.359 66.3021 455.435 60.4446 453.357 54.9749C451.28 49.5052 447.931 44.3821 443.127 41.2835C435.521 36.3778 425.674 37.324 417.147 40.1459C410.552 42.3282 404.115 45.6452 399.464 50.9777C394.813 56.3103 392.201 63.9193 393.931 70.8919C403.028 68.7428 412.124 66.5936 421.22 64.4445L420.224 65.1481C423.211 66.6374 425.819 68.7876 427.851 71.4354C429.882 74.0832 431.284 77.1591 431.949 80.4295C432.6 83.7397 432.506 87.1531 431.676 90.4228C430.845 93.6924 429.299 96.7366 427.147 99.3351C433.351 97.1344 439.555 94.9337 445.758 92.7331C449.587 91.3747 453.686 89.8096 455.956 86.3255C458.589 82.2859 457.977 76.9318 457.243 72.1111Z" fill="#2F2E41"/>
</g>
<defs>
<clipPath id="clip0_1978_20872">
<rect width="631" height="471.611" fill="white"/>
</clipPath>
</defs>
</svg>
