<svg width="294" height="223" viewBox="0 0 294 223" fill="none" xmlns="http://www.w3.org/2000/svg">
<g clip-path="url(#clip0_1978_28147)">
<path d="M117.644 46.2451H116.571V16.9533C116.571 14.727 116.132 12.5224 115.277 10.4656C114.422 8.40869 113.17 6.53977 111.591 4.96551C110.012 3.39125 108.137 2.14248 106.074 1.2905C104.011 0.438514 101.799 1.88633e-06 99.5662 0H37.3173C32.8072 -8.57147e-06 28.4819 1.78612 25.2928 4.96547C22.1036 8.14482 20.312 12.457 20.312 16.9532V177.65C20.312 179.877 20.7519 182.081 21.6065 184.138C22.461 186.195 23.7136 188.064 25.2927 189.638C26.8718 191.212 28.7465 192.461 30.8096 193.313C32.8728 194.165 35.0841 194.604 37.3172 194.604H99.5661C104.076 194.604 108.401 192.817 111.591 189.638C114.78 186.459 116.571 182.147 116.571 177.65V67.0954H117.644V46.2451Z" fill="#3F3D56"/>
<path d="M100.252 4.41016H92.1268C92.5005 5.32348 92.6431 6.3144 92.5422 7.29563C92.4412 8.27686 92.0998 9.21828 91.5479 10.037C90.996 10.8556 90.2507 11.5264 89.3775 11.9903C88.5043 12.4541 87.5301 12.6968 86.5407 12.6968H50.8791C49.8897 12.6968 48.9155 12.4541 48.0424 11.9903C47.1692 11.5264 46.4238 10.8556 45.8719 10.037C45.3201 9.21829 44.9786 8.27687 44.8776 7.29564C44.7767 6.31441 44.9193 5.32348 45.293 4.41016H37.7037C36.036 4.41015 34.3847 4.73763 32.8439 5.37388C31.3032 6.01013 29.9032 6.94269 28.7239 8.11833C27.5447 9.29397 26.6093 10.6897 25.9711 12.2257C25.3329 13.7617 25.0044 15.4081 25.0044 17.0707V177.532C25.0044 179.194 25.3329 180.841 25.9711 182.377C26.6093 183.913 27.5447 185.309 28.7239 186.484C29.9032 187.66 31.3031 188.592 32.8439 189.229C34.3847 189.865 36.036 190.192 37.7037 190.192H100.252C101.92 190.192 103.571 189.865 105.112 189.229C106.653 188.592 108.053 187.66 109.232 186.484C110.411 185.309 111.347 183.913 111.985 182.377C112.623 180.841 112.952 179.194 112.952 177.532V17.0707C112.952 15.4081 112.623 13.7617 111.985 12.2257C111.347 10.6897 110.411 9.29397 109.232 8.11833C108.053 6.94269 106.653 6.01013 105.112 5.37388C103.571 4.73763 101.92 4.41015 100.252 4.41016Z" fill="white"/>
<path d="M137.596 194.632H0.360199C0.264668 194.632 0.17305 194.594 0.1055 194.527C0.0379492 194.46 0 194.368 0 194.273C0 194.178 0.0379492 194.087 0.1055 194.019C0.17305 193.952 0.264668 193.914 0.360199 193.914H137.596C137.692 193.914 137.783 193.952 137.851 194.019C137.918 194.087 137.956 194.178 137.956 194.273C137.956 194.368 137.918 194.46 137.851 194.527C137.783 194.594 137.692 194.632 137.596 194.632Z" fill="#CBCBCB"/>
<path d="M68.978 124.133C85.7771 124.133 99.3954 110.557 99.3954 93.8089C99.3954 77.0611 85.7771 63.4844 68.978 63.4844C52.1789 63.4844 38.5605 77.0611 38.5605 93.8089C38.5605 110.557 52.1789 124.133 68.978 124.133Z" fill="#BFE4A1"/>
<path d="M65.964 105.376C65.2797 105.377 64.6135 105.156 64.0661 104.747L64.0321 104.722L56.8836 99.2698C56.5525 99.0168 56.2747 98.7012 56.0659 98.3411C55.8572 97.981 55.7216 97.5835 55.667 97.1712C55.6124 96.7589 55.6397 96.3398 55.7475 95.9381C55.8553 95.5363 56.0415 95.1596 56.2953 94.8295C56.5491 94.4995 56.8656 94.2225 57.2268 94.0144C57.588 93.8063 57.9868 93.6711 58.4004 93.6167C58.814 93.5622 59.2343 93.5895 59.6373 93.697C60.0403 93.8044 60.4181 93.99 60.7492 94.243L65.3794 97.7829L76.3209 83.5521C76.5746 83.2222 76.891 82.9453 77.2521 82.7373C77.6131 82.5293 78.0117 82.3942 78.4251 82.3398C78.8385 82.2853 79.2587 82.3126 79.6615 82.42C80.0643 82.5275 80.442 82.7129 80.7729 82.9659L80.7739 82.9666L80.706 83.0606L80.7757 82.9666C81.4434 83.4781 81.8802 84.2328 81.9903 85.0651C82.1004 85.8974 81.8748 86.7392 81.3631 87.4059L68.4935 104.137C68.1958 104.522 67.813 104.834 67.3748 105.049C66.9366 105.263 66.4548 105.373 65.9668 105.372L65.964 105.376Z" fill="white"/>
<path d="M250.066 197.612C250.436 197.015 250.872 196.462 251.365 195.962C251.568 195.751 251.783 195.553 252.004 195.361C253.349 194.167 254.988 193.352 256.754 193C258.519 192.648 260.347 192.771 262.049 193.356C263.751 193.941 265.266 194.968 266.438 196.331C267.61 197.693 268.397 199.342 268.718 201.109C270.203 195.632 266.336 190.237 262.448 186.093C258.558 181.95 254.112 177.406 254.135 171.729C254.145 168.571 255.695 165.753 258.035 163.664C258.107 163.601 258.18 163.538 258.253 163.477C261.081 161.06 264.72 159.795 268.443 159.936C275.358 160.306 281.396 164.939 285.59 170.436C292.339 179.279 295.297 191.693 290.572 201.76C286.415 210.614 277.551 215.872 268.504 220.099C267.241 220.689 265.98 221.262 264.722 221.817C264.714 221.819 264.704 221.825 264.696 221.827C264.636 221.853 264.575 221.88 264.518 221.907C264.259 222.021 263.999 222.136 263.741 222.248L263.861 222.326L264.233 222.566C264.104 222.488 263.976 222.413 263.847 222.335C263.809 222.311 263.768 222.289 263.73 222.266C259.286 219.608 254.781 216.796 251.712 212.646C248.528 208.338 247.248 202.167 250.066 197.612Z" fill="#F1F1F1"/>
<path d="M279.712 187.604C280.696 189.836 281.348 192.199 281.648 194.618C281.884 196.775 281.795 198.955 281.385 201.086C280.502 205.465 278.578 209.569 275.774 213.052C273.658 215.696 271.216 218.064 268.504 220.097C267.241 220.688 265.98 221.26 264.722 221.815C264.714 221.817 264.705 221.823 264.696 221.825C264.636 221.852 264.575 221.878 264.518 221.906C264.259 222.02 263.999 222.134 263.742 222.247L263.861 222.325L264.233 222.565C264.104 222.487 263.976 222.411 263.847 222.334C263.809 222.31 263.768 222.288 263.73 222.264C264.708 218.854 264.852 215.26 264.149 211.783C263.447 208.307 261.919 205.048 259.693 202.282C257.456 199.55 254.602 197.384 251.365 195.96C251.569 195.75 251.783 195.552 252.004 195.359C253.251 195.93 254.445 196.609 255.571 197.39C259.601 200.166 262.627 204.163 264.201 208.787C265.607 212.983 265.782 217.491 264.707 221.783C264.93 221.637 265.154 221.488 265.372 221.34C269.511 218.557 273.326 215.215 276.2 211.116C278.678 207.652 280.264 203.634 280.818 199.415C281.369 194.806 280.212 190.274 278.148 186.162C275.869 181.763 272.998 177.695 269.613 174.071C266.213 170.348 262.37 167.053 258.167 164.26C258.073 164.196 258.006 164.099 257.982 163.988C257.957 163.876 257.976 163.76 258.035 163.663C258.08 163.574 258.159 163.506 258.253 163.475C258.301 163.463 258.352 163.462 258.4 163.471C258.449 163.481 258.495 163.502 258.534 163.532C259.053 163.877 259.567 164.225 260.075 164.584C264.307 167.571 268.151 171.071 271.517 175.003C274.77 178.793 277.731 183.004 279.712 187.604Z" fill="white"/>
<path d="M189.12 14.0794C192.687 14.0794 195.579 11.1961 195.579 7.63931C195.579 4.08255 192.687 1.19922 189.12 1.19922C185.552 1.19922 182.66 4.08255 182.66 7.63931C182.66 11.1961 185.552 14.0794 189.12 14.0794Z" fill="#F1F1F1"/>
<path d="M269.444 100.263C271.619 100.263 273.382 98.505 273.382 96.3366C273.382 94.1681 271.619 92.4102 269.444 92.4102C267.269 92.4102 265.505 94.1681 265.505 96.3366C265.505 98.505 267.269 100.263 269.444 100.263Z" fill="#F1F1F1"/>
<path d="M154.18 111.036C156.355 111.036 158.119 109.278 158.119 107.11C158.119 104.942 156.355 103.184 154.18 103.184C152.005 103.184 150.242 104.942 150.242 107.11C150.242 109.278 152.005 111.036 154.18 111.036Z" fill="#F1F1F1"/>
<path d="M156.404 222.999H293.64C293.736 222.999 293.827 222.962 293.895 222.894C293.962 222.827 294 222.736 294 222.64C294 222.545 293.962 222.454 293.895 222.386C293.827 222.319 293.736 222.281 293.64 222.281H156.404C156.309 222.281 156.217 222.319 156.149 222.386C156.082 222.454 156.044 222.545 156.044 222.64C156.044 222.736 156.082 222.827 156.149 222.894C156.217 222.962 156.309 222.999 156.404 222.999Z" fill="#CBCBCB"/>
<path d="M278.495 34.7024C278.675 33.4269 278.38 32.1299 277.665 31.057C276.95 29.9841 275.865 29.21 274.615 28.8813C273.366 28.5525 272.039 28.6921 270.887 29.2735C269.734 29.8549 268.835 30.8377 268.36 32.0357L257.224 44.7637L260.491 53.8621L271.691 38.9899C272.422 39.2233 273.195 39.2941 273.956 39.1973C274.717 39.1005 275.448 38.8385 276.097 38.4298C276.746 38.021 277.296 37.4754 277.711 36.8314C278.125 36.1874 278.393 35.4607 278.495 34.7024Z" fill="#FFB7B7"/>
<path d="M232.333 84.2269L269.3 44.8952L264.314 36.9922L217.948 76.0851L232.333 84.2269Z" fill="#3F3D56"/>
<path d="M224.082 60.3277C231.244 60.3277 237.05 54.5399 237.05 47.4002C237.05 40.2605 231.244 34.4727 224.082 34.4727C216.921 34.4727 211.115 40.2605 211.115 47.4002C211.115 54.5399 216.921 60.3277 224.082 60.3277Z" fill="#2F2E41"/>
<path d="M225.125 40.0975C227.915 37.2765 231.292 35.0997 235.017 33.7202C237.408 32.837 240.011 32.2913 242.511 32.7929C245.011 33.2944 247.375 35.0186 248.073 37.464C248.643 39.4635 248.054 41.6165 247.169 43.4988C246.284 45.3811 245.102 47.1266 244.387 49.0791C243.656 51.0714 243.437 53.214 243.748 55.3124C244.059 57.4107 244.89 59.3985 246.167 61.0951C247.444 62.7917 249.126 64.1435 251.06 65.0278C252.994 65.912 255.119 66.3008 257.242 66.1587C254.786 66.487 252.521 67.6378 250.12 68.2504C247.719 68.8629 244.886 68.8214 243.102 67.1065C241.214 65.2922 241.176 62.3423 241.267 59.7298C241.403 55.8462 241.539 51.9625 241.674 48.0789C241.743 46.0983 241.803 44.0542 241.086 42.2056C240.37 40.357 238.667 38.7383 236.679 38.7551C235.173 38.7678 233.839 39.6777 232.631 40.575C231.423 41.4723 230.144 42.4297 228.643 42.5631C227.143 42.6966 225.429 41.5894 225.542 40.0916L225.125 40.0975Z" fill="#2F2E41"/>
<path d="M174.832 134.202C173.588 134.547 172.259 134.425 171.099 133.858C169.938 133.292 169.027 132.32 168.537 131.129C168.046 129.937 168.012 128.607 168.439 127.392C168.867 126.176 169.727 125.159 170.856 124.534L182.058 111.863L191.533 113.904L178.207 126.917C178.535 127.609 178.706 128.364 178.709 129.129C178.713 129.894 178.548 130.651 178.226 131.345C177.904 132.04 177.433 132.655 176.847 133.149C176.261 133.643 175.573 134.002 174.832 134.202H174.832Z" fill="#FFB7B7"/>
<path d="M211.688 88.8407L183.768 123.781L175.257 119.886L208.075 68.9492L211.688 88.8407Z" fill="#3F3D56"/>
<path d="M189.41 194.346L182.756 194.242L183.556 216.853H189.409L189.41 194.346Z" fill="#FFB7B7"/>
<path d="M190.902 214.95L179.375 214.949H179.375C177.426 214.949 175.558 215.721 174.18 217.094C172.803 218.468 172.029 220.33 172.029 222.272V222.51L190.902 222.511L190.902 214.95Z" fill="#2F2E41"/>
<path d="M233.468 188.352L226.199 193.004L240.74 210.444L245.665 207.291L233.468 188.352Z" fill="#FFB7B7"/>
<path d="M245.889 204.883L236.189 211.091L236.189 211.091C234.55 212.141 233.396 213.796 232.981 215.694C232.566 217.592 232.924 219.576 233.976 221.21L234.105 221.411L249.987 211.246L245.889 204.883Z" fill="#2F2E41"/>
<path d="M236.058 119.307C236.058 119.307 219.907 65.8271 214.716 65.1044C209.526 64.3817 201.163 78.8266 201.163 78.8266C190.32 92.6189 179.139 137.295 179.139 137.295C179.139 137.295 197.778 138.458 211.403 145.685C225.028 152.912 241.108 145.319 241.108 145.319L236.058 119.307Z" fill="#3F3D56"/>
<path opacity="0.1" d="M236.058 119.306C236.058 119.306 219.907 65.8268 214.716 65.1041C209.526 64.3814 203.287 78.9729 203.287 78.9729C197.884 101.237 179.139 137.295 179.139 137.295C179.139 137.295 197.778 138.458 211.403 145.685C225.028 152.912 241.108 145.319 241.108 145.319L236.058 119.306Z" fill="black"/>
<path d="M222.807 103.306V130.179L225.979 169.107L241.828 198.553L234.264 203.94L212.652 175.93L204.104 148.118L190.68 209.685L180.594 208.967L187.599 123.605L200.89 99.5781L222.807 103.306Z" fill="#2F2E41"/>
<path d="M206.523 77.3148C201.48 82.3422 206.163 87.7287 206.163 87.7287L200.399 100.656L223.092 106.761L231.022 71.4334L225.619 65.6878C214.813 65.3287 214.807 65.1055 214.807 65.1055C212.914 66.9526 206.523 77.3148 206.523 77.3148Z" fill="#BFE4A1"/>
<path d="M231.936 67.7736C230.905 67.0151 229.734 66.4681 228.49 66.1641C227.246 65.8602 225.953 65.8054 224.688 66.0028C223.422 66.2003 222.208 66.6462 221.117 67.3147C220.025 67.9831 219.078 68.8608 218.329 69.897C212.624 77.8159 207.349 90.603 214.617 106.551C226.287 132.158 236.443 145.267 240.571 145.265C240.751 145.267 240.931 145.239 241.102 145.182C243.643 144.323 247.317 140.036 247.982 136.258C248.221 134.905 248.164 133.022 246.542 131.729C241.882 128.013 233.518 116.445 230.909 101.218C229.467 92.8047 232.263 85.1407 234.863 80.1931C235.961 78.146 236.282 75.7728 235.768 73.5087C235.253 71.2445 233.937 69.2411 232.061 67.8656L231.936 67.7736Z" fill="#3F3D56"/>
<path d="M224.749 59.0573C229.375 56.5364 231.075 50.7544 228.546 46.1428C226.018 41.5313 220.218 39.8364 215.592 42.3574C210.967 44.8783 209.267 50.6603 211.795 55.2719C214.324 59.8834 220.124 61.5782 224.749 59.0573Z" fill="#FFB7B7"/>
<path d="M206.747 49.9885H220.53L220.672 48.0156L221.378 49.9885H223.501L223.781 46.0784L225.181 49.9885H229.288V49.7947C229.285 47.0726 228.199 44.4628 226.268 42.538C224.337 40.6131 221.72 39.5304 218.989 39.5273H217.046C214.315 39.5304 211.698 40.6131 209.767 42.538C207.836 44.4628 206.75 47.0726 206.747 49.7947V49.9885Z" fill="#2F2E41"/>
<path d="M227.206 57.0805L233.088 55.1778V40.9375H221.978L222.253 41.2113C226.08 45.0216 230.336 58.5403 227.206 57.0805Z" fill="#2F2E41"/>
</g>
<defs>
<clipPath id="clip0_1978_28147">
<rect width="294" height="223" fill="white"/>
</clipPath>
</defs>
</svg>
