<svg width="351" height="277" viewBox="0 0 351 277" fill="none" xmlns="http://www.w3.org/2000/svg">
<g clip-path="url(#clip0_1978_28652)">
<path d="M84.2676 149.902C81.4662 134.909 85.8766 117.852 98.1349 108.777C97.4402 125.349 102.63 141.632 112.785 154.746C116.72 159.79 121.621 164.989 121.469 171.384C121.374 175.363 119.222 179.07 116.386 181.863C113.55 184.656 110.057 186.669 106.605 188.651L106.068 189.487C95.9498 178.074 87.0689 164.895 84.2676 149.902Z" fill="#F0F0F0"/>
<path d="M98.3628 109.007C93.2126 120.533 91.8252 133.389 94.3976 145.749C94.9041 148.419 95.8284 150.993 97.1365 153.376C98.4858 155.656 100.421 157.533 102.741 158.812C104.88 160.048 107.211 161.065 109.013 162.799C109.922 163.701 110.63 164.785 111.091 165.979C111.552 167.173 111.755 168.452 111.687 169.73C111.601 172.92 110.373 175.889 109.072 178.75C107.628 181.927 106.077 185.204 106.171 188.776C106.182 189.209 105.51 189.201 105.498 188.769C105.335 182.555 109.828 177.564 110.829 171.601C111.296 168.818 110.928 165.878 108.972 163.721C107.261 161.835 104.858 160.785 102.681 159.552C100.4 158.337 98.4501 156.583 97.0031 154.441C95.5779 152.133 94.556 149.598 93.981 146.947C92.5914 140.999 92.1457 134.869 92.6602 128.782C93.2089 121.832 94.9425 115.027 97.7859 108.662C97.9621 108.268 98.5378 108.616 98.3628 109.007L98.3628 109.007Z" fill="white"/>
<path d="M93.3296 141.819C91.1973 141.969 89.0812 141.356 87.359 140.09C85.6368 138.824 84.4208 136.987 83.928 134.907C83.8298 134.486 84.4797 134.313 84.5781 134.735C85.0333 136.673 86.1663 138.384 87.7724 139.56C89.3785 140.736 91.3519 141.299 93.3366 141.147C93.768 141.115 93.7585 141.787 93.3296 141.819Z" fill="white"/>
<path d="M101.572 158.328C104.466 155.055 106.021 150.811 105.925 146.442C105.916 146.009 106.588 146.017 106.598 146.449C106.688 150.995 105.062 155.408 102.042 158.808C101.754 159.132 101.285 158.65 101.572 158.328V158.328Z" fill="white"/>
<path d="M93.9939 122.252C94.8311 122.366 95.6833 122.27 96.4743 121.973C97.2652 121.676 97.9699 121.187 98.5253 120.551C98.8091 120.223 99.2776 120.706 98.9956 121.031C98.3788 121.731 97.5998 122.27 96.7266 122.6C95.8535 122.93 94.9129 123.041 93.9869 122.924C93.8987 122.92 93.8152 122.883 93.7534 122.82C93.6916 122.757 93.6562 122.673 93.6543 122.584C93.6557 122.495 93.6921 122.411 93.7557 122.348C93.8193 122.286 93.9049 122.251 93.9939 122.252H93.9939Z" fill="white"/>
<path d="M148.269 121.18C148.097 121.39 147.926 121.599 147.756 121.814C145.466 124.642 143.41 127.65 141.608 130.811C141.465 131.053 141.323 131.301 141.187 131.546C136.926 139.207 134.124 147.593 132.924 156.276C132.449 159.732 132.239 163.219 132.293 166.707C132.369 171.523 132.834 176.74 131.358 181.17C131.209 181.634 131.032 182.088 130.827 182.53L107.133 190.079C107.071 190.069 107.01 190.065 106.947 190.055L106.015 190.4C106 190.22 105.988 190.033 105.972 189.854C105.963 189.75 105.959 189.644 105.949 189.539C105.945 189.469 105.941 189.399 105.932 189.336C105.931 189.313 105.929 189.29 105.93 189.272C105.921 189.209 105.921 189.15 105.914 189.092C105.844 188.049 105.778 187.004 105.724 185.955C105.723 185.95 105.723 185.95 105.726 185.943C105.32 177.956 105.576 169.866 107.052 162.072C107.097 161.837 107.139 161.597 107.195 161.359C107.88 157.85 108.85 154.402 110.097 151.051C110.785 149.218 111.566 147.421 112.436 145.667C114.694 141.139 117.649 136.994 121.194 133.385C128.263 126.191 137.553 121.337 147.508 121.185C147.763 121.181 148.012 121.179 148.269 121.18Z" fill="#F0F0F0"/>
<path d="M148.311 121.497C137.259 127.599 128.411 137.029 123.024 148.446C121.82 150.883 121.009 153.495 120.618 156.185C120.323 158.818 120.738 161.482 121.82 163.9C122.784 166.175 124.033 168.39 124.428 170.86C124.61 172.127 124.523 173.418 124.172 174.649C123.821 175.88 123.214 177.023 122.39 178.003C120.4 180.498 117.633 182.13 114.871 183.631C111.805 185.298 108.594 186.981 106.518 189.889C106.267 190.242 105.734 189.831 105.986 189.479C109.597 184.419 116.189 183.139 120.579 178.981C122.627 177.04 124.103 174.471 123.839 171.571C123.609 169.035 122.323 166.749 121.327 164.454C120.237 162.111 119.737 159.536 119.871 156.955C120.123 154.254 120.832 151.615 121.97 149.152C124.441 143.566 127.776 138.403 131.852 133.853C136.474 128.634 141.955 124.245 148.058 120.874C148.436 120.666 148.686 121.29 148.311 121.497Z" fill="white"/>
<path d="M124.537 144.667C122.744 143.503 121.424 141.739 120.811 139.692C120.198 137.644 120.333 135.445 121.192 133.488C121.367 133.092 121.99 133.346 121.815 133.742C121.011 135.563 120.886 137.611 121.46 139.517C122.035 141.423 123.272 143.06 124.947 144.134C125.311 144.368 124.899 144.899 124.537 144.667H124.537Z" fill="white"/>
<path d="M121.178 162.812C125.46 161.941 129.257 159.488 131.81 155.943C132.063 155.591 132.595 156.002 132.343 156.353C129.678 160.038 125.722 162.582 121.265 163.478C120.84 163.564 120.756 162.896 121.178 162.812V162.812Z" fill="white"/>
<path d="M136.849 129.44C137.449 130.035 138.188 130.472 138.998 130.711C139.808 130.95 140.665 130.984 141.492 130.81C141.915 130.72 141.999 131.387 141.578 131.477C140.664 131.665 139.717 131.626 138.822 131.364C137.926 131.102 137.108 130.624 136.439 129.973C136.371 129.917 136.327 129.837 136.315 129.749C136.304 129.662 136.326 129.573 136.378 129.501C136.433 129.431 136.513 129.385 136.601 129.374C136.689 129.362 136.779 129.386 136.849 129.44V129.44Z" fill="white"/>
<path d="M185.485 39.1951C185.564 39.544 185.616 39.8987 185.64 40.2558L213.419 56.2816L220.171 52.3945L227.369 61.818L216.085 69.861C215.173 70.5108 214.075 70.8473 212.956 70.82C211.837 70.7928 210.757 70.4032 209.878 69.7098L181.233 47.1113C179.94 47.5898 178.532 47.6634 177.196 47.3223C175.861 46.9812 174.661 46.2416 173.756 45.2018C172.851 44.162 172.284 42.8713 172.13 41.5014C171.977 40.1315 172.244 38.7473 172.896 37.5329C173.548 36.3186 174.555 35.3316 175.782 34.7032C177.009 34.0749 178.398 33.835 179.765 34.0154C181.131 34.1959 182.411 34.7881 183.432 35.7134C184.454 36.6387 185.17 37.8531 185.485 39.1952V39.1951Z" fill="#FFB6B6"/>
<path d="M213.802 54.5125C213.89 54.1037 214.066 53.7188 214.316 53.3839C214.567 53.049 214.886 52.7721 215.254 52.5721L228.079 45.5842C229.787 44.2952 231.936 43.7361 234.056 44.0295C236.175 44.3229 238.092 45.445 239.385 47.1495C240.679 48.8541 241.244 51.002 240.956 53.1223C240.668 55.2427 239.551 57.1622 237.849 58.4601L227.57 68.9025C227.277 69.2005 226.923 69.4318 226.532 69.5806C226.141 69.7294 225.723 69.7922 225.306 69.7647C224.888 69.7373 224.482 69.6202 224.114 69.4215C223.746 69.2228 223.425 68.9472 223.173 68.6133L214.323 56.8793C214.071 56.5455 213.894 56.1613 213.804 55.7528C213.714 55.3444 213.714 54.9213 213.802 54.5125Z" fill="#3F3D56"/>
<path d="M236.712 13.8861C238.557 8.00516 242.753 2.61143 248.556 0.62337C254.36 -1.36468 262.858 1.66377 267.221 6.01207C275.202 13.966 277.15 41.2905 271.667 49.9254C270.576 49.8677 266.813 49.825 265.709 49.7836L264.147 44.5792V49.7323C255.531 49.4661 246.562 49.6328 237.587 49.8052C236.783 43.6916 234.866 19.7669 236.712 13.8861Z" fill="#2F2E41"/>
<path d="M234.245 260.733H226.387L222.648 230.422L234.247 230.422L234.245 260.733Z" fill="#FFB6B6"/>
<path d="M303.04 255.847L295.436 257.828L284.173 229.44L295.396 226.516L303.04 255.847Z" fill="#FFB6B6"/>
<path d="M259.734 74.5657L261.515 79.1952L261.159 83.8247L226.311 95.8949L228.04 75.634L231.957 71.0039L259.734 74.5657Z" fill="#FFB6B6"/>
<path d="M248.71 32.9048C255.584 32.9048 261.157 27.3323 261.157 20.4582C261.157 13.5842 255.584 8.01172 248.71 8.01172C241.836 8.01172 236.264 13.5842 236.264 20.4582C236.264 27.3323 241.836 32.9048 248.71 32.9048Z" fill="#FFB7B7"/>
<path d="M240.16 4.24976C242.552 2.79179 245.291 2.00312 248.092 1.9662C250.892 1.92928 253.652 2.64546 256.081 4.03987C258.51 5.43428 260.52 7.45569 261.9 9.89276C263.281 12.3298 263.981 15.093 263.928 17.8934C257.144 19.6275 249.914 20.3528 242.252 18.3111L240.5 14.0246L239.468 18.3142C237.124 19.9631 234.861 19.9601 232.681 18.3053C232.588 15.5128 233.23 12.7449 234.543 10.2784C235.855 7.81186 237.792 5.73304 240.16 4.24976Z" fill="#2F2E41"/>
<path d="M237.761 275.657H232.185L231.19 270.392L228.641 275.657H213.851C213.142 275.657 212.452 275.43 211.881 275.01C211.31 274.59 210.888 273.998 210.677 273.321C210.466 272.645 210.477 271.918 210.708 271.248C210.939 270.578 211.379 269.999 211.962 269.596L223.772 261.44V256.117L236.195 256.859L237.761 275.657Z" fill="#2F2E41"/>
<path d="M310.888 269.221L305.492 270.627L303.201 265.784L302.062 271.521L287.751 275.252C287.065 275.431 286.34 275.386 285.681 275.123C285.023 274.861 284.466 274.394 284.091 273.793C283.716 273.191 283.543 272.485 283.598 271.779C283.652 271.072 283.932 270.401 284.395 269.864L293.766 258.992L292.423 253.842L304.631 251.426L310.888 269.221Z" fill="#2F2E41"/>
<path d="M302.07 236.785L279.036 189.441L271.805 131.819C276.79 122.56 267.531 103.719 267.531 103.719V95.8086L231.664 102.575V102.575C224.327 122.584 220.77 143.781 221.172 165.089L222.617 241.686H222.164C221.412 241.686 220.69 241.985 220.158 242.517C219.626 243.049 219.327 243.77 219.327 244.522C219.327 245.275 219.626 245.996 220.158 246.528C220.69 247.06 221.412 247.359 222.164 247.359H236.347C237.1 247.359 237.821 247.06 238.353 246.528C238.885 245.996 239.184 245.275 239.184 244.522C239.184 243.77 238.885 243.049 238.353 242.517C237.821 241.985 237.1 241.686 236.347 241.686H235.982L246.164 144.241L258.003 192.328L286.614 236.603C285.884 236.659 285.205 236.997 284.718 237.544C284.232 238.091 283.977 238.806 284.006 239.537C284.036 240.269 284.347 240.96 284.876 241.467C285.405 241.973 286.109 242.255 286.841 242.253H301.024C301.684 242.254 302.323 242.024 302.832 241.604C303.34 241.184 303.687 240.6 303.811 239.952C303.934 239.304 303.828 238.633 303.511 238.055C303.193 237.477 302.684 237.027 302.07 236.785H302.07Z" fill="#2F2E41"/>
<path d="M270.78 108.569H270.78C270.662 108.107 270.401 107.693 270.033 107.388C269.666 107.082 269.211 106.901 268.735 106.87C268.262 101.465 265.138 66.7998 265.019 65.7828L265.015 65.7398L264.11 46.4174C264.077 45.7157 263.787 45.0506 263.295 44.5493C262.803 44.048 262.143 43.7455 261.442 43.6997L256.665 43.3874C256.599 43.3852 256.537 43.3576 256.492 43.3105C256.446 43.2633 256.42 43.2003 256.42 43.1348C256.42 42.6072 256.317 42.0847 256.115 41.5973C255.913 41.1099 255.617 40.667 255.244 40.2939C254.871 39.9209 254.428 39.6249 253.94 39.423C253.453 39.2211 252.93 39.1172 252.403 39.1172H238.258C237.342 39.1176 236.458 39.4523 235.771 40.0586C235.084 40.6648 234.642 41.5009 234.528 42.4099C234.522 42.4725 234.492 42.5304 234.445 42.5721C234.398 42.6138 234.337 42.6361 234.274 42.6347L234.272 42.6346C232.665 42.6015 231.099 43.1457 229.859 44.1683C228.618 45.191 227.786 46.6243 227.512 48.2084C225.578 59.4593 221.703 84.9947 223.619 99.1909C224.286 104.133 223.983 111.566 223.73 115.7C223.705 116.1 223.759 116.501 223.889 116.879C224.019 117.258 224.223 117.607 224.488 117.907C223.924 118.07 223.445 118.445 223.152 118.954C222.86 119.463 222.776 120.065 222.919 120.635H222.919C223.066 121.218 223.439 121.72 223.955 122.028C224.472 122.337 225.09 122.428 225.674 122.281L269.134 111.325C269.718 111.178 270.219 110.805 270.528 110.288C270.836 109.771 270.927 109.153 270.78 108.569Z" fill="#3F3D56"/>
<path d="M198.95 189.803C198.942 188.535 198.485 187.31 197.66 186.346C196.834 185.382 195.695 184.741 194.442 184.538L117.389 171.885C116.65 171.762 115.894 171.796 115.169 171.983L97.1109 176.652L86.7499 179.335L67.629 184.278C66.4747 184.577 65.4526 185.252 64.7228 186.195C63.9931 187.138 63.597 188.297 63.5967 189.489V270.23C63.6024 271.461 64.0278 272.653 64.8025 273.61C65.5771 274.566 66.6549 275.23 67.8577 275.491L146.342 274.603C146.71 274.682 147.086 274.721 147.463 274.719C148.012 274.72 148.558 274.637 149.082 274.473L195.712 275.633C196.812 275.29 197.772 274.601 198.45 273.668C199.128 272.736 199.487 271.61 199.475 270.457L198.95 189.803Z" fill="white"/>
<path d="M198.95 189.803C198.942 188.535 198.485 187.31 197.66 186.346C196.834 185.382 195.695 184.741 194.442 184.538L117.389 171.885C116.65 171.762 115.894 171.796 115.169 171.983L97.1109 176.652L86.7499 179.335L67.629 184.278C66.4747 184.577 65.4526 185.252 64.7228 186.195C63.9931 187.138 63.597 188.297 63.5967 189.489V270.23C63.6024 271.461 64.0278 272.653 64.8025 273.61C65.5771 274.566 66.6549 275.23 67.8577 275.491L146.342 274.603C146.71 274.682 147.086 274.721 147.463 274.719C148.012 274.72 148.558 274.637 149.082 274.473L195.712 275.633C196.812 275.29 197.772 274.601 198.45 273.668C199.128 272.736 199.487 271.61 199.475 270.457L198.95 189.803ZM195.308 274.35L148.679 275.459C148.013 275.666 147.306 275.7 146.624 275.558L68.1358 274.177C67.234 273.981 66.4261 273.482 65.8455 272.765C65.265 272.047 64.9463 271.153 64.9423 270.23V189.489C64.9429 188.663 65.1969 187.856 65.6701 187.179C66.1433 186.501 66.8129 185.985 67.5886 185.699C67.7118 185.653 67.8376 185.614 67.9654 185.583L88.1941 180.353L100.156 177.258L115.505 173.288C115.834 173.201 116.174 173.157 116.514 173.158C116.734 173.158 116.953 173.176 117.169 173.212L194.222 185.865C194.842 185.967 195.43 186.212 195.939 186.58C196.449 186.948 196.865 187.43 197.156 187.987C197.447 188.552 197.601 189.177 197.604 189.812L198.129 270.466C198.139 271.331 197.87 272.175 197.362 272.875C196.853 273.575 196.133 274.092 195.308 274.35Z" fill="#CCCCCC"/>
<path d="M197.152 187.988C197.1 188.023 197.042 188.049 196.981 188.065L174.317 194.192L167.262 196.098L147.194 201.521C147.137 201.535 147.079 201.542 147.02 201.543C146.979 201.542 146.939 201.539 146.898 201.534L65.9834 186.782L65.7143 186.732C65.539 186.7 65.3839 186.599 65.2828 186.452C65.1818 186.305 65.143 186.124 65.175 185.948C65.207 185.773 65.3072 185.617 65.4536 185.515C65.6001 185.413 65.7809 185.374 65.9565 185.405L67.5847 185.701L146.993 200.179L164.288 195.506L173.963 192.891L196.277 186.858L196.632 186.764C196.785 186.724 196.947 186.738 197.091 186.805C197.234 186.873 197.35 186.988 197.417 187.132C197.434 187.166 197.447 187.202 197.457 187.239C197.494 187.38 197.484 187.53 197.429 187.665C197.374 187.8 197.277 187.913 197.152 187.988Z" fill="#CCCCCC"/>
<path d="M147.696 274.876C147.327 274.876 147.027 274.579 147.023 276.478L146.351 203.144C146.347 200.503 146.646 200.199 147.017 200.195H147.023C147.392 200.195 147.693 200.492 147.696 203.131L148.369 276.466C148.372 274.568 148.074 274.872 147.702 274.876H147.696Z" fill="#CCCCCC"/>
<path d="M174.507 275.727L167.261 275.804L164.287 195.504L88.4092 180.407C88.3348 180.393 88.2614 180.375 88.1894 180.353C87.6065 180.187 87.0973 179.828 86.7451 179.335L97.1062 176.652L100.152 177.258L172.15 191.579C172.529 191.654 172.887 191.81 173.199 192.036C173.512 192.262 173.772 192.553 173.962 192.889C174.186 193.279 174.503 275.261 174.507 275.727Z" fill="#CCCCCC"/>
<path d="M232.55 42.8284C232.544 41.8722 232.2 40.949 231.578 40.2225C230.956 39.4961 230.097 39.0133 229.153 38.8599L171.082 29.3239C170.525 29.2317 169.955 29.257 169.409 29.3982L155.799 32.9172L147.99 34.9386L133.58 38.6638C132.71 38.8897 131.94 39.398 131.39 40.1089C130.84 40.8197 130.541 41.693 130.541 42.5918V90.1874C130.545 91.1151 130.866 92.0135 131.45 92.7344C132.034 93.4553 132.846 93.9556 133.752 94.1525L192.902 106.738C193.18 106.797 193.463 106.827 193.747 106.826C194.161 106.826 194.573 106.764 194.968 106.64L230.11 95.5419C230.939 95.2831 231.663 94.7638 232.174 94.0611C232.685 93.3584 232.956 92.5097 232.946 91.641L232.55 42.8284Z" fill="white"/>
<path d="M170.43 32.8203C170.387 32.8203 170.345 32.8257 170.304 32.8365L134.475 42.1021C134.367 42.1303 134.27 42.1937 134.202 42.2824C134.133 42.3711 134.096 42.4802 134.096 42.5924V90.1873C134.096 90.3032 134.136 90.4155 134.209 90.5056C134.282 90.5957 134.383 90.6582 134.497 90.6828L193.646 103.268C193.732 103.286 193.821 103.281 193.904 103.255L229.047 92.1577C229.151 92.1254 229.241 92.0605 229.305 91.9727C229.369 91.885 229.402 91.7789 229.401 91.6705L229.007 42.8581C229.006 42.7387 228.963 42.6234 228.886 42.5327C228.808 42.442 228.701 42.3818 228.583 42.3626L170.511 32.8269C170.484 32.8226 170.457 32.8204 170.43 32.8203Z" fill="#DFF1D0"/>
<path d="M232.55 42.8284C232.544 41.8722 232.2 40.949 231.578 40.2225C230.956 39.4961 230.097 39.0133 229.153 38.8599L171.082 29.3239C170.525 29.2317 169.955 29.257 169.409 29.3982L155.799 32.9172L147.99 34.9386L133.58 38.6638C132.71 38.8897 131.94 39.398 131.39 40.1089C130.84 40.8197 130.541 41.693 130.541 42.5918V90.1874C130.545 91.1151 130.866 92.0135 131.45 92.7344C132.034 93.4553 132.846 93.9556 133.752 94.1525L192.902 106.738C193.18 106.797 193.463 106.827 193.747 106.826C194.161 106.826 194.573 106.764 194.968 106.64L230.11 95.5419C230.939 95.2831 231.663 94.7638 232.174 94.0611C232.685 93.3584 232.956 92.5097 232.946 91.641L232.55 42.8284ZM229.806 94.5751L194.663 105.673C194.162 105.829 193.629 105.855 193.115 105.747L133.962 93.1622C133.282 93.014 132.673 92.6385 132.236 92.0977C131.798 91.5569 131.558 90.8831 131.555 90.1874V42.5918C131.556 41.9689 131.747 41.3611 132.104 40.8503C132.46 40.3396 132.965 39.9504 133.55 39.7354C133.642 39.7006 133.737 39.6712 133.833 39.6475L149.079 35.706L158.094 33.3736L169.662 30.3819C169.91 30.3157 170.166 30.2828 170.423 30.2839C170.588 30.2838 170.753 30.2974 170.916 30.3245L228.988 39.8605C229.455 39.9372 229.898 40.1216 230.282 40.3991C230.665 40.6766 230.979 41.0396 231.198 41.4594C231.418 41.885 231.534 42.3564 231.536 42.8352L231.932 91.6478C231.939 92.2994 231.736 92.9361 231.353 93.4634C230.97 93.9907 230.428 94.3805 229.806 94.5751V94.5751Z" fill="#3F3D56"/>
<path d="M231.199 41.4589C231.16 41.4848 231.116 41.5042 231.071 41.5163L213.99 46.1339L208.672 47.5706L193.549 51.6574C193.505 51.668 193.461 51.6737 193.417 51.6743C193.386 51.6738 193.356 51.6715 193.325 51.6676L132.344 40.5495L132.141 40.5124C132.008 40.4876 131.891 40.4116 131.815 40.3008C131.739 40.19 131.71 40.0535 131.734 39.9212C131.758 39.7889 131.834 39.6715 131.944 39.5948C132.054 39.5181 132.191 39.4882 132.323 39.5118L133.55 39.7349L193.396 50.6467L206.431 47.1244L213.723 45.1536L230.54 40.607L230.807 40.536C230.922 40.5056 231.045 40.5167 231.153 40.5673C231.261 40.618 231.348 40.705 231.399 40.8132C231.412 40.839 231.422 40.8662 231.429 40.8943C231.457 41.0006 231.449 41.1131 231.408 41.2149C231.367 41.3167 231.293 41.4023 231.199 41.4589Z" fill="#3F3D56"/>
<path d="M193.924 106.943C193.791 106.943 193.662 106.891 193.567 106.796C193.472 106.702 193.418 106.575 193.417 106.441L192.91 51.1718C192.909 51.0374 192.961 50.9079 193.055 50.812C193.15 50.716 193.278 50.6614 193.413 50.6602H193.417C193.551 50.6602 193.679 50.7129 193.774 50.807C193.869 50.9011 193.923 51.0289 193.924 51.1626L194.431 106.432C194.433 106.566 194.38 106.696 194.286 106.792C194.192 106.887 194.063 106.942 193.929 106.943H193.924Z" fill="#3F3D56"/>
<path d="M213.992 100.221L208.674 101.658L206.433 47.1256L149.247 35.7473C149.191 35.7374 149.136 35.7238 149.082 35.7067C148.642 35.5817 148.259 35.3111 147.993 34.9394L155.802 32.918L158.097 33.3743L212.359 44.1679C212.644 44.2242 212.914 44.3416 213.15 44.5119C213.385 44.6823 213.581 44.9016 213.724 45.1549C213.894 45.449 213.988 99.8696 213.992 100.221Z" fill="#3F3D56"/>
<path d="M211.606 69.1298C211.878 69.3624 212.131 69.6161 212.363 69.8885L244.218 66.1683L247.316 59.0195L258.715 62.2848L254.461 75.4732C254.117 76.5386 253.437 77.4638 252.523 78.1099C251.609 78.7559 250.509 79.088 249.39 79.0562L212.919 78.0194C212.167 79.1749 211.081 80.0742 209.806 80.5976C208.531 81.121 207.127 81.2438 205.78 80.9495C204.433 80.6553 203.208 79.9581 202.267 78.9505C201.326 77.943 200.715 76.6729 200.513 75.3092C200.312 73.9455 200.531 72.5528 201.14 71.3164C201.75 70.08 202.721 69.0584 203.925 68.3876C205.129 67.7168 206.509 67.4285 207.881 67.5611C209.254 67.6936 210.553 68.2408 211.606 69.1298Z" fill="#FFB6B6"/>
<path d="M243.476 64.5186C243.303 64.138 243.214 63.7245 243.215 63.3063C243.216 62.8882 243.307 62.4751 243.483 62.0955L249.603 48.8343C250.204 46.7808 251.595 45.0496 253.471 44.0202C255.347 42.9908 257.554 42.7473 259.609 43.343C261.664 43.9387 263.399 45.3251 264.433 47.198C265.468 49.071 265.717 51.2778 265.127 53.3344L263.112 67.8479C263.054 68.2621 262.908 68.659 262.683 69.0116C262.458 69.3642 262.16 69.6643 261.809 69.8913C261.458 70.1183 261.062 70.267 260.648 70.3271C260.234 70.3873 259.812 70.3576 259.411 70.24L245.307 66.1067C244.905 65.9893 244.534 65.7866 244.218 65.5125C243.902 65.2384 243.649 64.8994 243.476 64.5186Z" fill="#3F3D56"/>
<path d="M350.327 276.32H0.678445C0.499624 276.319 0.328299 276.248 0.202036 276.121C0.0757731 275.995 0.00488281 275.823 0.00488281 275.644C0.00488281 275.465 0.0757731 275.294 0.202036 275.167C0.328299 275.041 0.499624 274.969 0.678445 274.969H350.327C350.507 274.969 350.678 275.04 350.805 275.167C350.932 275.293 351.003 275.465 351.003 275.644C351.003 275.823 350.932 275.995 350.805 276.122C350.678 276.249 350.507 276.32 350.327 276.32Z" fill="#CACACA"/>
<path d="M68.1462 204.54C79.367 204.54 88.4632 195.444 88.4632 184.223C88.4632 173.003 79.367 163.906 68.1462 163.906C56.9254 163.906 47.8291 173.003 47.8291 184.223C47.8291 195.444 56.9254 204.54 68.1462 204.54Z" fill="#BFE4A1"/>
<path d="M65.3729 194.795C65.022 194.795 64.676 194.713 64.3622 194.556C64.0484 194.399 63.7755 194.172 63.5651 193.891L58.0223 186.5C57.6626 186.021 57.5083 185.418 57.593 184.825C57.6778 184.231 57.9948 183.696 58.4744 183.336C58.9539 182.977 59.5566 182.822 60.1499 182.907C60.7433 182.992 61.2787 183.309 61.6383 183.789L65.2645 188.623L74.5782 174.653C74.7424 174.405 74.9539 174.192 75.2006 174.026C75.4473 173.86 75.7244 173.744 76.0159 173.685C76.3074 173.626 76.6077 173.626 76.8994 173.683C77.1912 173.741 77.4688 173.855 77.7162 174.02C77.9637 174.185 78.1761 174.397 78.3414 174.645C78.5067 174.892 78.6215 175.169 78.6794 175.461C78.7373 175.753 78.737 176.053 78.6786 176.344C78.6202 176.636 78.5048 176.913 78.3391 177.16L67.2535 193.789C67.053 194.089 66.7833 194.338 66.467 194.513C66.1507 194.688 65.7971 194.784 65.4358 194.794C65.4148 194.795 65.3939 194.795 65.3729 194.795Z" fill="white"/>
<path d="M154.655 76.3063C154.592 76.3063 154.529 76.2992 154.467 76.2853L136.88 72.3139C136.66 72.264 136.468 72.1288 136.348 71.9381C136.228 71.7473 136.188 71.5166 136.238 71.2966C136.287 71.0766 136.422 70.8853 136.613 70.7647C136.803 70.6441 137.034 70.6041 137.254 70.6534L154.842 74.6248C155.046 74.6709 155.226 74.7907 155.347 74.9612C155.469 75.1317 155.523 75.341 155.5 75.549C155.477 75.7571 155.378 75.9493 155.222 76.089C155.066 76.2287 154.864 76.3061 154.655 76.3063Z" fill="white"/>
<path d="M86.9682 236.148C86.9063 236.161 86.8432 236.167 86.78 236.166L68.7522 235.862C68.5268 235.858 68.3123 235.765 68.1557 235.602C67.9992 235.44 67.9134 235.222 67.9171 234.997C67.9209 234.772 68.0139 234.557 68.1757 234.4C68.3376 234.243 68.5551 234.157 68.7805 234.16L86.8083 234.464C87.0176 234.467 87.2182 234.548 87.3719 234.69C87.5256 234.832 87.6214 235.026 87.6412 235.234C87.661 235.443 87.6033 235.651 87.4792 235.82C87.355 235.988 87.1731 236.105 86.9682 236.148Z" fill="#E6E6E6"/>
<path d="M93.2075 245.793C93.1456 245.805 93.0825 245.811 93.0193 245.81L74.9915 245.507C74.7661 245.503 74.5516 245.409 74.395 245.247C74.2384 245.085 74.1526 244.867 74.1564 244.642C74.1601 244.416 74.2531 244.202 74.415 244.045C74.5768 243.888 74.7943 243.801 75.0197 243.805L93.0476 244.108C93.2569 244.112 93.4575 244.192 93.6112 244.335C93.7648 244.477 93.8607 244.671 93.8805 244.879C93.9003 245.087 93.8426 245.296 93.7184 245.464C93.5943 245.633 93.4124 245.75 93.2075 245.793Z" fill="#E6E6E6"/>
</g>
<defs>
<clipPath id="clip0_1978_28652">
<rect width="351" height="276.479" fill="white"/>
</clipPath>
</defs>
</svg>
