<svg width="480" height="402" viewBox="0 0 480 402" fill="none" xmlns="http://www.w3.org/2000/svg">
<g clip-path="url(#clip0_1978_24518)">
<path d="M401.289 47.3203H16.5327C14.4023 47.3235 12.3599 48.1712 10.8535 49.6777C9.347 51.1842 8.49927 53.2265 8.49609 55.357V56.653C8.49927 58.7834 9.347 60.8257 10.8535 62.3322C12.3599 63.8387 14.4023 64.6864 16.5327 64.6896H401.289C403.42 64.6864 405.462 63.8387 406.969 62.3322C408.475 60.8257 409.323 58.7834 409.326 56.653V55.357C409.323 53.2265 408.475 51.1842 406.969 49.6777C405.462 48.1712 403.42 47.3235 401.289 47.3203Z" fill="#F0F0F0"/>
<path d="M62.9655 59.2131H26.3411C25.5216 59.2119 24.7362 58.8856 24.1571 58.3057C23.5781 57.7258 23.2529 56.9399 23.2529 56.1204C23.2529 55.301 23.5781 54.515 24.1571 53.9351C24.7362 53.3553 25.5216 53.0289 26.3411 53.0277H62.9655C66.9539 52.972 66.9938 59.2693 62.9655 59.2131Z" fill="white"/>
<path d="M172.525 59.2131H135.901C135.081 59.2119 134.296 58.8856 133.717 58.3057C133.138 57.7258 132.813 56.9399 132.812 56.1204C132.813 55.301 133.138 54.515 133.717 53.9351C134.296 53.3553 135.081 53.0289 135.901 53.0277H172.525C176.514 52.972 176.553 59.2693 172.525 59.2131Z" fill="white"/>
<path d="M282.087 59.2131H245.462C244.643 59.2119 243.857 58.8856 243.278 58.3057C242.699 57.7258 242.374 56.9399 242.374 56.1204C242.374 55.301 242.699 54.515 243.278 53.9351C243.857 53.3553 244.643 53.0289 245.462 53.0277H282.087C286.075 52.972 286.115 59.2693 282.087 59.2131Z" fill="white"/>
<path d="M385.967 59.5491H349.343C348.523 59.5491 347.736 59.2232 347.156 58.6432C346.576 58.0632 346.25 57.2766 346.25 56.4564C346.25 55.6361 346.576 54.8495 347.156 54.2695C347.736 53.6895 348.523 53.3636 349.343 53.3636H385.967C389.956 53.308 389.995 59.6053 385.967 59.5491Z" fill="#BFE4A1"/>
<path d="M328.825 47.3203H327.489V64.6896H328.825V47.3203Z" fill="white"/>
<path d="M190.57 304.396H33.543C32.1438 304.395 30.8025 303.838 29.8131 302.849C28.8238 301.859 28.2672 300.518 28.2656 299.119V276.121C28.2672 274.722 28.8238 273.381 29.8131 272.391C30.8025 271.402 32.1438 270.845 33.543 270.844H190.57C191.969 270.845 193.311 271.402 194.3 272.391C195.289 273.381 195.846 274.722 195.848 276.121V299.119C195.846 300.518 195.289 301.859 194.3 302.849C193.311 303.838 191.969 304.395 190.57 304.396Z" fill="#F0F0F0"/>
<path d="M175.312 300.837H37.1025C35.7034 300.835 34.362 300.279 33.3727 299.289C32.3833 298.3 31.8268 296.958 31.8252 295.559V279.684C31.8268 278.284 32.3833 276.943 33.3727 275.954C34.362 274.964 35.7034 274.408 37.1025 274.406H187.01C188.409 274.408 189.75 274.964 190.74 275.954C191.729 276.943 192.285 278.284 192.287 279.684V283.862C192.282 288.362 190.492 292.677 187.31 295.859C184.127 299.042 179.813 300.832 175.312 300.837Z" fill="white"/>
<path d="M127.64 285.984H64.527C64.1661 285.984 63.8199 285.84 63.5646 285.585C63.3094 285.33 63.166 284.984 63.166 284.623C63.166 284.262 63.3094 283.916 63.5646 283.66C63.8199 283.405 64.1661 283.262 64.527 283.262H127.64C128.001 283.262 128.347 283.405 128.602 283.66C128.858 283.916 129.001 284.262 129.001 284.623C129.001 284.984 128.858 285.33 128.602 285.585C128.347 285.84 128.001 285.984 127.64 285.984Z" fill="#E6E6E6"/>
<path d="M159.588 291.55H64.5262C64.3472 291.551 64.1699 291.516 64.0044 291.447C63.8389 291.379 63.6885 291.279 63.5618 291.153C63.4351 291.026 63.3346 290.876 63.266 290.711C63.1974 290.545 63.1621 290.368 63.1621 290.189C63.1621 290.01 63.1974 289.833 63.266 289.668C63.3346 289.502 63.4351 289.352 63.5618 289.226C63.6885 289.099 63.8389 288.999 64.0044 288.931C64.1699 288.863 64.3472 288.828 64.5262 288.828H159.588C159.948 288.829 160.294 288.973 160.548 289.228C160.803 289.483 160.946 289.829 160.946 290.189C160.946 290.55 160.803 290.895 160.548 291.15C160.294 291.406 159.948 291.549 159.588 291.55Z" fill="#E6E6E6"/>
<path d="M200.601 244.53H21.5567C20.128 244.528 18.7583 243.96 17.7481 242.95C16.7379 241.939 16.1696 240.57 16.168 239.141V102.279C16.1696 100.851 16.7379 99.4808 17.7481 98.4706C18.7583 97.4604 20.128 96.8922 21.5567 96.8906H200.601C202.03 96.8922 203.399 97.4604 204.409 98.4706C205.42 99.4808 205.988 100.851 205.99 102.279V239.141C205.988 240.57 205.42 241.939 204.409 242.95C203.399 243.96 202.03 244.528 200.601 244.53Z" fill="white"/>
<path d="M200.6 245.198H21.5558C19.95 245.196 18.4106 244.557 17.2751 243.422C16.1396 242.286 15.5009 240.747 15.499 239.141V102.279C15.5009 100.673 16.1396 99.1339 17.2751 97.9985C18.4106 96.8631 19.9501 96.2244 21.5558 96.2227H200.6C202.206 96.2244 203.745 96.8631 204.881 97.9985C206.016 99.1339 206.655 100.673 206.657 102.279V239.141C206.655 240.747 206.016 242.286 204.881 243.422C203.745 244.557 202.206 245.196 200.6 245.198ZM21.5558 97.5588C20.3043 97.5602 19.1044 98.0579 18.2194 98.9428C17.3344 99.8278 16.8366 101.028 16.8351 102.279V239.141C16.8365 240.393 17.3343 241.592 18.2193 242.478C19.1043 243.363 20.3043 243.86 21.5558 243.862H200.6C201.851 243.86 203.051 243.363 203.936 242.478C204.821 241.592 205.319 240.393 205.32 239.141V102.279C205.319 101.028 204.821 99.8278 203.936 98.9428C203.051 98.0579 201.851 97.5601 200.6 97.5588L21.5558 97.5588Z" fill="#F0F0F0"/>
<path d="M16.582 218.477V239.142C16.584 240.461 17.1088 241.725 18.0414 242.658C18.974 243.59 20.2382 244.115 21.5571 244.117H200.602C201.92 244.115 203.185 243.59 204.117 242.658C205.05 241.725 205.575 240.461 205.577 239.142V218.477H16.582Z" fill="#F0F0F0"/>
<path d="M18.2701 97.7617L17.5498 98.8867L205.217 219.037L205.937 217.912L18.2701 97.7617Z" fill="#F0F0F0"/>
<path d="M205.747 97.7635L18.0791 217.914L18.7994 219.039L206.467 98.8885L205.747 97.7635Z" fill="#F0F0F0"/>
<path d="M364.329 392.672L356.051 392.672L352.113 360.746L364.33 360.747L364.329 392.672Z" fill="#A0616A"/>
<path d="M364.11 389.968L355.278 386.38L355.018 386.273L350.141 389.968C347.465 389.967 344.892 391 342.959 392.851C341.026 394.702 339.882 397.228 339.766 399.902C339.753 400.049 339.753 400.202 339.753 400.356V400.697H366.442V389.968H364.11Z" fill="#2F2E41"/>
<path d="M344.947 384.968L337.139 387.715L322.828 358.905L334.352 354.852L344.947 384.968Z" fill="#A0616A"/>
<path d="M343.842 382.489L334.32 382.036L334.039 382.022L330.665 387.125C328.14 388.013 326.056 389.841 324.847 392.229C323.638 394.617 323.397 397.379 324.175 399.939C324.211 400.082 324.262 400.227 324.313 400.372L324.426 400.694L349.602 391.835L346.041 381.715L343.842 382.489Z" fill="#2F2E41"/>
<path d="M367.255 255.015C374.827 254.722 365.447 315.066 365.447 315.066C365.447 315.066 368.191 368.046 367.609 370.826C367.028 373.607 367.536 381.105 367.536 381.105C366.052 378.405 350.746 380.443 350.746 380.443L348.664 326.748L338.033 283.726L323.294 312.564L337.421 356.83C337.421 356.83 343.142 362.123 342.533 364.215C341.925 366.307 326.94 371.025 324.187 371.131C321.433 371.238 322.676 367.743 322.543 364.301C322.409 360.859 309.452 328.958 304.895 318.104C300.337 307.249 303.88 291.944 306.207 280.823C308.533 269.702 320.772 248.831 320.772 248.831C335.965 231.696 359.682 255.309 367.255 255.015Z" fill="#2F2E41"/>
<path d="M274.971 206.25C275.386 207.043 275.969 207.735 276.68 208.277C277.391 208.82 278.213 209.2 279.087 209.391C279.961 209.582 280.866 209.578 281.738 209.382C282.611 209.185 283.43 208.799 284.137 208.251L302.347 220.132L302.291 208.833L285.007 199.284C284.009 198.156 282.631 197.434 281.136 197.255C279.641 197.075 278.132 197.45 276.895 198.309C275.658 199.168 274.779 200.451 274.424 201.914C274.069 203.378 274.264 204.921 274.971 206.25Z" fill="#A0616A"/>
<path d="M363.322 264.687C344.543 264.688 334.194 260.929 328.699 257.572C321.979 253.468 320.83 249.14 320.784 248.957L320.771 248.905L321.425 240.674L321.711 240.034C323.029 237.083 323.204 233.749 322.201 230.676L322.181 230.613L322.186 230.547L326.577 173.6L342.115 168.51L346.636 163.968L366.763 163.676L369.567 169.361L385.434 175.334L377.639 221.735L373.902 228.176L375.405 235.192L375.395 235.256L370.493 264.516L370.223 264.528C367.805 264.636 365.505 264.689 363.322 264.687Z" fill="#3F3D56"/>
<path d="M314.741 229.161L307.373 224.793L306.912 224.126C305.974 222.777 304.733 221.666 303.288 220.883C301.843 220.1 300.235 219.667 298.592 219.618L298.506 219.616L288.359 213.65L292.565 201.329L308.472 206.028L319.561 178.475C320.17 176.962 321.187 175.647 322.498 174.677C323.81 173.707 325.365 173.12 326.99 172.981C328.616 172.842 330.247 173.157 331.705 173.89C333.162 174.623 334.387 175.746 335.244 177.134C336.122 178.585 336.577 180.252 336.558 181.948V199.977L336.492 200.066L314.741 229.161Z" fill="#3F3D56"/>
<path d="M363.994 254.09C364.151 253.21 364.5 252.374 365.015 251.643C365.531 250.912 366.2 250.303 366.976 249.858C367.752 249.414 368.616 249.145 369.508 249.07C370.399 248.996 371.296 249.118 372.135 249.428L385.934 232.625L389.276 243.418L375.66 257.72C375.046 259.095 373.949 260.197 372.577 260.818C371.205 261.438 369.653 261.534 368.215 261.086C366.777 260.639 365.553 259.68 364.775 258.39C363.997 257.101 363.719 255.571 363.994 254.09Z" fill="#A0616A"/>
<path d="M384.626 251.967L375.463 242.803L381.296 228.59L389.75 217.047C380.742 212.662 373.98 202.273 369.081 193.673L369.025 193.577L370.245 184.021C370.531 181.786 371.426 179.673 372.833 177.913C374.057 176.383 375.629 175.168 377.418 174.369C379.207 173.571 381.162 173.213 383.118 173.325C385.074 173.436 386.975 174.015 388.662 175.012C390.349 176.009 391.772 177.395 392.814 179.055L409.242 215.576L409.057 215.852L395.843 238.378L392.237 240.717L384.626 251.967Z" fill="#3F3D56"/>
<path d="M371.149 144.522C370.545 148.925 368.218 152.909 364.678 155.597C361.139 158.286 356.676 159.459 352.272 158.86C347.868 158.26 343.882 155.937 341.19 152.401C338.497 148.864 337.319 144.403 337.914 139.998L337.946 139.76C338.641 135.414 341.016 131.515 344.56 128.905C348.103 126.295 352.531 125.182 356.887 125.807C361.244 126.431 365.181 128.744 367.848 132.245C370.515 135.746 371.699 140.155 371.144 144.521L371.149 144.522Z" fill="#A0616A"/>
<path d="M366.883 153.158C367.744 151.408 368.629 149.53 368.387 147.595C368.145 145.66 366.247 143.81 364.384 144.385C363.27 144.729 362.428 145.83 361.263 145.886C359.661 145.963 358.742 144.129 358.243 142.604L356.211 136.394C354.261 137.914 351.998 138.985 349.586 139.53C347.173 140.075 344.67 140.081 342.255 139.547C340.369 139.116 338.463 138.275 337.357 136.688C336.25 135.101 336.257 132.639 337.775 131.438C338.519 130.85 339.509 130.626 340.22 129.998C340.661 129.609 340.965 129.087 341.087 128.511C341.209 127.936 341.142 127.336 340.897 126.801C340.651 126.266 340.24 125.824 339.724 125.541C339.208 125.258 338.615 125.149 338.032 125.229L343.147 124.59L341.623 121.833C342.202 122.228 342.858 122.497 343.547 122.623C344.236 122.75 344.944 122.731 345.626 122.568C347.002 122.32 348.298 121.753 349.644 121.375C352.908 120.542 356.354 120.797 359.459 122.101C362.565 123.405 365.16 125.687 366.85 128.6C368.108 128.18 369.465 128.152 370.74 128.52C372.015 128.888 373.148 129.635 373.989 130.662C375.358 132.4 375.731 134.719 375.784 136.931C375.884 141.292 374.933 145.614 373.011 149.53C372.46 150.775 371.669 151.897 370.682 152.834C370.185 153.299 369.593 153.649 368.947 153.861C368.3 154.072 367.615 154.14 366.94 154.058" fill="#2F2E41"/>
<path d="M95.1136 135.906C95.3872 139.812 96.538 143.606 98.4802 147.006C102.574 154.195 109.593 159.4 117.154 162.494C126.599 166.359 137.128 166.478 147.152 165.616C156.463 164.815 165.678 162.96 175.023 162.578C182.25 162.346 189.484 162.519 196.691 163.094C210.675 164.087 224.6 165.928 238.436 168.161C242.183 168.758 245.922 169.4 249.653 170.086C250.006 170.117 250.355 170.182 250.695 170.279C250.763 170.307 250.872 170.285 250.934 170.324C251.046 170.395 250.478 170.145 250.822 170.429C251.302 170.933 251.73 171.484 252.1 172.073L257.21 178.649C258.675 180.535 260.035 182.826 261.929 184.312C263.264 185.344 264.875 185.957 266.559 186.074C268.242 186.192 269.922 185.808 271.388 184.972C272.919 184.004 274.14 182.617 274.905 180.976C276.081 178.82 277.483 176.796 279.088 174.938C285.167 167.847 293.616 163.485 300.683 157.517C304.106 154.745 307.027 151.406 309.32 147.645C311.275 144.241 312.491 140.464 312.888 136.559C313.734 128.628 311.301 120.541 307.208 113.794C302.755 106.546 296.359 100.691 288.747 96.8964C280.194 92.5393 270.731 90.4169 261.244 89.3593C251.172 88.2364 240.983 88.2399 230.862 88.3533C219.504 88.4797 208.166 88.9792 196.849 89.8518C185.516 90.7289 174.228 91.9758 162.984 93.5923C152.196 95.1434 141.275 96.7601 130.715 99.5047C121.386 101.929 112.083 105.719 105.116 112.586C98.9221 118.691 94.614 127.046 95.1136 135.906Z" fill="#DFF1D0"/>
<path d="M147.26 138.428C146.799 138.408 146.347 138.292 145.933 138.088C145.519 137.884 145.151 137.596 144.854 137.243C144.556 136.89 144.335 136.48 144.204 136.037C144.072 135.594 144.034 135.129 144.092 134.671L144.332 132.784C144.377 132.422 144.335 132.054 144.207 131.713C144.079 131.371 143.87 131.065 143.598 130.822L142.181 129.555C141.717 129.141 141.378 128.604 141.202 128.007C141.027 127.41 141.022 126.776 141.189 126.176C141.355 125.576 141.686 125.035 142.144 124.613C142.602 124.192 143.169 123.907 143.781 123.791L145.649 123.436C146.008 123.368 146.344 123.214 146.63 122.987C146.915 122.76 147.141 122.468 147.288 122.134L148.055 120.392C148.306 119.823 148.712 119.335 149.226 118.984C149.74 118.633 150.341 118.432 150.963 118.405C151.585 118.379 152.202 118.526 152.744 118.831C153.286 119.137 153.733 119.587 154.032 120.133L154.946 121.8C155.122 122.121 155.372 122.393 155.677 122.595C155.981 122.797 156.33 122.921 156.693 122.958L158.585 123.149C159.204 123.212 159.793 123.446 160.286 123.827C160.779 124.207 161.156 124.717 161.374 125.3C161.591 125.883 161.642 126.516 161.519 127.126C161.396 127.736 161.105 128.3 160.678 128.753L159.376 130.138C159.125 130.404 158.944 130.726 158.846 131.077C158.748 131.429 158.738 131.799 158.815 132.155L159.217 134.015C159.349 134.623 159.308 135.256 159.098 135.842C158.889 136.428 158.52 136.944 158.033 137.331C157.546 137.718 156.96 137.962 156.342 138.033C155.724 138.105 155.098 138.003 154.535 137.737L152.815 136.927C152.485 136.77 152.122 136.697 151.757 136.713C151.393 136.728 151.038 136.833 150.722 137.017L149.079 137.974C148.528 138.296 147.897 138.454 147.26 138.428Z" fill="white"/>
<path d="M174.046 137.648C173.197 137.609 172.394 137.25 171.799 136.645C171.439 136.263 171.17 135.805 171.014 135.305C170.857 134.805 170.816 134.275 170.894 133.757L171.114 132.025C171.161 131.657 171.118 131.282 170.987 130.934C170.857 130.586 170.645 130.274 170.367 130.027L169.053 128.852C168.665 128.521 168.356 128.107 168.148 127.642C167.94 127.176 167.838 126.67 167.851 126.161C167.879 125.405 168.164 124.683 168.657 124.11C169.15 123.538 169.824 123.15 170.566 123.01L172.413 122.66C172.778 122.59 173.121 122.433 173.412 122.202C173.703 121.97 173.933 121.672 174.083 121.331L174.772 119.768C175.018 119.175 175.423 118.661 175.942 118.283C176.461 117.905 177.075 117.678 177.715 117.626C178.343 117.591 178.967 117.734 179.516 118.04C180.066 118.345 180.517 118.8 180.817 119.352L181.721 121C181.9 121.327 182.156 121.605 182.466 121.81C182.776 122.015 183.132 122.142 183.502 122.18L185.255 122.357C185.764 122.397 186.257 122.549 186.699 122.804C187.141 123.059 187.521 123.409 187.81 123.829C188.23 124.457 188.425 125.209 188.362 125.961C188.299 126.714 187.982 127.423 187.464 127.972L186.176 129.342C185.922 129.612 185.737 129.94 185.637 130.298C185.538 130.656 185.527 131.033 185.605 131.396L185.976 133.113C186.095 133.609 186.103 134.125 185.998 134.624C185.894 135.123 185.679 135.592 185.371 135.998C184.906 136.595 184.251 137.015 183.514 137.189C182.778 137.364 182.004 137.281 181.321 136.957L179.618 136.154C179.282 135.996 178.913 135.922 178.542 135.938C178.171 135.954 177.81 136.06 177.489 136.247L175.864 137.193C175.314 137.515 174.683 137.673 174.046 137.648Z" fill="white"/>
<path d="M200.902 137.534C200.441 137.513 199.989 137.397 199.575 137.193C199.16 136.989 198.793 136.702 198.495 136.349C198.198 135.996 197.976 135.585 197.845 135.142C197.714 134.7 197.676 134.235 197.733 133.777L197.973 131.889C198.019 131.527 197.976 131.16 197.848 130.818C197.721 130.476 197.512 130.171 197.24 129.927L195.822 128.661C195.358 128.246 195.019 127.71 194.844 127.113C194.669 126.515 194.664 125.881 194.83 125.281C194.997 124.682 195.328 124.14 195.786 123.719C196.244 123.297 196.811 123.013 197.422 122.897L199.291 122.542C199.649 122.474 199.986 122.32 200.271 122.093C200.557 121.866 200.783 121.573 200.93 121.239L201.697 119.498C201.948 118.928 202.353 118.44 202.867 118.089C203.381 117.738 203.983 117.538 204.605 117.511C205.226 117.484 205.843 117.631 206.386 117.937C206.928 118.242 207.374 118.693 207.674 119.238L208.588 120.906C208.763 121.226 209.014 121.499 209.318 121.7C209.623 121.902 209.971 122.027 210.335 122.063L212.226 122.255C212.846 122.317 213.435 122.552 213.928 122.932C214.421 123.312 214.797 123.823 215.015 124.406C215.233 124.989 215.283 125.621 215.161 126.231C215.038 126.842 214.747 127.405 214.32 127.858L213.017 129.244C212.767 129.509 212.585 129.831 212.488 130.183C212.39 130.534 212.38 130.904 212.457 131.26L212.859 133.121C212.99 133.729 212.949 134.362 212.74 134.948C212.531 135.534 212.162 136.049 211.675 136.437C211.187 136.824 210.602 137.067 209.984 137.139C209.366 137.211 208.74 137.108 208.177 136.843L206.456 136.032C206.127 135.876 205.764 135.802 205.399 135.818C205.034 135.834 204.679 135.938 204.364 136.122L202.72 137.079C202.17 137.401 201.539 137.559 200.902 137.534Z" fill="white"/>
<path opacity="0.2" d="M227.022 136.827C226.561 136.806 226.109 136.69 225.695 136.486C225.28 136.282 224.913 135.995 224.615 135.642C224.318 135.289 224.096 134.878 223.965 134.435C223.834 133.993 223.796 133.528 223.854 133.07L224.093 131.182C224.139 130.82 224.096 130.453 223.969 130.111C223.841 129.769 223.632 129.464 223.36 129.22L221.943 127.954C221.478 127.539 221.139 127.003 220.964 126.406C220.789 125.808 220.784 125.174 220.951 124.574C221.117 123.974 221.448 123.433 221.906 123.012C222.364 122.59 222.931 122.306 223.542 122.19L225.411 121.835C225.769 121.767 226.106 121.613 226.391 121.386C226.677 121.159 226.903 120.866 227.05 120.532L227.817 118.791C228.068 118.221 228.474 117.733 228.987 117.382C229.501 117.031 230.103 116.831 230.725 116.804C231.347 116.777 231.963 116.924 232.506 117.23C233.048 117.535 233.494 117.986 233.794 118.531L234.708 120.199C234.883 120.519 235.134 120.792 235.438 120.993C235.743 121.195 236.092 121.32 236.455 121.356L238.347 121.548C238.966 121.61 239.555 121.845 240.048 122.225C240.541 122.605 240.917 123.116 241.135 123.699C241.353 124.282 241.403 124.914 241.281 125.524C241.158 126.135 240.867 126.698 240.44 127.151L239.137 128.537C238.887 128.802 238.705 129.124 238.608 129.476C238.51 129.827 238.5 130.197 238.577 130.553L238.979 132.414C239.111 133.022 239.069 133.655 238.86 134.241C238.651 134.827 238.282 135.342 237.795 135.73C237.308 136.117 236.722 136.36 236.104 136.432C235.486 136.504 234.86 136.401 234.297 136.136L232.577 135.325C232.247 135.169 231.884 135.095 231.519 135.111C231.155 135.127 230.799 135.231 230.484 135.415L228.84 136.372C228.29 136.694 227.659 136.852 227.022 136.827Z" fill="black"/>
<path opacity="0.2" d="M253.142 136.116C252.681 136.095 252.229 135.979 251.815 135.775C251.401 135.571 251.033 135.284 250.735 134.931C250.438 134.578 250.217 134.167 250.085 133.724C249.954 133.282 249.916 132.817 249.974 132.359L250.213 130.471C250.259 130.109 250.216 129.742 250.089 129.4C249.961 129.058 249.752 128.753 249.48 128.509L248.063 127.243C247.598 126.828 247.26 126.292 247.084 125.695C246.909 125.097 246.904 124.463 247.071 123.863C247.237 123.264 247.568 122.722 248.026 122.301C248.484 121.879 249.051 121.595 249.663 121.479L251.531 121.124C251.89 121.056 252.226 120.902 252.511 120.675C252.797 120.448 253.023 120.155 253.17 119.822L253.937 118.08C254.188 117.51 254.594 117.022 255.107 116.671C255.621 116.32 256.223 116.12 256.845 116.093C257.467 116.066 258.084 116.214 258.626 116.519C259.168 116.824 259.614 117.275 259.914 117.821L260.828 119.488C261.004 119.808 261.254 120.081 261.559 120.282C261.863 120.484 262.212 120.609 262.575 120.645L264.467 120.837C265.086 120.899 265.675 121.134 266.168 121.514C266.661 121.894 267.038 122.405 267.255 122.988C267.473 123.571 267.524 124.203 267.401 124.813C267.278 125.424 266.987 125.987 266.56 126.441L265.257 127.826C265.007 128.091 264.825 128.414 264.728 128.765C264.63 129.116 264.62 129.486 264.697 129.843L265.099 131.703C265.231 132.311 265.189 132.944 264.98 133.53C264.771 134.116 264.402 134.631 263.915 135.019C263.428 135.406 262.842 135.649 262.224 135.721C261.606 135.793 260.98 135.69 260.417 135.425L258.697 134.614C258.367 134.458 258.004 134.384 257.639 134.4C257.275 134.416 256.919 134.52 256.604 134.704L254.96 135.661C254.41 135.983 253.779 136.141 253.142 136.116Z" fill="black"/>
<path d="M419.565 358.992L420.33 341.81C428.296 337.552 437.181 335.303 446.213 335.258C433.782 345.421 435.335 365.013 426.907 378.681C424.246 382.923 420.664 386.513 416.427 389.183C412.19 391.853 407.406 393.536 402.43 394.106L392.027 400.475C390.6 392.517 390.914 384.344 392.95 376.52C394.985 368.695 398.692 361.405 403.816 355.151C406.726 351.671 410.062 348.571 413.745 345.925C416.237 352.495 419.565 358.992 419.565 358.992Z" fill="#F2F2F2"/>
<path d="M479.205 401.978H200.373C200.162 401.978 199.959 401.894 199.81 401.745C199.661 401.595 199.577 401.393 199.577 401.182C199.577 400.971 199.661 400.769 199.81 400.62C199.959 400.471 200.162 400.387 200.373 400.387H479.205C479.416 400.387 479.618 400.471 479.767 400.62C479.916 400.769 480 400.971 480 401.182C480 401.393 479.916 401.595 479.767 401.745C479.618 401.894 479.416 401.978 479.205 401.978Z" fill="#CACACA"/>
</g>
<defs>
<clipPath id="clip0_1978_24518">
<rect width="480" height="401.978" fill="white"/>
</clipPath>
</defs>
</svg>
