<svg width="24" height="21" viewBox="0 0 24 21" fill="none" xmlns="http://www.w3.org/2000/svg">
<path d="M17.5566 3.21875H22.0004" stroke="#FE9F00" stroke-width="2.88934" stroke-linecap="round" stroke-linejoin="round"/>
<path d="M2 3.21875H11.1997" stroke="#FE9F00" stroke-width="2.88934" stroke-linecap="round" stroke-linejoin="round"/>
<path d="M16.3892 4.4386C17.0626 4.4386 17.6085 3.8927 17.6085 3.2193C17.6085 2.5459 17.0626 2 16.3892 2C15.7158 2 15.1699 2.5459 15.1699 3.2193C15.1699 3.8927 15.7158 4.4386 16.3892 4.4386Z" stroke="#FE9F00" stroke-width="2.88934" stroke-linecap="round" stroke-linejoin="round"/>
<path d="M17.5566 18.2422H22.0004" stroke="#FE9F00" stroke-width="2.88934" stroke-linecap="round" stroke-linejoin="round"/>
<path d="M2 18.2422H11.1997" stroke="#FE9F00" stroke-width="2.88934" stroke-linecap="round" stroke-linejoin="round"/>
<path d="M16.3892 19.462C17.0626 19.462 17.6085 18.9161 17.6085 18.2427C17.6085 17.5693 17.0626 17.0234 16.3892 17.0234C15.7158 17.0234 15.1699 17.5693 15.1699 18.2427C15.1699 18.9161 15.7158 19.462 16.3892 19.462Z" stroke="#FE9F00" stroke-width="2.88934" stroke-linecap="round" stroke-linejoin="round"/>
<path d="M6.4438 10.7305H2" stroke="#FE9F00" stroke-width="2.88934" stroke-linecap="round" stroke-linejoin="round"/>
<path d="M22.0004 10.7305H12.8008" stroke="#FE9F00" stroke-width="2.88934" stroke-linecap="round" stroke-linejoin="round"/>
<path d="M7.61188 11.9503C8.28528 11.9503 8.83118 11.4044 8.83118 10.731C8.83118 10.0576 8.28528 9.51172 7.61188 9.51172C6.93848 9.51172 6.39258 10.0576 6.39258 10.731C6.39258 11.4044 6.93848 11.9503 7.61188 11.9503Z" stroke="#FE9F00" stroke-width="2.88934" stroke-linecap="round" stroke-linejoin="round"/>
</svg>
